<mxfile host="65bd71144e">
    <diagram id="e8706574-7626-1de0-e632-5b8277130dd5" name="Page-1">
        <mxGraphModel dx="1207" dy="846" grid="1" gridSize="10" guides="1" tooltips="1" connect="1" arrows="1" fold="1" page="0" pageScale="1" pageWidth="1169" pageHeight="827" background="#ffffff" math="0" shadow="0">
            <root>
                <mxCell id="0"/>
                <mxCell id="1" parent="0"/>
                <mxCell id="759bbc3739f4eb62-2" value="" style="shape=image;verticalLabelPosition=bottom;labelBackgroundColor=#ffffff;verticalAlign=top;aspect=fixed;imageAspect=0;image=data:image/png,iVBORw0KGgoAAAANSUhEUgAAA30AAAIVCAYAAABlWpY6AAAAAXNSR0IArs4c6QAAACBjSFJNAAB6JgAAgIQAAPoAAACA6AAAdTAAAOpgAAA6mAAAF3CculE8AAABWWlUWHRYTUw6Y29tLmFkb2JlLnhtcAAAAAAAPHg6eG1wbWV0YSB4bWxuczp4PSJhZG9iZTpuczptZXRhLyIgeDp4bXB0az0iWE1QIENvcmUgNS40LjAiPgogICA8cmRmOlJERiB4bWxuczpyZGY9Imh0dHA6Ly93d3cudzMub3JnLzE5OTkvMDIvMjItcmRmLXN5bnRheC1ucyMiPgogICAgICA8cmRmOkRlc2NyaXB0aW9uIHJkZjphYm91dD0iIgogICAgICAgICAgICB4bWxuczp0aWZmPSJodHRwOi8vbnMuYWRvYmUuY29tL3RpZmYvMS4wLyI+CiAgICAgICAgIDx0aWZmOk9yaWVudGF0aW9uPjE8L3RpZmY6T3JpZW50YXRpb24+CiAgICAgIDwvcmRmOkRlc2NyaXB0aW9uPgogICA8L3JkZjpSREY+CjwveDp4bXBtZXRhPgpMwidZAABAAElEQVR4Aex9B6BdRdX1TnghARIgwYCAFEFESihBSCiCQWl+H8WCgoBdsH0iyC9g74B+UgQBKyoIKvgpTVAUpIggEoTQpEgLRQNESIBAQvLP2jPrnH3Pu6/mveSFrIF3Z2bP3ufMWWftNXNy37t32IvzFyywVIYNSy+phQ7a2Vq3yzBcq/GmTfEDg9/kyZPspJO+bZMmTeoSa9yfvuL/0PTptu3kyTb94el+f/sa70TR/e/ynoj/A8N/6Y/0V+uPL7Vdak1/9F/63T2m0m/pt/a/9f4e2cK1uLlXlP70ff89VPR3uN/Y9IKbyEl1WnDTHfdkgHMqHPenjtR3Qih+wPDjgaqEE/7iX8kz5Z/0R/qLLEgFC0+ptH5p/db+JecD9UH7h7xWOA5FJ4AQ8ZF+ZL5o/545sbTohz/0+cWWBTTTIL3iQaOgUNX0KXVlRxDHeADFD3n85qf7i1vM+19ud90v4/BDWcB7XGrFCz9Qw+mBfHeWhH4ywCb+ZGCUP4Ug0g8HQvqZ9UH6kegg/dT6UeSxygetn9o/JE4M9P6pwx/WwDJnWmEdFuXYhzna4hjt7WzlcF7RD512vu1siq8RGED8+LCOQ/K+wsZT8F8IOeyTSIOM4/1TvPAjacQf5Y/0Iy9t0s96rfA1oiwkWj98Ja32P1o/tX5q/UwcSHtP7R8W3f5hODfwLkdU6OYDGAajDf3e+rbzU/xixQ+3BBsTlGohRifZ3FweAGGCAbeeSYlx/3FHxQs/kKSUxAmnhfiTcQAsCRDlj/RD+lnWjZwSWn+0fvqiofXTYcgvWj+1fwATBnn/NLzeneSTtfTLBFB5KULlbexkUJq22Mc4/dr5trMpHqjUZRDwwyEhtqjj77u7ACf8fRxjxa+6JWFM8cJP/FH+SD+KDhSthGhKP1sx0fqRyIESuKH1U+un1k+tn4tj/exoeSiDMIGJKFRq9mGLbYyjH23RR/FAoxWfiFVv8KNPPlLrsTgWjxnP1w3+PtQm3k3peNV4Ot6w1Mcp3MYxnEfxGRiAU4rwS5CQI04Y8Uf5I/2Qfmr90PqZFkmuDVgvtX/Q/gHCiJ9StH9KcDBHBnH/1OF4lwQE/uVcLTej8kEjObkfa9gUX+MCPFAAUiwElrixhk9X+MVj9Ce+ef5yjPk4ZeP81b88pjE/bTw3bD2cX/EZt3IrO91/4VfISN6xhjmBJv6IP5Ac5U+RDulvEYxcST8LHNRN1jBLP7V+BD64dPhL4UyqlD8FC+LEGualLH+GVwRJF44FN7/khSfyxjdlxUA/1IovIAg/8Uf5I/1wcZR+Yl3Q+gFByEXrZ+KD9g9OBu2fEgxlv6T9Y8ICIGj/qP0j1GER7B+Gl3NUgsyVGr9ryjESsupjcomohavoKd7VK+MCPISf+FPlS8mlqg+CKH+kH9AJcCEVbogdlNSXftTYaP3JWJArmTBaf7X/qHNE+uFZkZNC+qn1o+y5nBWlLf3MOeLf08dFlTsQf34pDzGd2ogr6FUgFlBp7xQTj6X4HvHzWxMxi23h1yN+4l8iSeRMbIs/4o/02yVW65fD4PngWBRApJ/ST60fOTc65QLM0k8HR/qZOQI+OBYFkE6cGWL7rw7/F6IyKb8EtNPkq4mjXWwYb/kXJVwkxtwZo6kUXzexXWof9oHaT/EFC4CDUvBBRdxZ+/BC4lcdA8fR/ct4E1MHJ+PipoLRQOKv/AHIqYh/yj/pj/QHOuBi66pQ6YKbikZIfxM2yJVUtH5kHLR+JBykn9LPfuhn/nJ2V5OSTKyK4HqX5EKH7VjD7iqNRimKr4S6wgzQRNwiRosCP56D52WNeXEMbZQ4xjnDznas6Y+aRfFD7/7j3sT7Fu+R7j+Zm+uIDTETfuIPuRBr8EL5k/OGr8of6T9yBIW5Etu00Uf541BVL8of5Q9zg7kyQPmTP72TBGuXeBULG43oO4Dx8+fPt2m3TrPfXnSx3Xjj3+yee+6xf//73/bss8/6D2ax/PLL26qrrmrrrruubbTxxrbD9jvYrrvvZiutuFLrJOMcW0daF+kBnH/LaZaw8+NfEckzv44wf0JUXV8Y4wOi4oWf+FNlSIvGKH+6zg3pR+JMShzpZ9ccUf50jY3yR/kj/ZB+9nb9yN/Th50aN/Fsx5r7GPhE9Y39AYj/61//av/zsY/af/7zH9tnn33swAMPsPXXX9/WXHNNGzlypD/sLbPMMv7w98gjj9iDDz5ot9wyzc4552zbf/932L5vf4f97OyzbXj6b/6C+XbvPffaHXfeYU8/9ZTHrDhmRRufHhY33mRjW3311fO18HoGYP4OU8SNx+4rfvDHcVBYo43jxWPGPtoo3Z0/e9THbMT7qbqI97Hoj2PFfmorvmv8hV+DL+KP8kf6Ueu59FPrBzRR629LTmRSlL1F1AutH1o/Ih+kn73Wz/zrnQAPhYKTe/mVYxxHDZvvYktNn17EP/DAA3bnHXfa/fffZ8/Ped6ef+F5W3X8qoZ3+D74wffb2emhbf/998dZuiwrrLCCbbDBBv7zhje8wQ477BP25JNPpofDV9g+e+1ly6fxy37/e1t55ZVt8803tzFjxvjPzJkz/V3DW2+91ZZddll7wxvfaAe9612204472fDh6TNtejF/n9RCXL/iEwLCr9/5I/6IP8qfxIF+rj/KH+WP8kf5I/1wJWzd82r/m/emBRqv+GyDDtecJXz/mt/pixfENi+WRGAdx5s2jKE07I88/IiddNKJdv5vfmPPPfecbbjhhv7T0dFhyy23nN1+22125pln2g03/M1e+9qt8jH6+Dpu3Dh76qn/2J577mW7vPEN9r3vnm5jx47t8ih33XWX/f73l9lhhx5qc+fOtS995Sv2tre9Lfs35l8tEj1hwrMtbDyO09O5SLzo18vz+xd1NuLxEfHVodAuHbc3fKv7G65T8cJP/MkJWOVM6lbtkCvKn6JvARPph/RD+iH9AAKVZsZ20ArpZwKmsSeTfko/e6ufw+a9mLb3MaGQdSiwoURyNf3YZ50j8muy4d27L3/pS3bqd76T3sX7oL397fvaxIkTo1fVhq+/21ZZFl3jj3/8o+2yy642efJku+JPVxoeRgfi+v0K+oHftpMn2Ynf/rZNmjRpofBvnn/6w9Ntu3SN9z803Ycqce3i/jG+K7+u7Png/urz78qvK7viEwK4JyiJP13h1JXd4xTvMAg/8aerPOnKrvxJCEg/pB9AQOuP1t+kBf4mADQB+9lSpJ/tcXF4hrB+5u/pwyw5SdblxnoVbrT34YOfaGdcqV988UWbuMUW9rtLL7U709/VHXvsMV0+8OGYi+uBD+fGr4jOnfuCvzO485TX2+zZs2GuS7xOWHtx/XVwag2xeCQrroHv5mGubvMGXvIl5lbtV25t9lW88Au8Fn9KtpQkYa7AyjyjTfmXQJF+VLwAR5Q/QCEV5U+EwdvSD4eB1ND+Azki/ZR+9nP/NdwzCcH4AZlizXYyV2No0z/a6ZvqF+e/aG9JH8Sy4oor2vXXX2fjx4+HZ7/K448/bl/72tfsc5/7nN2Wfg20u/KXv/zFTjnlFLvwwgu7c2s7hg+Iufjii/zvBE844XhbMD9dCK8JEcQGbdjxg0I7fWPNdvRDG3b8oLSLh50+GEehH9oci3bY6MOatuiH8BDvm43UdxvjUl35wIZCW2pWYzCXGMVnjPzeEKsG/o6R8BN/lH9JRFIipCL9SCBIf7X+cK0odbXGav11ndD+o+y7IBfgCH5SkX4mEBIW2n+CDBmLKleKliSrj3H/OdzJQ2Hx0fql8Crzq3EAP0E4SR1ldv7559vDDz9sV175p0TKLg4eA7poP/300/7AePvtt6djXWmbbrqpod2ufOELX7DtttvOrr32Wttvv/3stNNOa+fWo+34479lJxx/vD3//PPMqz5fP0/SX/wWZXyVLDxpqHszf8UnwLqguPDLZHIc8EKcUJcf8SfgkuGqXsWfDIX4k3BQ/kg/pJ9ZELR+aP3U/sE50J/9k396pwcindLCgme0qg9TsAHnagGGfyot/sX3Rz/8oR199FH5b+OyW79eD00fsnLIIYcYvsrh73//ux9jypQp9q9//avleHfccYd9+ctfTp8Ier+tu+66Pob+6NGj7aCDDmrx7amDD4TBp30++NBD/q5ff65/YfHDHB1n1P3Av6vz89rjeLv7F8cH8vy95Y/Ozzs1sPdf+PdOv8Q/8Y8ISP/qNV76If3ozf5P+kn10Pot/Rx6+ln/TV/iaXwAQJs/TGLeQPwrPcaahfE3pwe0173udc3hPvfxd4Hrrbee3XTTTenhZ4HhVzDxRe3Ngr/BmzBhgl100UU2YsQIH37sscc6/21eM7BN/7rrrkvvUk63tddeq9/Xj8MSO2ICW2/xG8x4HLun+zeY53fe9MAfnX/o8kf3T/kj/eh+/ZN+Sb+G6vov/ZZ+S7+Xbv3u4IMI6mYb5OBbTi4W6Ja3oErVKQZ+eFgbiHLkkUf6r3S++c1vtl//+td+3OOOO67TofGJoPjuvt/+9rf+9Qt0OPDAA9nsVX3zzTfbtttuaxde9Nv0ZfCjWt7V7Mv1E8v+4ofJ+jG8kac+EOfnMXBh3d2/hZ2/4kue9DN/hJ/wAwf6qx/ij/gj/ih/pB+JA2Wjw72P50Vtbrt/lX5KP1/K+unv9OECmRQpH+p2sDMR6Iea7Wb8VlttZVdccQUOtVBlk002MXyh+pprrpm+7uHtdt5559mnPvWpTsfEO4DXXHONjRo1yj8hdMcdd/R3BPFrmr0tv/3tJbZF+rTRwz95hO22+245rJ/XT1wgOGz3Bb9qzv2M5znbnZ/Hhg/9mveP9nbxHFO88CMXxJ+aC8gv4qL8qbHoi/4Jv6LSg6D/xBY128rfGgvlb8BC/GvJkZgnyp+aJxEX5U+Ny1Bd/4fNxff0DXD5w2WX2R677+p/Y7fOOusM8NEH53D4FdLjjz/B8J19+FL3v/7txvRu38jBOVkPR90ufU/fCSeV7+nrwbcvw9OnT7ftt51s/3xwuosZk5UMgJDRhuOCGMnUUtr5trMhSPHCT/xpSR/PL1hiril/MkYRE1ikH9IP6UfODb6204p2NuWP9EP6Kf1sp58tf9NHYVnY+o277GInn3Kqrbvuuvbzn//cPwlzoH7lc2Hn1lX8lltuaWee+VObPv0h/1XR0cuPsieffLIr9yXajs1VLOjThhqLCH7g5u3i7Lbgy2MoXviJPzkblD/SD+mn1g+tn9o/aP+k/eNQ3D8PykMftj8f+vCH7aKLL7GTTz7Ff+3ya1/7Op8RhnSNL4n/61+vtz333Mt+fMYZQ3quCzM5PsDhX4O4ScHxaOfm1TfzcEqFNrTpp3jhJ/5kDsS8YK4ofyAWQEb6QU4AC+ln4UPBAnigEBdipfwBKA6N1t/yD9KRJ9p/5JxR/uQckX5kXe1OPwftoQ+34NUbbmjPPvusTZo02fbff798V7p5nTt3rm200UbdeCy6oT33/G+7++67Ft0JF+GZIJQVKUq7Oj3+eSoVJg/a9KVN8TUmgMs3JgAKRfg5DOSKQ1IWa9rEH/GHmqL8kX5IP10y84vWD60fCQGulQCDWkmb1s8aE60ffV8/Bu2h75FHHrFXv2o92yX9qud11/3Fv/POs7mbF3yRO/7u7PHHH+/Gq+9Dm2++ud1www19CrzrrrvtFa9Yq08xS4wzVCOUSkxgL2NRaOhaLc6KJyReC79ahMWfTA3lT+u/QAMV6UfmBnOk9KoNHnSEY+KP+AM+OCcKUZQ/yh9HQPuvQoRcaf/Vt/1X24e+BqdaAQ69rvxmP/OM7bDdtnbsscfaN77R+SsWwiFamvgUzv32288+8pGPDNjXPnz2s5+1W2+91T/Vs+Vk3XSeSfP/yU9+Yu9Ic2mWeM2xHf26ssMnjsX2oor38+CdlzIXn0Pp+7tUqT0/Gau5hTHYMAY/VPxhX/EZG+En/iA3vCh/spYUHKQfiRXSz2rt8DwJOQJspJ/ST+mn1g+tn/VawTVjINZPf+irNu/pHGgn3fXCxIvjGKO9uFUCjj7GfnfJJbb++usbvmevLwXv9J1++un+wS8dHR32z3/+sy/hLb54cDv88MPtrLPOsqefftq/2L3FoZvO+973fnvzW95i67/qVe7V1+tfWPwGMx4XFP/1kH3a+K8mbsdLKrBxnP8CnUfyaxxXfP5XF8etgBTxEX41l8ihiI/4I/7wHQ2uM5Efyh/lD/gQS+SH9EP6If3I2cE0ifkh/ZR++kMfHjL4oMEahGE7joNO0c5+tM2aNcu/9gBjfS14t+/888+3E088Mf0t4CQ76KCD7MILL7QXXnihx0PhE0Lx1QuHHXaYvfKVr7QnnnjC8IXr+OL23pa3v/0ddscdd9ix3/hmy3Xy+nActmMd2/BZGPwQjxKPyXbTzj7HWXd7fjglB4ojurGNY/riiUYqGPNxHLT0Fd+KmfAr3MiV+IP8Klgof6Qf0s+UDFo/XBHIhbhmxDactP5KP7V+eLpo/znA++8O6DDJFdtNG8dY59uRdbzpu/Mb3mAf++hH7MYbbzR8UXt/yqGHHmrvfve77ac//amdcMIJ9s53vtNeld55w9/nrbLKKjZ+/Hh/EMSD3oMPPmgPPfRQ+tTNv6a/w3uF7bvvvnbttde6f2/Pja9nOOCAA+2pp56yv029yfApnii83mbN49IefdFuYkI/1j3FN8cZx7o5jn4ca3d+xkTHln8ZTQeoFp9yAI631DhQYxwm+vhwY5xjXrsDXlpj6AM750FbS+0OeFE8cWliIfycHhUniZPXGGrwU/i15pL4I/7EnFD+5DVJ+lGkU/rpAsG8iLmCtvTT4dH6W/bU5MlQ0I+OfGvya8nj+Ezge6N2DxOIgD0Wxq+19tr2s7PPsde+9rV2+eWX25QpU6Jbr9srr7yyffzjH/cf/Lrm7bff7n+fhwc0/OBdwWWXXdZ22GEHw5fA4wETX6zel4KHxh/84If2+c9/3t6WHhb/91vH27DywIfj4Jr6ev1N/2af8+sKv2gf6PP7ucuNAgFjKeYqUTEG8SJh2WeM4olEroVfxqHJl2afqIk/REL8AQLKn8yDZr40+9kr6zLbqIVfRqOJV7NPzGCPRfhlNJp4NfvETPgRiVyLP+IPEGjmS7OfUVp8+u0PfQ3t8zk1bc0+J4663dhe++xjf7ziStt/v3fYPqn9iU8caq95zWtiWK/ajz32mL385S/3X9HceuutDT/9KXjnb/LkyR7q7+b97W92wQUX2q9+9SubmB4WL7joYq957OY1Nfv0Q91urGlr9nuKbx63r/FNf/RpAwnRrv41iieDavlAqqJPssOMlzKc66JyHItPyIovWAEj4Sf+KH+kH9JPrR95OdD6CRy0f8CqUK2N2j8VMLBfolZq/zTg+8e2n97pTByAl9ftuKPdfOtttvK4cbbTTq+3HXfcyfAl7fg1THx/X1fl0UcftXPOOcf22ONNtvrqq9uXvvTlrlx7Zd94401s++23t+WWWz69O9hh6623vn39mGPtZeNXtUsv+4P9+vwLWh74enXQJdkpJRIFNytOuJgixBAgNt2nPO15nOKFH8nhT/ziT4UAcUGO0AiMlD8OiPQjcQHcIDmUP8ySXBMXYMQR5Y/0Q/pZ6wZyg8kh/aBKSD+AAHkBjhCZhn62/HonfQayHpce+L7y1a/ZF774JfvDZZfZ73//O/vwhz9it912m73sZS+zVVdd1VZaaSXDF7PjQfC+++7zX9vccaed7G3pQ1VOPvU022C9dW327Nl26KEf97/Z68388F1/l6RPEf3Od061sWkOz8x5ISXKMMOngi71JQpFYgb+VcVFBHYwJdXeLG3aHDcMxKJ44Zc4If6kpPCkybXypzMnXDakH1E9XW+lv525ovzpjInyJ2trSwJp/6H9RxIL7T9KbvRi/77InoDwsLX7Hnv4D5IWf0uHL3D/97/+Zfh7PXxwygqjR9va6e8B8UEtsdz34HQ79piv25ZbTvQPcMHf7q233no2atRIGzlyZHoHbzn717/+nX7+ZTNmzPBP7MRD306vf70dfsT/sz332ksPexFQECOUqhsEtJ3NQ6qB+gCVSfGVALfDRPglBCpgxB8iUEGi/FH+lA1MO05IP6Qf0k+qZl23y5V2NuWP8kf5k7ZgL7yIf2dcMgoeFKdNm2bTbrnFHrj/fntuznP+nX74Oge8o7jaqqvZqqutZhttvLH//SA/gXPJuLp6lttNnmQnnvRt2yZ9ZcVAlunTp9sO2062e9NDNMjv/8KME1Ah/Z9XyxnZZs2JkC2KF36JC04d8SdnR8wVtlkrf2qM0JJ+SD+kH9LPogUuDlEr2WbtDukFfRTph/QjcUH7j5wLnhMxV9hm7Q7pJfW7fqcPzijc0KHdPABsXZVBiF9m+DK2xRZb+E9Xp63sOH9zvs1+5dymMQjz7zSfNqetTIM1/3QCh6Fcn1eljXMPS+3KhgbuP8fZL36pqn3RSUXxARPiJfwyOYhH4QmMDg3xKfbKRn+Os694zzPhJ/5UuQIypCL9DZygXkg/MjmIR+EJjOIPQQAayh/pR8gJ5stLTD/qD3LhhWXu581+fODzjOBgqWNMbNNX8a2ANfGImMX2IsDPTxfPWdo0+e9IN+cb+opPN4lg4X4JP6BAGPLv2Ae++GDoiz8BrAAcKaX8S6AEvog/rXgofxIeTBaQo7RpUv608gUQxXwSfxIeJAuwEX+AAmHQ+o215yW6/tQPffEC2yRDCyO80wBF8USlzhxYusISYxGz2MYYS3/iu4op9upUpeFVZUwnTn7VIapGtmNalaviAUfGowIlGYSf+OPMyFxgk6BUVFH+ODQOQwVKxqySnapRY1m5Cj/hlxAQfwiC00Hrj9ZfLjVhI5e4UbRU+lnyZCldP/JDX3NhrVhRxITj0U4b8Gu2ox/aHI922tLwnCdn+Ie6zJg5K/tGv17EV8fnXJb0eFwHyyBcv0OfXghTy191YpADaIbzezvZFJ9BIEzCL+HBIv4of5gYiRPSjwSCC2bBgt1kI0zSD4pHAYfApK74Q8KIP9p/5DzR/ivnBGVC+pl54a+92H8NdwIl9LwGlqVd9XGkYIO9ikmNqg2/VPoUP/cB+8nhO9uK6fvy1l1rTVvzZSvasu/+hk2bOc+Pe+vJO9tW35w6YOef9r18vGrOCzv/QYp3HB3NVnwxb/74PVnI88/vRfx8zKPcf7Tj+RXfen8AVZP/wk/8Uf7kPJF+SD+1ftRrhtbPGgvwAkXrZ9CIhIf2DwkE7T993z1Q6+fwhKcfMFX+aUCoYUPhE7QnZMnKagwOqdP/+Bn2/d3XtQ+etKKdc+099sR/nrb7b/2jffxnR9pWU061menwL5RzDtT5R2DOpfgxF2r+6UCDFF/NcYCvH8fF/UIZytdfzVHXX9+rgkWFDUYGiX/VOYS/8E8IOA3EP+dClRvoKf98PSnUqPYLFUbSD+eM8ifBIP1wLlS5gZ70Q/pRp8Yi009/p49EjCR0WxlAVb21HpM3tdHtT/wzU8+xj/3J7Jy7zrO3TlrfRo8ZY6tvtLMde9e5tpPdZ4+k3/TkgXH8Fx+fal9/1+a27DLDbOQWB9kvrn/ET/7cnWfbvh8+22YnH/g/n/pvTf1nvD/TLvrmITYyxez67k/bWb+4wsaNxEA59ELM3695kOKr+RVgUQ0Y/jh4KoM5/4oTgzF/HFzz1/0DCQYp/8Tfog/KX7DMc23A9Ff6VWGq/O3//knrd6KR9L/f+2/xZ+nlj/9Nn69D6QVE4Lt7rsxlgUIFO8arxc8d8ou7lfHext/159+YTTjJpqzf4cTFC46/zHpvs9///QTbdEzq+IFRPWBffPlW9qXZB9j1d91jF77f7F3brWk/v3OWzXv2cbvge4/b3BI/95nH7UL0bZ5d8ZnX21uPus6+9dur7Ijtn7Bv/MlspVFhzrnZcv7ezr9MzY/g7XL+IR8frzm2l5T5u1pV1Fjy8Nf863sm/tVYKP8W6frjmi3+iX8JAeeC8k/5By50EobMD9gHcv/b6TTin/i3iPhXfXonHuaciKkGuZ38pZ26bsQ4fjCOwgdAtvsSP8LfcRtp/JXLrs6PY8+edql9wzazq3/yKdti/fVtt//5tn1rgtn/XnS38QDLpkn5+ZdFRPoCwgUP2+XH3mJHXnaJfWy319muh3zXLjzU7L7nB2b+OMfCXH938RgbbPy7O/+iuP86/+DxR/dP+SP9SAqTEgG54CU1BnL9wjEHS/+Vv8pf5S8STPkr/XL1diJIv/MaRk70d/0Z7uKScPU/EvSnpvqPRwE3/tgYhX6o4x8U0t7n+GVXNJv2lD0bzunHmvOAnXPyd+3W/8zLJ/bX9KRmB9gG6d2/fP7lbI3Nkim9a9c8f/Vt87OfsOuTy6or4S3D7LfGa6akjwodoPnjmOW4OH6fr7+beByPu5WBxh+HHpD7l44zWNeP+Q3W9Wf+lLnjGpr8SzadX/iLf4kDqQy0/ij/pL9af7T++N4h6YvWX5fZAd0/av+SMC1PRlq/Mr+YZ6iHExzHiI+QZSPs7snm3TKGp0s08eMHoh3OpZ0DYEgl2drFbzB5nzR4pJ1/K/54r4Qm30ev/K69+xOn2lNWPb7ZgrnwmGZPpudAnv+Jh5MJB/Zzzkm/zJnbs2Y8ln5tFJ1S0jt/PP+zTz3hRoTgZ2HmP6jxZeqcLOePPq+/v+f3Y+A46WfIXr9fMGaaSproQF7/wuKn+Mwd8Uf5I/3I+lRkKicGOtIvoJCL9FvrF5iABQNVqtHEj/SjAMGqYCT9SICwJEy0/0tgFG4MRP5Un96JBGQi4sAAmjbYfazYqrFkjHZv4zipUfmU2OiHsZEb/pd96/VmH9tib/v51Afsuedm2T+v+bHt+aZjzA7+nE0cm8+fXG3MWpum57iz7LTzp/nf7j1yzU/8Q2AOmbKBDfMHwiPtghtn2oszp9r/2yXFrzLSFox5pe2Vjv/JL5xhD6V395558FL77FG3+Ae5VHNLk4rz8nYv5+/YDFI8rrmaY2pjXnGe1Vg/zt9y7H7E47oX5vyKF37iT9Y2CniFB/I+dXqjn/SLuuBtxQu/RITIKfAi8qQaS8Zo97b4I/4kIlQcKdyJPKnGkjHavS3+iD+JCBVHxB/PkZgnFTbJGO3eXgT504EJ+MnwglLqaMMGA3ba3MVf8s2lvW/x4+1jv7nDnv/oO+zdW6/roXjZ86hz7ZIvvc2WS+0RPMfLdrZf/ObLtvE+m9nJxfMDp11n750wxpaxt9kpBxxqB28zzg5OYzu9PjsMs7F2yJl/tL+t9QbbYIX0x3yl7Jl+JXRg5p8POJj48V4MJP6Y9ZJy/fjOHpSBvH4cU9efQCW2pUmsaccwbcI/g0RMxB/xh3kymPqv/Es8S0X6k0BIoiP9yWuS9DfzwXOjNKkV1CVyxX0GZf+OI6f7kX7iuXR+h6UFkyGnX3Pm+ZTyTPHqd7DutrS6G6Njdz5djM2eOcNmPTfXOpYbZ+PH4Q/1eLDWet7smTbjyaetY8xqNn5s8qvKPJs5I32z36ixNnbF9GuhMX7eLJvx71nWMW5VG7tcY6yKD40u5uge3Y3xEN35dDcW4neYPMmOP/Hbts2kSbTmupfxLdcfjjD94en2um0n290PTK+SFcNV4qY23mWAgTaMo3g/jYEtnAZqFPrSR/E1Jhkh4UduiD/KH+lHqz5IP0NOFHIQE+lnRkD6mfcmWj9CrpTkYK6QI9p/teorYCI24k/6kMvCm7oCOl2V7sYY051PF2Ojx4630enXOb104YOxjuS0euWY3fNrh40dPz43m/EdY2z8GvnDXPzOx7B27WZ89OlujH7d+XQ3tojj+cDG06L29TbNEXUcx7S9X8boizoWxSdxEX7iT0oK5U+tDNIP6afWj5QPWj8rXYz6SKXQ/kH7B+2f8loR82Og18/qKxuYeF3WcRZdOnUzoPhuwOnF0ADiBxKhsOahK3KFscpWnNBnHGvFA82MS8SixSb8KozIG9YRs9gWfoFT4o/4kxBAzjBvWMeciW3lj/IHHHFOSD+QDsqfggGxQB01I7bpI/7UIL0U9LfzQx/vOu54LFxhoq1dW/HtUKlX6vajtXUR4MdToO50WzlYxtjFv8DAF33aUCs+gRALwUk24oVh4VfjQYjEH+WP9COKR2ozOaAZoSv9qPEgRNIP6Yf0Q/rRggDFQfrZ5frR+aGvUxa1QNpzR/E9Y9SdRy/xm/3g1fb1T37b/jlvnt30vcNsVMcw2/ez59mMXsTTBTUXzqpdBmEP+ePt6ItLqGJiW/GApsLLO6EPeApEwq/gQkycX+KPU0b5J/2R/noqtOQDtQJGtOOaJP1ImEg/W/jincKTyBXYxR/lT+TE0qIfnR/6mCXd1UBnYYriFwa9lKkP2JfW29G+fJ/Z3Af+YAd/5ET7n1NPt9WO3dc+dc6dPR6bHwkPRwof26xhb/eDccVnbIgV6Qy8aGuHHceFn/AjF1CLP3XeKH/a6y71BPhIP6Qf0o9aM6SfNRZoUSva1RiXfizd+uEPfRQQEgZ1LHHc7ckQbV21eYw4rviEwMLi9+870ldXHGi3/9/HbdV7fpe+tv7L9oWDD7FP/XBvm/bwU4S9qpv481eF6DCfjVQ3fTHUtCm+FRPhVxOoyRXxp5UrjkcCKeIk/og/RCDyoiub9Ff5E3ki/WCmtPKC1ogVbMqfVpzEHzKlFRdaX2r88U/v5L+U4CJjmxfdky2Ox7biMwI9YRLHY7tL/DpWSF9WP8uenTXTbj77RLMvXmWjk/PdM+7T/SNooe4J0zge2zxET7Y4HtuKzwj0hEkcj23hJ/yAQE+ciOOxLf6IP+KP8qcnTYjjsS39kH68FPWj5dc7qyfawvyqn648tpkMzbryUbxDU+HRV/wKsF3Gj32Nvef159trx46z/X9m9pO3rW+//+zmtu1Rt9ibJ69XqXyX8c0b1zyf7p8jIvxqokQsamtrq/IRf8SfhEDFh0a7lTV1r/IXfxyUCg/h18KlmjGtrQov8Uf8aeRMxY1WyrT0Kh/xR/x5CfOn5Xv6Cter1brqJwDYRmK0a4MltFOhq34YU3yNU8SiBT90UumEX/qi+X/PnOP2t595l2104zSbt+IGtuUqw2za+h+wMy9/ve0xOX1fYVGvTvH5sNVrl+fvJj7GxHbLfBXvGLfDP2IW28Iv8F38EX8SAsofp0ELF6JmxDacKryUPy2YRWwiZrEdfbpbP2NMbCte/FP+edp1u/+MORPbyp9Flz8dAL4vxf8INASFZq8Oo/iUEwG00GzBD/bm2OxbTrO1tzmyxa/Z+dyfn7RPT+I33beO8nisMRrbrd7te7p/vbt/7dFLiZ1Wht7cf8W3R0D4iT/Knzo3pN81Fr1pST+kH9KPOlOkHzUWvWm9FPSj5Z2+3lx0TJje+Dd9FN9EpPf90Zt92B589L3dBiw3tv0DX7dBfRjU/esDWG1chV8bUPpgEn59AKuNq/BrA0ofTMKvD2C1cRV+bUDpg0n49QGsNq7Crw0ofTAJvz6A1cZ1KODX54e+Ntch06JCoGOMjR8/pjrbvDlzzDrKLUzVgxcebyfP3su+vP9rKh81hIAQEAJCQAgIASEgBISAEFi6EWj5IJcIRfX7ydHYh7bi+wBWG9fu8Ztjfz75IBszejkbM2pE/ukYYZu8+Uib/sJcP1r38W1O2DApvgFIH7vCr4+ANdyFXwOQPnaFXx8Ba7gLvwYgfewKvz4C1nAXfg1A+tgVfn0ErOEu/BqA9LE7lPHr8qGvr7/r28RE8U1E+tbvFr9ZN9tXDjvL/vey6+zHH0zHPep8u+FPp/sJ9ttlgtfdxvdiKorvBUjduAi/bsDpxZDw6wVI3bgIv27A6cWQ8OsFSN24CL9uwOnFkPDrBUjduAi/bsDpxZDw6wVI3bgMZfz0653d3LihPXS0vX3KJHvuwb1t0xmvsE132Muu/OKH7KNnT7Vdj5jY7dTxe8XNP0hFQG9tffFtd0zF9x5r4df6wQPgDko7XHprU7zw6y1X2vmJP+JPO1701ib+iD+95Uo7P/FH/GnHi97aunynD8RSGboIPGHH2OV3zrJxE3e2W4+62GakqT470+xWy7/e2dPM+QelIAoLHwbZR00/tJu+7WzRB+OKBwq5RGyIS9MW+4iiH9pxjPamLfYVL/zIE/FH+RO1gbxo2mJf+iH9IE+kH9KPqA3kRdMW+9KPoakfeugDM5e0MmYrO/HYve09m+5gt68yxd5vn7e1O4bZHieZ/b8JL+/V1TA5mbwIgo19tOnDA/pYeUjkGP0VL/zEH+UP9UD6If3kGqH1IyOg9TPhoP2Dk4G5Qb2EUeun1k/yYTDXT/16p6fgkvbSYdsf8Rub8f5ZNnrsGNvs0Vtsjz/8w0ZsuLXtPHGdXl0MyQVnik20xTZ9UNPOmmPoR1ts00fxNUYRH+GfcYmYxLb4Uz9AEBfWxAb9aItt+ij/aowiPso/5Z/yp86NqBNooyBHUJg3rGFT/ih/lD91bsQ8QRtlKOWPHvryPVkiX+c9ebv9+tJ77QVb1lbbcEubnB74entDIwmRsBRur4FGsqHQHkWedtRMdvopvkAn/EAP8SdtlpgjDkh5QZ6gcEz5k7GQfkg/XDqln64P1AWtvw5H9SL9zFBo/QjrRtIMrR89rx/+jFD01d95b7bL3sSfAdBuN960gY70VXxJzoBJE592+MEH9q7wu+0nh9jW7/8e3Ooy4Wi76S9ftw1Htcefjn6+9MLjo4Z44Fzz0UmFiw2dOF6GPRht3meOK97hE36JGOCE+JOThPmh/Mn5AV5IP6SfWj9yHlAftH5q/QQC2n9p/zBY+yf/mz4Ib7Nwc4I6Ls7wo1AzRvFEoq4HFb850+yT6YHvc5fdY8/NW+A/T6Zf8fxc+nCXQ78/1SfR7fnTDeM4nPmvZtUTZrI54VCXdrzn1b+mpDEUxWcchF/BIVXiT8ZC+ZO5IP3IWgpWSD9rLIiHZ0vYSEg/HBGtvwkGcEH6UeeM9KPGQvrR9/33cN+UZH2pXpFg1F/W8GObjugrvpWAwAa4ECvWfcGPx4h1jJ9z/412lX3ZPjJl/Qr/UeMn2F4HbGZXPd+H86fJ+f3DC0qpISqcNx/o/Pw0Zu9q88IFWvEZGOEn/jBVlD85J6QfKSdICumnIwA8wAutH4UQWn8rXjBVmDPSD+kHuVCyRfvPfupn23f6XIgTslXiBU2CzROw1BiiH9ooiq8xAh7EJ+JGHOM42iz0Rb8ZP3LdzWyn9ImdP7v+EXf38XmP2HXX3mI7juwefwRU/3KGk6TC47OBcT9/mSSTLcb5kOKFn/jDtKkSSfkj/ZB+pnTQ+uGJoPXTl8mWfYf2D3kfBmSAhZfS0Pqh9WMw1w9/6Ct7d9/ok3+oYecP7e1829kUX2NHfIhJrGM7+tEOW7R7e9RE+/KpB9oR269py2+5s7333fvY8qPWtP+5YIod9dbNEOqFsTEeAy32JDTzs7v/PZ/7FvHB3xdgjCLksWlM8TUGUGzhlwkEvog/CQvljxNC+iH91Pqh9VP7h7IuJlVcoP2T9o/gQflZHPtHfU+fb0+WvJetDz7THrj1Kvvu+3a3DTbYzk4+8xK7c+bl9vo1ev78Tt+Tlo0p2Id/iQQJYcIPRJobV3dLL24vY7SlrgcqXviRMs4TdhI9yBXxJ3MEuUVMlD/SD+lvyoeUEJQM1wl2pB+VVkg/pZ9IC60fWj8Xdv+ghz7feS1JL7Ps7xeebX9+cJ6NHTHTrrjiWrv77mn296t+bV9M7/j9YtqsHi8G4uGrbPH0hzy0w+LbHOc6zAW6Oe6HUny1eWniI/yyWIs/JfU8CXMCKv8yDtKfzA1f1Bv8kH5IP8AL6af006WhoQ/afyE5pJ9cJ7rbf+qhr+w3loxqhp357hVtuzcfYDc/m2Y891H7+QVP21prmf3w+99L7dVskw3G9HgpXDh8c1G8YauIUpLHh1IbQ9VwYpXig7gIv0yTiiCZLNWaJP4of6Qf0s/EAdcErR9aP9OaAC5gyWDR/iMhwUWz4OPYaP3U+pmIgFwZKP0cXhENDCPp0G4WjrHmeOzHNsdZc4x1045+c4w+cazpE/uxHWNfIvH/uf4MO+Rnm9kZN/3bPvKaDpvzbPqozgnvsM999Ux7+p9/tD3te3bVzTObV577AZvqnYU0wjbq2EaQE63ExTG24cM26thWvPATfzrnRMwT5U8rPtIPMKLGRPlTYxG5wXbEKuYVx4Wf8CMXYs22+NPKD+LCWvnTig/5QnzYZ00766GKn39lAyYdCyftNmz6y8bf+7iSUuAXh6KdbXeIToqvoekKv8ojNYBdwe/+v15qtteR9tYJ491jgT1lNu0pm516HWvvbB8+0uyIq++qHr6KUxXv/fBSffBGsKHJ+++nxRzL+d0t3D/Ft4eWeAk/kEn8IR+UPwkB6YfTAC/ST+lnXFpJDOqF1o+EiNYP7b9ikmj9oEz0e/3o4NvqwNV/bS81mjZ/6EhgU4yAu/vj9KWj+AHED7gmQIE37wVwBsa25VrWgbHUXG6D99tfbzUbXfqrrzPFNn1qRBUDnxifD5CMxR+3Tvcv4AGMEzbErImf+A/CVJTJ+3flf51P4o/yR/oh/Wxooq+7RRukn1o/Cj20foZk4F5L+6/B33/mX+9MLAQReQ9aG/kBA8KFzbD7oUYDP363ir2YFB+BGDj8Vll3c7MvfctuSG/tAf+OMWvYphuuYR24HzbD/vjLK8xGOfr1DUld3CLeJx+FP+4dfnT/HAdAgcK6btT4if8FnwSS+FPIovxR/iAfXD3qujIkO/VX+lHwkX5IP5Ew+JF+Og7SjyygxEH6mfHA60CvH8MBLt/B8Lokoj9xlzNisfIThwm4b0lYxQOoguNA4OcHKwtkwpj4r73Hx+xjdr7tNPYg+/XVd9p/Zs2xObNn2oPTrrZj3r2qHfEns6/he/pSTFf3D4fmuN9U3X/xvyS35/FA8Lcb/vmpyrj4l3JR+af8U/7lZQk4SH+q9RlQQCO5/pduNS79zHzR/hPMSLRQ/kg/eqGf9Ze6JWf3h8gkAkFoWPwBIvVZwx593S8Zok3xRK/Grbf4EU8HNHUYt2CZ9e3rM260se/fyg6YclZ9Am/tbWf89fv2xtXzLW2Hvy8S8G3cKw9v2NrFcx7lEHleHtz5mIonMOH+lQVc+LVqhSMl/kk/ExFcY1It/fCs8BfqLmsY41rrTsqfFkzEH2eFv5A3rGEUf2qtcZCUPy2cUP44K/yFecMaxiU5fzpwIbgCr8vVeDv8qwHM6Lb4oZ+K4hMIA42fA1swd+Br/JdZeaId9asF9qEH77S7H5xhc5Pv8iuvba/adB0bjTjOpYv754eOxyx+/bn/fhjF15j3Av8K5+Qr/AoI5Kzwq7lU8or/UONciTiJP8of5Iv0t84Z6UeNhfTDsZB+Iinq/aP2HxmPCpOlUD/z20INgcCDgydLtKONwjHUKLBHP9joE+2KBzI1Nt3hlz1bcW3gt/I6r7Gt0w9FrcI8nqOJP49RfHwKsEW/buLdjfc21Yov2Am/mtfiT41F5EVqK38SNNKPSm+ln9JPF4WoE9JP6Sc1MvJC64fWz6QNA7F++t/0QWdaNv4kmw+kF1+dSo0xlujHNmq26af4jASTmbhEnNhGjULMYru38TyWHygcKx4TY9GPbdRswwelxFWEy9ZWP8YovhUX4Sf+KH9cMaQfCQboIws1E322pZ81FsRJ+eNIKH9KnpAXzBn02Vb+1FgQJ+WPI6H8yXkyPKNBdoQayYMSk4g2kIht+BRSoVkVjiu+TkJistD4zbHZs+ZVUA80/j7NMlf/dQC045xjG7No3H/FJ0yEH5iRf/1b/FH+RM2IbZBE+gEUqiL9TFBIP50PWn8LF6JmxDZQkn44V/gi/UhISD+cDu30o4PgkDBeM4kAHBMstunMMfZZKz4jETGL7YgT7O0KMSTGMX7WDbba2B3tvw89zj5wwFtt2y3Xz3/Px+MwNsawnXyqU/LYjGOd7O6TXvCvIyRO1Q5+9cFoTLXihR/oIP4of6Qf0k8sJlELoA0oiRtaPxyJ1hetn1o/wYiYM7FNtih/pB/Q1mbpQT+6f6cPpEJhjROQaKzjONos9EVf8RkVYhLriE/2avWN44wbvYX9+ddn2Lr3/cz22eZVttqIYXbk/55tf793Rn0E+jbj0ecYapRyf3ib3FZ83KUM+MMf2oqv80D4iT/KH5cM6YfDkF+kn64LWj8SHbR+ek5o/1C4oP2T9k/cRyMzFvH+If9NX5OEnqLpBXb+0MYadhROnnW25lfG0rc5hj7jWDd9eIxoR5vHZBzr6MdY+jbH0Gcc66YPjxHtaPOYjGMd/RhL3+YY+oxj3fThMaLdxtgW//0eO+5XN9szs5+0v/7+Z3bL0QfY9huuaitMPMh++Luplr6/vb53vTy/i3IKw1S88NyKJyJ1TUx431It/DI84k+hifKn1qA6c3JL+VMnC7CQfkg/S05IP4tYSD+ln+RAoURVlVyJ+2ftvzI6PenHcH94gVcbEP0QGOMPDPBr11c80MnYECP22+EFGwp9I36wc5yx7NM/9efMfMCuvex8++VPfmBXIcb2tiPe+jL73n9tZau99cf5wa8ZD7dk8z9qRZvHC+ev/kUu+jbOr3iAk4rwqzkPPBJPxJ+MA+Cock3543AwX6QfGQ7i4XXhi/In540jxLVK+ZMJU9Yb5U+GQ/lTckX7t0wI7T963H91+MNFIEy1+JScauk3hNddYFN8RbgKi8HEb+69dswer7Kv/imfZL8jT7fLpp1l22y0hnWke/Gl925vK6yzr90x+z22tX95X5lMuH8L2O7F/ePt9Q1sOhQ2JYoPmBKgiGUZBh84LPzK86H4o/yR/mSFiJoR29KPjID0U+sHcyHlh6eI1g+tHyACStTM2M6jvvnS/quAkfABRPnL2YldQcexi+0AIJocZx1tbdswosRjprbiEyQNTDJQ2Y4hx6gy5sawebNt3isOs59ec7DtutVrbHT6tkVi6TGr7ma3TLvf1igPfOUU+WGtHAvnZQzuC/7l0OfC9vxyLth5/mTDwx7jWCte+Ik/yh/pRxJK6WdeS7R++Krpuqj1MyOg/YP2T9o/Lvb9c/4gl7xWUZqqTb5v6pMVdSzVQ0AwRhvbis8PTH3Fj7B2id+8OXbsWSfYqLXyAx/8ibm3O8bYeq9Zx5Yr9k7nb3FOTsnBTXhhO9XcyHt8GYMjH1RxLg9kjOKFH7kg/ih/wIWkCamqdEL6If3U+oGEKCWumbEt/ZR+Sj+1fgzC+ukPfViUfWFu1NAgFNZNn2hvjqHPcdZNn2hvjim+G/xGr2VfSfi+/ejv2l2PzLDHZ+SfGal+pnx9X7f4FbC5+KJbTNUGrYpPDfdLtfug9kaxl9hiUnzCA8QHHs7v1BB+mSTOkfQi/oAkyh/pT+YB8sJzg7X0Q/oJfQA9EjG0fmQcPEfSi9YPEEPrh9aPzAPkhecG6x7Wj+Fwhri4wJSattRtOVj0wRgKfeMYbRxnHX1gQ6FvHKON46yjD2wo9I1jtHGcdfSBDYW+cYw2jrOOPrCh0DeO0cZx1tEHNhT6NsfYxzgK/dBeMOcxuwyNsz9kE9dZ1dZdI/+8MtUn3zizxbdtvB8kvaRBfzcvNbmwoHYbJoA2fOFHn2TDkL8oXvglDjhV8IJ2qsWfjIPyJ+uG9EP6qfWj1gStn9o/aP+U9wvafy76/RM+9yNv6EPtopT6sUQbBBwFNsUPPH4ObuOlBf9Rm9m5j/zbni0+vqCmNupRY8f6PWmEt9j8/qUXv3/pxRMv9WHH3+z5ubxTjpIMlS2ZMIQX2KpNfup7SLHnDhxTUbzwAw9AEFaFJ+JPggVYpB/Ao/xzuShgOF2kH9JP6WclnEVGpZ/af2C9SNqg9SOvm1o/Mw7Yl3e3/04fAWJW/ubak8iBg7EUHIA21n7QMg6b4jMYEasCTwumvcUPsTgWfxjHeoF12PLjx9uyc+bYsI4O90sme/Ci4+2U2XvZF/Z7DU/fcn4a54cbCMHwfqorAeF4w+bnT2McxvEUL/zEHySC8kf6kfUQOHhpcEL6mXOE8AAjrR9aP7R+IBG0fmj9WDTrhz/0ufjiJRUKMhYoFth8wSp1tLNNf8VnRIgHev3Fj8foHD/Hrj3lg7brYWcR/qp+xw/28DZj0Ynx6GOhReG9QttN6cU3LKkuLt6okhF+1YDihR+Yk4vTIr2IPwmPhEOVJgUT5I3nYTWg/FH+MHsKXwpXxB/lTyUThRPSD+mn1o+kC1ViaP3s7/o53ImU1h7UbGMp4gFZwwa86Uc76mjnPYnjiEWJfnE82hWfsYr4ZEvAb/bN9tX0wPeN319nP/xgGj3yfLvuitPdbb9dJnjdVTwGsTH38VJzQeHDHX2qutwUv0+IUbzwc3JkHok/GQflT9KoohXAQvqRtdIXvgSG9LOsHVo/tH64OGj9gExq/dT6CR4sqv1D9ZUNZa1GKnKNcmGi3ScVxmDnWIyJbSc0DKkovghchsOx6wq/4tIt/mZH275TJtm2k/a2TVd+hW26wyF2+RfMPnf21Oq+tMPfj51O7PcPL3BKpd1cKhImH7SrvuKFHzgj/ih/pB/ST60fWj89C/IL9xLVfkH7B+2ftH8cMvvnlk/vDHu4tiIWx5HeWO9pi22MMfFjm76wocSY2MaY4oFCLsQi4vekHWOX3znLxm21s9169MU2I7k+N9PsVpvrQYxBh23WfNCjKMcHOrQ9Bs4lwDf3qe3/IoXx4qP4GpOIhfDLuIg/YEKNhfInSYf0Q/qp9cN1Ia4ZsR01I7alH9IP6WfKCOnHQumHf3qnH6HGkpjmA3MwjMNUcK/qnmxxPLZ5nJ5scTy2X4rxPV2fjd7KvnXM3rbbhB3s8gfOsvfZZvbKEZ9HmH3yope3vSfxmNiMA7cKu/Jw5/3U5ge9YJFB24fZ9o7ihZ/4o/yBqqQSNAFt6UeBhZpZMHItDViJPxkn8Sfj4HxQ/kg/ijBo/6X952Dsv6sPcinyq2qJQKDDtjviN/bo+2fZ6LFjbMIjt9huf/yHLbvh1vb6Ldfp1RXwXxbh7P96lGr+SyJqFPp4nfpxnGP0Qx3Haa9sjXHFZ7yIE+oKK+EPOMS/tPhXnGjwQ/mj/AE3UMAFlIorwV7ZGuPij/gj/njaKH+kH06ESitf4vqph76c90vc67wZd9pVf5xqTz7/gi07clmf/wt/u8JuWm0/23qNUT1eTyQ42wiKCwHb7cZpQ8224oUfuIASN5Xt+EEbarYRhzaK4mss2uFDG2q2gRvaKMKvxqIdPrShZhu4oY0i/Gos2uFDG2q2gRvaKMKvxqIdPrShZhu4oY0i/Gos2uFDG2q2gRvaKMKvxqIdPrShZhu4oY0i/Gos2uFDG2q2gRvaKEMZPz305Xu0ZL3Ou9c+ucZG9qM0600nbFbN/dZpt9hJN721x4e+SEgEs48apSsityM0/BXfOfHbCYHwA1tqvuRe3Rf/MiLKv875BGSUP5kf1NvcU/4QD+lHZoT0Q/oBDsR8ADOknzk/qBe5t/Tppx76eOeXpHrO43ZP+ju+38282bYb3feJM/kZyT7rmBS0sY5jis8IEBvWESPaWMcx4Sf8gAC5wTpyhDbWcUz8EX/EH+UPtYF11AjaWMcx6Yf0Q/qx9OlH9dBHMWANMnTVzqnSfryrmGhXfEYgYsI2ahba0I9t61jeVrRb7J/3zbTtJox1d46zbsbAzsI26+jLeNTtxukba7axsCg+i4jwE3+UP1CGXKgL6BEX1rRJP6Sf5AnqdvwgV2LNtvgj/og/2n9QB6QfUMZcmBfo1d/TV34XFYChCDO9rwAAQABJREFURCf0aUebJdrYZq34VsyIC7FDHW1ss8YzGttNXxu1kR2UvpT9wxPH2ZiJm9u26We7rTa3MSOG2Rm3zYK77l8CsEv8HKH244wRf9vjU6DzilihwzZr4VdjEvFx4MoLsYrjtAk/4UcuRH6IPzUC7fChTfmj/CEXlD+tXGAGtcOHNuVPK2bEhdg1OcVx1kMZv444udiuJp+uDs+BHGPNi4/92FZ8Rsgf3vqDXwG4bfwzN9p3vm/2ji+cZLtu9DIrX81n9rzZK8eN8Mh2+JdDtlTxnsV2u3jYog8OFPuxrfgMc9v7V/5hRfiJPzFnYlv5o/xxfUgvWn9rnYg5Iv2scWliIf0AIgmf9KP8qXmi/Gl9mIt4xPZLOX86eHFIkNhGH4X7U46xxpgnFB3gG9oYR6GJY6wxtrjjX5w/35YZXr3ZuUTN/0mbYsd99uO2KYDspjTxj66LG3+dvzVnYm7wPjXvX/QRfsIv8iG2xZ+MgPKn4FCAiByRfkg/Ih9iW/oh/QAC0s/Cg5eQfg6H8PtPemmpYaeNPtEGZ/T5Q1/WsMd2G79kWmzxv7vkElt55DJ25Z+uaL3uOOfY5lxpSzUKKv8J9k42+qAOfqnbNr6y07fpN3ot29uusE/97wX24IyZNnNm+nky17PmtjlmiI/HrtoY57lYJxu+GDL93/JT2TAQx+jLOo1VvsGvsike8NXYEjfWaazCKvhVNuEH+IQfMSBvWCd7xRX6RJv4k9AQf0AD/yFvWCe7+BP4UXCqMAFoxSb8Ek7kDeuETYVVwKmyCT/QR+sXMSBvWCd7xRX6RJv4k9DoH3/C21x+jPrRHl0+5heA3YM21iWs8o12todQPL7WYO/ddrHP/L/D7eCDD7Hrr702XwHnyhpWtofQ/H1Ocx6z36TpXX303rbJGuNs7VXTz2q5/s7Umfl6upo/R3ltzX6wV//yF66/sgU/PwT7rJOx8lU8Ua4xCTgJP5ClQMQaJrbFnwJOwITYcIR91sJP/CEXlD/MkpoTxIYj7LNW/tRYiT9kSY1J4IkPss9a/KmxEn+GFH/yQ1+4KdXsog1Ejn04xX5s8wDRNgTiH334EfvIB95ne+++i73trW+xW2+dZqusskqebZzrUJk/54G6id+ozeyShx+2fzzwb/vnI+nn4Vz/44GH7aOb50/zbLk/zXgcM15zbGMMJdoU34pHE5+IlYMn/MQfEiHVyh/lT1MjYj+2SZtoE3/En8gHcCT2Y1v8yQhETJQ/rXwRf1rxiFxZCvInf2UDkoIFAKDfzkYf1HE8todY/DPPPGMnfOM4+/5p37FDDjnE7r33HhszZky8ktZrGQrzb51dJmjE2Dps9LCn7dqrptrM51+wZUcu6xEvzHrBXv2m/WzrNUe1v6Z43Hi80Mavafg7LMHmC0zs4zixH9qKF37iTyM/qCnKvxqBoBlRS6Qf0g/ph/QjaoL2Hw0+QEWln0Ahl4CF1o+e14/qe/ocvXabEwwEUFv8mv7NvjsvnvgXX3zRzjzjR/a1L37edtllF7v55r/bWmutxRm1r4fQ/Fsm2MR/7r32yTU2sjOS0yYTNqtcb0u/unriTW/ND32VNTUa8UgMt5Uaw2jiBQuut4MLfHkI+im+gFawIS7CT/xR/kBMaomRfkg/tX7knOA6ofUz4QEwtH5WVND+K9Eh8UHrZ9YKaKZjUXIE1oHQj9aHPpyFJSIfbfChH2uOx/5ijL/sd5faZz91hK06frz99rcX28SJEznD7ushMv9qksCwOSf0n3/c7rHN7NKZN9t2oyvv1kZX+MMrHQOHWVCOTdfmudwefTgfxQs/8Uf5E7Wh6AoqL0krpB8JiYiR9DPjofVD60dKDe0/KqnMjaIV3pF+av0AEQZh/agf+rggZfpVJ2PX60hKGGJMbGOs6dvOFmNiu51vO1uMSW18SAse9qY/9KB9/etfs+23397Gji1/44b47ko8FvwWw/w7nbM5B/Y7lrcV7Ra7776Ztt2E8Dd8HO/F/HG57e6f23H56VhVu7jG+Sle+Ik/SJT0g4KEiDkT22W48mW/xKSu4oWf+BNzJraZL8nGovWngEJMlD/Kn5gzsV2oovWH6lH2tkvp+tv50zuBiytqAairNoYpOM12VzHR3oyJx4p+XbUb8ZdecrFtt9Xm9pY372M/+cmP7eMf/7htvvnmtsEGG9hzzz0H7+7LQp6/BYuu5hztmE08Z2xHv3btURvZQR80+/DEcbbixM1tW/yka19xxDD70a2zerx/1alKw6vKmOaVzlmdttFumbbiAUe+jcLPsfCXBmcilyq8QkP8S2CIP04dfxF/pL9kQ4MLMFepUhrSjwhKajcwk/6CNakUIMSfDAcTSfmT8KhIkXkScya2gVzlWhpLGn75nT5cFa8ktnmFtMGHbdbw6aq9COO/f+p37Ctf+artvfde/rd7//d//2df/epX7c4777Rx48bZ/fffb6utthpm1LkMgfn3Cf9nbrTvfN/sHV84yXbd+GXp1z3TJeHepHrdsSPqe4krjfes3GNcLu4Z382r/savYUfXfQo+bPuvZShe+CU+gRriDxIF2ZJKyAt0mTMYZ1v504qT+AOigC2piD+VrgIO5ozyp8ZC+tGaJ9IPJAqyJRXph/QjcQH7MpR2+tmBhAFfqhqeJcLtCCzjGGKbdScbDIsh/t577rZvHneMXX311fbmN7/ZLrvsMps6dSpmYyussIL95S9/sbXXXtueffZZ23rrrW3kyJE+RnCG4vUDR8yvHdZP2hQ77jMft004HmoXwdBnPO28Vnz5JQrHvU59+qE/P4zHufiY4hM6wk/8yTmj/Ml6Jf1wWXBdlX7W+qj1o8ZC62f+8m2tn62cQI5IP6WfzIvBWD86uFHBScoevno6ZJ91vhX5lbahEH/vvffaM7Nn+69zPv3003bllVfahz70IRs+fLjNnz/f8LUNeNfv0UcftfHpw13wyZ433XSTX8hQmD+xZO27hXA/KjtvwOi1bG+7wo781gV2+rteZ6Prv8y0jjFjbUx6sw/CwTjWDEdN21C8fv7rBOfIWvOvESAmun81lytMEijif2dcavbUY+JPjYX4kxki/ZV+SD8764L0s0ag0spkYpu19GNo68dw3Cgs/Cy+CUhG2lDzBz7VjS0BQyH+skt/a29605t8Rq973evsne98Z/ogl6/7Ax+M22yzjd144412zjnnpK9uuNkeeugh23LLLX18KMyfWGOu3ibIpd8J/zmP2flp7Oqj97ZN1hxn66xW/5w6daZveHlMxrKPc6CwPxSvHwsO59ecP6HhuOZfY8X7KvxqTMSfjEXMF/IEtfKn5gpxUf7UmCh/lD/kAPWCecI+tYV25Y/yh5wgd9jX/g1ZUvNjcay/Le/04cbwpvjMGn2/cekFSU2/GBPbizL+sksvsYM/8D6e0k4++WTba6+9/O/5Nt10Uzv99NPtsMMOs5122sl98Cuet99+u+2xx5v84aLdtfBgHEN/yFz/qM3stw8/bM/NHWHL4l29Mtl5c+fa6HGtn1bKsWr+xZf2eM9iu7hVx67ik9NQu//trkXzzwgQG92/IZS/6abwvsSci23xV/wFAuQJ2uAHXqS/NS4xZ2IbUKEIv4wDXsWfDILyp86LmDOxTdYof4jESyd/OnhT4w3vqu2+6YXjrAFLb9qDEf/cnDl27TVX27m/OKe+O6mFL2THD8p1111nhx56qO24447+N39z08MRCn79cyhev0+uvERcI34dy42xFZdrJO9yo6wj/apnjInt5rXGsd604/nR7k1M9FF8Ai2BQExY41b3pi38hJ/4U+dKb3Im+ih/lD/KH+UPNYG11t+aE91hIf18aehn9ZUNfkNxx1Ppqp1H6/Gu/LqyD0b81Vf+yX9Vc6WVVuLhO9VHHXWUrb/++nbVVVelfyVdYCNGjLC77rrLTjnlFNtk0wnu39Wco50Hpo017L1p9zaefs3j0r5g9o2267gVbY30s2b5Yfu709Kvd9Ix1bFNM/44FHb+wE4b26hRYEfhcVDTV/E1LsQEWBGz2BZ+QCPjRazEH/GHeUFOgCPKH6CQC7EgTqiJlfJH+UNekBNgDTkT2/QTf5Q/5Ir0Y+nUj/ARIJCIUOI/gwRzr5uLKB6/2rnHHnt0O61h6S9Lr732Wrvlllv8O/tmzpxpU6bsbAe99/32pj33ah+7iObf/uQ9WEdvZRekr6B4zkaY38B5z9nDt/zK3vCWI23F5cst7Wb+GELhQoB2J/dgaPrBH6Vpj/14wGjnuRUv/Jq8iH3xp06wiIvyB8qRSxOX2Bd/EkYFkIiL+EP2VPC4ISx32SEYhF+NmfhTY9HkRexLfxJOBZCIi/iz+PnT9UNfvFP1PHvfWkTx+BCX//vVeb2a16tf/Wo76qij7Zfnnmun/uAM2/mN+dc/2wYvovm3PXePxg572RrrtHitvvan7IbjL7X3XHS3vXfDiVXCtTiVDi+NCRj7aPt6V4z0QSj9ymHcL9o9LhkUn7ASfk4T8YfZovyRftRcQIu5QVyknzlHtH5o/dD6mbWCGoEedSKPSD+IDXGRfvZOP7t+6COzhnD9z/BVDT1NE9/Zd8ABB9rGEzazv9w0zcaObf3Ak57ih9b4PJs9c5bNa5nUk3b5n64w2zb/vWLLUKPDZIEZCcNkiW7R1i6p6Kt44Re5Ql5Em/iTUSEmqFmUP8of8oKcQB1typ+MDDFR/tRMkX605gqRIVfQV/5kVIiJ8ocsWTr3v0v0Q9/vw1c11LextYXv5DvmmGPtpJNOsmOPP8n23W//VoclsYe/6Vttst3Wae6b2U+P27iTtWmgCMJOIUC73QLSlQ3+KIqvF5WusIoYATPhDxRyidgIv9Z8AkJdYVLgU/4VjLrDKnKMfsIvIxCx6Ypr0Uf4Sb+1flE9WvVa+dOKB7VC+tGqGYs7f/yhj2SNN6mmdb3xiLbYXlzxf2h8VUOcE9r33HOPv7u3/OgxdvUNN9kaa67ZdPH+4po/J9M8P+2s47jbGn/Th/EX09t+Y1Zdw1Yaxai67hRfD/mmMo7jj3yRpLHQBr9mgU3xNWbEKuJEm/CLqOS2+KP8kX5IP7jmUCujUtAm/YyoSD+BgNYPrR9aP/q2fvind1JwI3gU2GiLScY26sURP6d8VQO/lgHziOW00063SZMm29veeaD95pLfVw98uJ54bYhZHPPHeTmPPp1/3iN25c9/affbavaKNdawEf+61k7+9EfsyMO/aX+6Z0bLtfAcPD76KDwva46jH9v0pY19xrHmuOKFX+QC+UIb++QNa46LP+JP5AL5Qhv75A1rjos/4k/kAvlCG/vkDWuOiz/iT+QC+UIb++QNa46LP+JP5AL5Qhv75A1rji8q/vj39PGkmFQsnAQnh7HoizZ9YhzbHBuM+K6+quGxxx6z97znvfbvxx+33135Z3v1hhv6HDmHoTJ/YNRn/GZPs0+P28xOTbHHTX3OXrvc5bbXpH3ttp0Oto9scLm9e+KJ9oM7nrN9189v9zXxb2LQ5/OXOWPuKIpffPwX/uKf8k/5R413QW68cIy6T82gm/gj/pAj5ESsOSb+1KggZ1iUP8of5gg5EWuODbX8GU7iNicIOwnOdvTFxcWY2MYYY2J7IOPbfVXDeeedZxPSB7VsufUk+8PVf/EHvsE6P44brzm24zlje2Gv/6mbf5Me+Kakr2t4zj606Sj75xW/SH/Xd6Bde+F37eunXmMnpm+f+Mklt+OUXeKPMcwVJc45tjE22PdP5xf+kXOxLf4p/6Q/mQMxFxZ2/VB81lxoDUrUnNjGmPgn/oEDKOSC8kf5A51Y0vXD/6aP5CbBeVEkOccpjPCLheOwMSa2OT6Q8X/43SV23rm/9Gk89dRT9tGPfsyuu/56++UFF9vE127tdrzEc8Z25ZAanB9si2r+PZ0fc0WJc77/uvTVFMd8z3ZaA+/kzbM7//A9sw+cbxum7jAbY9vsNsW+/3RNSl4Lr4/HZN9PkF5inzEYY5vjcS6MpR/7jKE9xsQ2/enHvuK7v3+8F8RL+Im/kRPKH+VP1PmoubEt/agRUP60YiH+ZDyopeSH8qd1rSVriA/6xCy2OS78hgZ+w3Ejmj+4YSiwo3A8tptj9KGdvqxpb/rFPtuIQWnG0Iavapg9a5ZtscUWdvnll9smm2xqy49Zya658eZOD3yMaR6rXb+3549+bMca50SBDYVjsd0cow/t9GXt9pGrmE37Vznew3b1D8ze/sZNbJlyjrlPP5Fa9Vc28Fg8No6Fgv78Mojvw0EbNdt04nflcBx2byte+Ik/OU2UP9IP6afWD62f2j+UtSAvDHk/hbb2Tw0sCibAhntO7T9rLIALNumDtf/2D3LxkyxBL/iqht13390+8YnD7MCD3mWnfP9H9s1vn2LLLbfcEnQVfZ/qOtvsbnb23nbGFVPtLz890f+2779eu44f6PFbz7PPHn2Lbf3Kl/V84EQo/xeZVKMM4z/FpNqbxc5/tqnGSxwIqfg6KSt8hJ/4g4RS/gCFIhJBX6QfVX5IP6Wf3NRp/chygeRAXkg/azx8r+WgZFyID2rxJ+Ok/Kn5Qn64xUnSef1dIr+n78wf/dAefeRh22nnN/gXra+8RH/RerlhvahW3uZwu+Q799oeu23l3v/1hT/a3mt32M2nbG47HX6L2V6n2xlvWb8XR8ouTpBCDFggItFW9ZMd+9g4Bv9mv/Ivx6z6ihd+bfgi/hRQkFypVPmi/HHBqfCQfkg/Un409aLZr/ii/FH+QDPSj3NE+iH9kH5U+rlEvdM3K/1K56ePONyeeOJx/6L1H/3s57a0PPBhU2jWYdt+8Lv2+NNP2/1PPmc/+8zObl1njzPskuvvt8fPO8R68T6fx4ABSQvziytjEchgK2YfYBtC6kXxwi9wBU1yhCtM1U8NtsUfzx4HRPmXsAAIhRzkCG1VPzXYFn/EH0cgEUL5o/yhVoAT1Ajaqn5qsC398OxxQJQ/S2f+LDEPfb88+2f22k02tFmznra/3fYP23f/dxb2Ln1Vx6gxtvLo/LUMuPqV159o2265Tnok7EPxjC/+qe3dpIyVmTa4sA3xrNQznCuMK76BqfATf0J+KH/q/KgUJOAj/ajx6YSF9Ffrj9bfnCBVcqSu9EP7N7Ai5UZFC3ICdraln66ffXpOAH6DVe7+xz9sg/Sdes1yx2232Sf/5yP2zDOz7Wfn/dpeu82kpov6fURgARaOkh1VkiBhaIvjsU3naOO5FS/8xB/Phpb8irmi/MlqETGRflSYSH8zFMqfhEM7LZV+VLlS4ZMtecPfDrOoNcJP+AGByImlkD/+6Z287v7UzKP+xCIG8X/76/W29YTX2OavXs++cPSR9vepN9oLL7zgv8r5X298vb31HfvZFX+5oe0D30Ccv79z5/yXuHiClsjPZt1IV0MjkwN1LGGczSoGfjQqPmMh/CJ7WvhBqlScEX9a8HFcxB/xJyLApEm8YLNuJEcapb8ZC+VPZE8LP0iVijPwpFH8EX/ABeXPSyp//MvZW6+ob70mH/oWnfn0n5kzbedddrOzzv21dYwYYe87cH+buNEG/qucN0y7w95/yIdt+PD2v4k6EOfv65yj/xJ5fk46JTSbdaNcHQYo/qzpzFrxNWzEhOQQfuIP84Y1OcJa+aP8iXrBNmrph/SDusGausFa+iH9oGaQE7FP3rCmD2vxZ6nkT/XrneAFuMAa3Ilt9FFoY52t7e1Nn+7iMTZh881t0/TzuS9/Nb3bN9U2nzixvinlRDwm62JuO6+mD3xpYz0U45tzYh81582aY+yzjr70qerkVPmVm45fLaruP20pAE0v0aZ44ZdI4dwgL8Qf5U/ihOsKOUGOQECiTfoh/SA3yAvpB1Mk/91izBHlj/SDeYK8idygXfmj/EncSDToUT864NQsTVtX/aadx2nau+rTzjrG44GPpd04xpr2nvyb40M1vnltzXmyz5rXxbppZ7+lTmLhf0NCI4KDgPBYsDX9PKSNXfEJtQQO/zbHMWyDk/DLXGvySvwRf5Q/0g/pp68c+UXrh/Yf2DD4piFTQvuHhEObvND+IfOkJ/1s+Z1JkClh2VIC1zqNtTimjuKXIPx4Y8MNB1mqTxcsNzcSqGVM8Rkh4VfJgPij/GnRCKwJ1InUbhmjXfmj/CkISD8aOaL8kX5QJ6WfWj/CWln9I0Cw9VY/Wx76oL2BY50e8robQyxKdz5xDNl80v9+wx584IEcWF6jT7geH+1ujAfpzqe7saUunuBGUBII1SYtjbds0uJYaldjiid1vBZ+BQ7xp86RAknFjdRX/hCUUrNLPRF/ao40sUl98YeglJpd8Scjofypc6TJjdRX/hCUUrOr/MlIvITzxx/60vW1Lbz/GGz6dDfGg3Xn8+Mfft+++OmjbMett7Qzf/QDmz9/PsOqurv47sZ4gO58uhtbKuIDAJUA8sJRp/FOm9RAgk5jMVbxwk/8Uf40NUb6Uamk9LOCot6A1ybpp/RT+in9rBTB96haPyo8Fmb9GI7g+YVc8UBos0+f2OfZOYY+x9lmnz6x/+MffM/Ou+gSm3rHPbby2HG2+3/v2af4hT2/4jMCfm/K8zbvT9v7l3wWdOHH53XFk1U5F4gHMRZ+NeeIFLEh56Jd+NV4IcfEnxqPyBPpT3tclD81Lsof6Yf0s84H6WeNxdK2fnTgCRqLgy8QpY239Sp7woZt2KuFBJilOI71Jf7mm6baE48/blPeuGv6KoZhduJp37MXX3zR307kcarjDsL5y9T7Pf9Bjy/XzPMQi4HCn8ft7/1TvFNn6PJnkPNX91/33/+dsJ/6L/6IP+JPygLlT7/2j9IP6Yf0o//64V/OjocKlFI5o/hwx1/zcx9HOj/owY6Cqq/xP/7Bd+097z84xQ2r4pdZZplFdv54Lf2Z/6DHA9eC72DgP+jzT3PX/JEdqRQsIuaxPST5p/sn/oKYKOKvcyHmbGwrf/u+/gu/nFclvfq8fxJ+ws83zgUG50NqL6r9u/i3ZPNvOBf1dBlVwU2tiFSYFBc3OvLmVxv8MtBd/OzZs+3X5/7SDnjP+/I5yqaCx0TdXXzTb1HPf1GcnxjEeqDwXxTzX9rvn65/8PRD/K0RAM9eivqn/FH+OLcTvVlr/auxoAIo/6V/0v/wBkNJDK0ftVa008/h+OcBDlBMILB4kIO9EtvUqGwc88G+xf/qF2fbjlN2tpev/vL8r+kt559lP951mB388zvrc82eZl997TAbt+xB9vdHptreI4fZ6dNm2bAXZ9rfr5lq/8FvhWLzEwqmVc01tX18gObvmCzE9fcmHpeyJM9/Scdf8xf/lH+Do/+90T/ln/JP+af8c61YAvdv0i/p11DWrw4+YODhDxONhf1oZptjfY0/64wf2ae/+JWWc/mxwvlvf/xZn8aCWdPsM6tsZqfZgXbx9DNs8/Gz7Kifn2vLrzIixd9tU3beyq54eoGtvExyD/G8Bs6Rc/a5lkGOuQ0OS1G845FeymX7B/lAYPmBPqnphX33zxB5jOITGMJP/Ck5gTxR/kg/qJfST18+qvVE60fGA7wAFo5HekENm/RD+qn1Q+vHolo//Nc7XXlciYoKUY1S18egTFzJONbs9zL+smuusym77NL5eIxPpxq77PJmL06zw/2B7xN2zZNn2rarpufTeU/bLddOtafm/NO++aatMDubsv1hdvszqfHcA3b25/axcemdwHG7HGTn3fCIjw/0/Cul7uf19yoeM+fxUfMH9oXEH/EQGB4fD7/oew1zaXMcff7g1PTnOPuKz5AKv8wR8oPccVzEH+WP9Ef6q/UnLxZBD7V+av30tND+y9dI7R+SOKQyGPsn//VOf5DwM6QX7Oxj8Z1+MqCmWEcf2NiPbR6jr/Ep7po//9Q+s8dm9uP0Dt8VT5xgG69QzvH8E3bxt4+xv/9njO166EnJuJl98TNvsTVGzrQf77WufeySV9q5191iZ+82yw7eYU274MF5eW6cw6KYP7Ho7/UvgngsMCzVQwoMCZ845j7JFzZflNJ4iz9CYkxse3B6UbzwE3+UP4kDXMCixkg/guZKPz1PuHR4rfVD64fWD60fWj8GbP3M7/RBXdOCUxW0E8heaKcNdrZZw5F+bPczftk10gHOOcZOuxIHOst+edmdaOTj49c4Uxk5bLRtvtsU28FWsZ32fJ2Nuvd8Ozz5//iXx9gbtpxgux9xqh2d/H75uzvqeXGugzx/nyDPhQ7aKLT15vzw7yd+CK3OxTZrHDP9cKPF2oc5z9SJds6fNj78xVrxGTPggEKscsdfK1vELfqhzRLtwl/4AQFyQvypsSAmxCczpR73fskr+gq/Gh9iIvwyJuJPRiDyQutPKybSD+kH84P1kqafw53S8YEEBj6Y0B5rjntgeeE4H1QWIv6F2emYOx1nNz/7nJ17ZPp7vv3eYZc+VN6xw3lQcPx5c705d05qznve2+/ZaLn8653LrmnHwPJC8uFcWMOOdiwDOH8/LM/F48YaDj2dHz6IiXE8JsZ6iqdvF/EQrlhIXhc0HD6Nw0Z7rBGn+IhejZPwK5QVf5Q/0g/pZ+IA1xLWWj+0fmr/oP1DRID7S+2fFs3+qYPPB3jAoDATfN6YZp//+gM7Sgr1l4GIt6fNdth3D1urY5St9Zmz7D3HbWbvfPPxdvvfPmUvx3lQcEI/qVkHPopmLh76NrNf33+9bb/iXJub3hG8b+qfbe5aGyR7uS5vlZcSOxjzJ4HLKfyEfcUvThXtvsY3/Zt9Ysc/HPXzpQnDD2NeuzG/+B+ap2a53RX2ig8gETfWYUj4ZcqIP4UUiSMoyp+Mg78yb1iHIeWP8gcpI/0oSSH9cCCkn0EkqZusw5D0U/oZ9XM4HlKgpv5gUAjDBxc+BMCFDwMuvPSHeaDjca70Dh3OvWDkBPv89elv96YdaUd85/r6YQRj/kbfFXbPvTNs9Ksm2Zss/S3fxTfY3BXG2DP3Xmg7TNnDfvdoeocwzW+Rzj/NbWHxAwR+/elYAz1/HLu63zj8QN+/Abj+hcVP8YPHH1BS/Mn4InWUP4EPCZC4jiyW9UP6s9Drj/RT+jlY+w+tH0EvtX5o/VwM++8OLtL8ZzTMAaXMxdtMVG5wqgeRNDrY8Stv+XG7+OuX238dPtku3PkGW71MbthyK9nWE8wOnvhGW/fJm+2Eq0+3DV+3o537UZ+y7futP9r/bDN2sc8fE+gvfvlK+h/v522eHwdNN5f3ebDvH07X3+tvO38YNX/dPxArFfE3pUMQa+Z1MCn/nCgBJ+mH9MPVQ/oh/Qy6kDgh/cyJofWj7FsTHC+1/euwJ19YkEomu++n091GH4UJgAbFgWPZIyfM4oufZ8+n3+wcObLD57pgziz718w5NnLMWFt5dLbxQobm/Nvj98btJtkxJ3zbtt5mUoZ5gPB/5OHp9sbtJ9v190zn7av+VRj3esm7/+3xI0eHPn81f76rIP4p/6Q/tR5AoKVfZZlKQCxJ67fWn3zfxF/x1xFQ/g4p/fIvZ+eNQZK6uMJQZWywpVXZ/1XZA+DMRvZf9PEdNmpUnh/mO2y5MbbaqDF56kvE/NvjB6vjXK6huicDgL/jRGwW+/1rf/0+Pc4xuQzk9Q8t/ur6KwTS/cYtr+617n8FTYXJAOS/+F/BOgTWrzAX8V/5L/2T/kPjIQta/ypx1PpX6DBA67//eifQBbD5rZ6yFs5PfRAP9lSj8gI7CsdyT/EDiB8gXZBw7nRPMLAQ+Ps9TC/z0zGw+auSCedLdu/zXuM8vMe0lfPjOIoXfuJPThGkhfJH+iH9LOtCWSe0fkAY0o/Wz5b9o/YP2j9p/7j49o8dFCXodKdSBKvO2OSBBwGW8FBAU0ut+IwXcGBZnPiVefBf+73mPUrzi1Nz1/RS+aRxd01O9KvGioF2XKriMwgVRsJP/EkcAB+YJxU3lD8JmRoXtKUfGYSKIwUT8afmSYWN8gcpU+kK2sqfDELFkYKJ8qfmSYWN8gcps9TkT/ljOL/mfNW+s28gwF0K3FxNyjh929liTGy3821nizGx3c63nS3GxHY733a2GBPb7Xzb2WJMbLfzbdqAM2IYxxr2pi/G2tliDNus4Z/a/JdpxLsJ42XMBSF1vZQ4rzCOonjhl7jAhUP8qbFAbih/skxQK4pktGiV9KfmjPKnxkL5I/2Qfko/KwS0/6yX0QHYf9dfzl6AheD6xp8HZ43T+sqUavrChoI+bYpfePyAKXFnTVvEGjaUaOsJf/qXMHQRX4lsamMzxvN7252KPZwLTS+KF34kQ6rFn5QVJW+VP0UjAAkwAU8KV0gZ6Y/0V+tPyRPpp9YP7b+0fg7i/iE/9AWStTzYcZEuE/DFmm2OQavQbtqxotOHY7Qxhqu+4lvxAz7EinW0LQx+iE2l2oCxXe4R7L4Al/OizY1rbCs+AQeMUnEshF+FhfiToFD+uKZFzYht6UfhiPRD+hn2P8gL6af0U+sHhDHngq8VoETYi2r9KDkCmPqoH/nTO8sGJcXnzQpqHKhsaklAmDvZ4KP4jFfEZyjihzml4lW6Z1XisI1BtOmE+4rSbpw2+LBNX9SN62fiVsdnjOKFH7kg/ij/wAXph/RT64drAVKh7fpKzdT62R4f8Uf8QW6gMFfYZk2OtBvnWPRlmzV9lrD4+p0+ThwXUi7KV9/S9yr5eKFP6XKDH584AbTiCwashF9mjPiTceAr8FD+tfyLlfQjcQK8KLnilfQjZ0zBJHcKRsof5U/IF+lHyQvph8uE9DPBoPXDucA1NXfSK8ixFK0f9Tt9uO5ICrZL3XaMqHXn092Y4jMCTYyIC+rmWCFodOnWpxkfjlkdo+kTz9HdGA/QnU93Y4rPCHSHUXdjwk/4AYHuONLdmPgj/og/yp/uNKK7MemH9EP6scTpR/1On/9TSLqDccPPpIaN4xABttuNK74iAeFxvIhZb/CrAksDsX2JL0JdHSbGw8hj0SGOo91dfG/mr3gim+uIr/AT/5R/XeeH9Ef6q/Wj6/zQ+qH1Q+tH1/mh9aPH9SO/0wcI2wktoeUYAaXw0K74JQc/3ivey+Y9Zj8KC+8zY3T/88JDXIgpsUMt/Go0iJP4k3VC+aP8YS4wS5gj7Es/iES9thIz5Y/yh1wgS5Q/RCLX0o8aD3KDnFnK9aOj+jAPQERQ0G4CxTGSKY07drQrfsDwc4gTuAsc4HIviPPC4p8Ox3uu+1djAfqK/wkDkAKFdeQd+VjGxR/xh1rinCFXxB/lj/TDU6JaU5gbC7t+Kz7jmvil9Ufrj9aflA5Nre1h/c2/3pnTqH5NwsLjuLEIltvwUgYd8DqqbimeEGVM+opfjWT/4rvAvzqs7p9DIf5WjGhtdMEf5X+CSfon/Zd+Sj8TAlo/WpeNqqf1Y+H2f8JP+FXJBKFJP2nNGaj9V4d/9wVOUA7MuhK0ssC5C3xiKRNxs+LzXSk4LBR+wBjHIaYF8+qYpU8iwK3y7eb87kNf1Lp/nki9xW9h8Vc8SBeK+Cf+JToo/woIWGu70W/pR9AONKUf0o+SMswb1lWuIKdKqWw0iD/iT+LC0rb+DI+J4PnBJCm1V0ClLEbOEhjLuOKpIAWSggvxGXL4Ybq6f+Kv8tcTV/q1hOkXtUv8FX8TAspf5S8RcEkoujBk91/SL+0/yYHFpF/5g1z8UbdVQJlIUVTdVnw5Hm2dfNNgJ5viW6DrEr+u7snC4te4J+Af7hHq+aXmKZo2+vqcywttTV8MN230VXyNADFpYiX8xJ8mJ8iVmj0ZI+VvZ64ofzpjIv503o8Qk2auiT/iT5MT5Ir0t0aAmDSxUv4M3fxp/zd99T1tbfFpoNXa+57ie49VO88BxA9JisJDomYCw87xaOPmMo4rHmhkHCNWwi/jEjERf1rzirz5/+y9C6CtVVUvPvdh85DDGw4oCMhLQRFBFMxKwXzgtdIs/5mPbmhlNyXfV81Ss396zcg0r2ZpVqZpmoUU2KUk84IPUp7KAUE4vOEABzgHOAcOZ9/xG3P+vm98c31rr7X2Xnvz+k04a8w5xpiv3xxjzPk91tqkESvZj+wHCESbkP/If2JcYNwgjbYS9WA3rmM08lmPVPXbmwIRJ+Hn5tM8HECJ+Oj8V7ApmNBWiE/0qQdK/J7soi/PT58PdgTMU91Zi8fSQN1gSwEi/oOHg41/rEcKKEqV/FS3FFjX9YwHNv6xHqnqC79iMrIfOEUBA1n+Aw9s/KPfkBqLVYQfQBF+MInGdtxOZD/yn+IajBuksJXiMoofih+NMQAK/oOBwEbwj3ZDaizZD0Cw9GA5P+uiL6/Xw+uTTgwvtgQH9iz5ZJqgqOQAwDL1ilD1hZ+bAu1C9tPsmMVF5D+IM4of3Tir+IlIof3HMFD8zCAAB8cChwrGi5xV/CAeBpDj5EDJf2AqDgVxsXLecAufReHnODUXfQBu0hTrxPy47cQ6Ma/64yEQMYv5cWpDH9/hY2IeLGd7VCl5KhmPVUBZB2LmVV/4yX7MIeQ/jgHjBWIEMGEZlDEDIubBdx3h18ELGAk/2Y/8xz3BYwRjBjjMK34ofmr/yHtF3C/ca8r+m3/IxTn5g0ElsKjfbNjYj4fpDePHOjFf96P6GRHgELGImMX8QvBDHW8bDTGVvPPxQVnJe58xj3rUCXnVNzCEX2sb0WZiPtgMsrQl2Y9hIftp7IFYKP6YWch/3C7cFkLMQFbxw1HI+7riR2MPih/ZNxQ/FT+5f6xAfMC/mGAg+IdEWudZVv3p40dsI63zLC8Yf6vogcAacmNAg0jgm4DrjjwNJOZdr4hUH8CVJPxkP/IfxY8SDmLMjHnFT+0/3Fq1f3LzNKr9U/un9s8l3T9XIPDgX53M9xp+E5wKjzJS1a/Ry9dJxOWBhB9G6utmg8Jmg7H5YYRTKIOmDGzIUaepR57qC79iC0Zykv04DvKfsH8ofih+mldo/2j3Ut9TtX9q/zS/0PkrHx38U+cHh2Epzw/+nT4PxtYVaEwo81/kIx91kcdaRR51VH8QF2IDinS/4UcHszH4+sUFNAYMr1m/KCtj9kpx/FFH9YWf7Ef+w1gRYwN5ij+GRIj/ESPFT8VPxU/FT8bKGBvIU/xE+GzPzxEjxc+h8dNf7yRwjmABkfmaRlwhY5k08uq6fTLWI+3Tie1Evagb+TEf60Z98qlL2qdD3T4Z65H26UxaP+rX+dhP7CvyY76uH8u8qGvaKUFkS1GaK2Uvwokswy9Mex1jsC+nqu9QCT+HIcl+Mg7+Kf9R/DBDUPxsfUL7j/ZPnR+yP+j8ZDjo/OjGsNTnx+bXO9tQrNxDHQFstjGhSB5o8b1mR6IcfL6WovotAsQHHOEn+5H/FN+AY1iifyh+KH5q/2j32uwdrX+4r5izKH4UZBQ/HAjFz/Zcpfix+Pihiz5G3ocRdcex+YIyNfnC84vAkgdhHegz39QpPMi4Y6l+i4Xwa23GTcQAwUYm+wEaOTVYFJ+T/xguBQv5j/yHew68hfnGZwoPMtqM/KfFQv7T2oybiAGi/SdjAjyQGl8qMVf+A1AcGieMOcTqwWw/uujL6/qw+nSDLTOGc8O2wWMeIhi58yGwRBkoWMUfWn7Qgb7qCz/ZT/Yb+IP8p/UHxQ/FT+0fiAohLoQ8+No/23gBPBQ/WzwUPxU/FxM/ddGHiPIwS9FgePXmvCJAgG2S8TzIFBk3I8hdj3wwVB8oZFw8Zx/CT/YDM6CfGC1Z+U84vTgmBRjFHwYPxQ/FT+2/On9o/9D+mfeEaZy/mz/Ozv2XFF3EPMug2Jv7ZDW/T0f1R+MHjJCWCj8cqpq2S55lfInU1zHqlLFAB6mzzqrvWAq/bBeyH/mP4ofFV8XPdo+xPQPxEf+QtH9o/+V+CaOgbcAutH9o/9D+YT5R/AJYINFHkF9s/Gye9LFxUjTOhA6RIKOc1AXz8CFX/YzSAwG/PJJ2Hetyva6Qa/0ySg+E9eP6kGr92rVBrsYFPNkvUFD8lv+2/lH7Ccuk2WLyp/wn4yD7kf3QP0jpJyyTkg8q/8loABviQ5olw/mQC7+M0rTwm1m7cc7fpkGDAJeLEfPokuWa9skiD3mkuh7LfbLIQx6J+jXtk0Ue8kh1PZb7ZJGHPBL1a9onizzkkep6LPfJDt13z7TLLrulbbbZ2utO6+O+++5Ll66+OP1w/Vwznr7+I499c7w1jbqURZ7qZwSITU0jVpRFnvATftEeaCOkfbLIy+hNFn9Uv8VL+GUEaG81jbZCWeQJP+EX7YE2Qtoni7yMXuuPrEcadft4qp8RIDY1FX6DthUxeSjaT/N6JyYXL/x48VcDQD4pQVH96eGHK7KDDjkkbbvtdhHeRefv27w5XXfttd6O1m8QTmDCoBjxIQ81yCeNrai+8KOtRPsgT/Yj/6FdkCp+tAgofip+MlZG/yBP8VPxk3ZB2kaP6Z2/0XZs/6Fmf37RxwnGydVgxjL1SFU/o0M8IlbIEx/yqUdKOcv7PeaA9Ka3/046+phjWaVDqUdKYV0mn/S6a65Jz/3JpzUXNtSv+6c+KeUssx4p5SxTj5RylqlHSjnL1COlnGXqkVLOMvVIKWeZeqSUs0w9UspZph4p5SxTj5RylqlHSjnL1COlnGXqkVLOMvVIKWeZeqSUs0w9UspZph4p5SxTj5RylqlHSjnL1COlnGXqkVLOMvVIKWeZeqSUs0w9UspZph4p5SxTj5RylqlHSjnL1COlnGXqkVLOMvVIKWeZeqSUs0w9UspZph4p5SxTj5RylqlHSjnL1COlnGXqkVLOMvVIKWeZeqSUs0w9UspZph4p5SxTj5RylqlHSjnL1COlnGXqkVLOMvVIKWeZeqSUs0w9UspZph4p5SxTj5RylqlHSjnL1COlnGXqkVLOMvVIKWeZeqSUs0w9UspZph4p5SxTj5RylqlHSjnL1COlnGXqkVLOMvVIKWeZeqSUs0w9UspZph4p5SxTj5RylqlHSjnL1COlnGXqkVLOMvVIKWeZeqSUs0w9UspZph4p5SxTj5RylqlHSjnL1COlnGXqkVLOMvVIKWeZeqSUs0w9UspZph4p5SxTj5RylqlHSjnL1COlnGXqkVLOMvVIKWeZeqSUs0w9UspZph4p5SxTj5RylqlHSjnL1COlnGXqkVLOMvVIKWd5Foox1eVaxgaoR0q9ukw+KGSqnxEhTqSZmzFCHvw+2WLww5ekmdg2ac1nOVLoLqZ/1Rd+sp/sUfQ7UvpZXSYfVP4j/5H/ZI+gn5DST+oy+aDyH/mP/Cd7BP2ElH5Sl8kHlf88NPyn+SGX+RabC0+HYTlS1Y9o9OeFXz8u4Mp+hmNDieyHSAxS2c8gJjVH9lMj0pZlPy0Ww3Kyn2HIaP+S/wy3DUrkP0RikMp+BjGpOdOyn+aiLzYYF2BYfr4BDasT+arfRSDiHyURs5iPOsjH+lFvWF71uwgIvxaPYTYT+a12zgm/FpGI07B8qy38gIDsp7WIYTYT+a12zgm/FpGI07B8qy38gIDsp7WIYTYT+a12zgm/FpGI07B8qy38gMBy2o9f9MWFqQcQBxPzsU7Mq353ASNmMR8xi3ngF1OsE/OxTsyjbtQblo91Yl71hd8wm4n8aDMxL/uR/UQ7GZaPNhPzsh/ZzzCbifxoMzEv+5H9RDsZlo82E/OyH9nPMJuJ/GgzMf9gsB+/6IuTwaDHSbFOzI9TFzqxTsyr/ngIRMxifrzawj9iFvPCbzwEImYxP15t2V/ELOaF33gIRMxifrzasr+IWcwLv/EQiJjF/Hi1ZX8Rs5gXfuMhEDGL+fFqy/4iZjH/cMBv4IdcMGmAUF+9dr7FOQIZ1V8cfoAX+HfWAIUxrXMY/myz0y46q9Kw+ovtX/UroIcUhX9l+8BpCvYv+xticBVb9if7G9gj5H+L3n8Vf6pAM6So+KP4o/hTOccU42/znb7YxQDgEMITx0yq3wPUBPj11Bb+E+An++uxIOHXA0o/S/bTg4vspweUfpbspwcX2U8PKP0s2U8PLrKfHlD6WbKfHlxkPw0ovRd9jbQnMwF2PbUnunZR/R4EhH8PKBOwhN8EYPWoCr8eUCZgCb8JwOpRFX49oEzAEn4TgNWjKvx6QJmAJfwmAKtHVfj1gDIBS/ilNPFFX+9dhAlAV/0JwOpRFX49oEzAEn4TgNWjKvx6QJmAJfwmAKtHVfj1gDIBS/hNAFaPqvDrAWUClvCbAKweVeHXA8oELOGHi76IQszXQFJGSnksxzzlpJSR1nyUaxl1oqzWieWYj3VVfyi2cwGzmB+Aj3qkRSHWiXnV7yLQYCP8OsA0uBg35jtKUSb8OtBEzGK+oyT8WtuS/XRMI9pMzHeUZD+yH/oNaTGQaDMxL/vpItBgI/w6wDS4GDfmO0pRJvw60ETMYr6jVOE360IAyeeeBBVl5l2p+ogy1Z8+foA7YlzB35EtAP9oIMjPlPUnH2XmY9fsKspUX/jJfrKX0C/kP4oftAXFzxYB7R/5qBBtQ/un9k/tn9o/gQDjwlKeH1YMXOyh574LvshD5GYqFwudi5CoG/VYjxQy1c8IRUzAqcsR0yhbAH40LHRTBxvyok7NizLVBzqtsyLf57CRJ/yAUk6yn4xDbROxDA3ZT+tjERvZj+wHCNQ2EcuQy39ajCI28h9YR4sN8tFWUEaKPOGXMSEuoDUmsUw98kjJV/3lxa/7euewCwhfFXyENK5unx6a6eOPy3uo1w8w9+I0hfkPC/ZoepRTevdlrUbp9vWj+nkTGQdr4QeUujaJch8u4/JUX/iNayt9erIf2U+fXYzLk/3Ifsa1lT492Y/sp88uxuW1T/pgSXiCxAsvlJH6nipFftRX/QcNfrxYo6H4ktr6xTJ5oEhRpvr9mESMoEGckI8y8mteLKu+8KOdyH7kPzE20C5qXiwrfih+0E4UPxQ/YmygXdS8WFb8eGjGj8EnfbzIw8VcvKBzC8BHSZRRH2zwWFb9BzR+dG46v6+qrRnLkFPHZVharq3lKYs8rD/Lqt9iJPwyArQNlGQ/g5jIfxQ/6COKn22MyJ7S2obiR4sN7cUx0v6r80c5oyl+tD6i+JERYKyYhY3AQJxhBcvm67ZwwEeVgUNakKv+dPED3lgPLtLU8MfiWsLS1W3X6x/lqFOvf5T3rX+Uq77wk/3AC1q/i/4h/ym4WGDi/hPxAW6yH6Ag+6FdkAIT+Y/8x+1B8UPxEzEyxEnEByTtHxkH+In/nT5kCAqsplwbDIDlermu67OO6k8XvwLxkuDPtrF2Wr+Mhuy3tQX5v+Kf4j+jZOsXiBHa/1rf0P7RtQ3upYqfrY3Ai4iL/EfxQ/Gz9Y37M36u4AbPBXHnDM6Ky2Y6LpzYijlVm6Dq5wWdBn4AuMF8yviX1fOF5JqBx/w0xg8bWarxy/7KCsr/GpuV/cp/Fb+mt/8ofmv/0v7d7rMNFsbS+aPFhTFX+++Da/9d4UZcrvzmeAUI4y7WDcJ8WW7fXWj8qm+oPEjx87XFolbjB39LWeAtIV9YzfqrftkEhB+sKDF+yH7kP4of7hJJ8bP1Be0f2Saw33LvdEy0fzgw2j+yfWj/bGOG4meLxbTip7/e2dy+YKslCLkJDstDSBnrkZIfdep8LLMe6cO9PrBhGoYF5JQRN1Lyo06VhyruYIHiot6rFgo+mgAv3uWivrEbGXRUX/jJfrJT0GfkP22MQLxAUvwoccKwoJ0ofhoWBgJwwAeo9h/tv4qfrS/ANZAUP0ucMCwYJ0AVPwouY8bPfNEHi0KCpyEBSSZHtxTIryl1VT8jQXxQWgh+xHOh9Uf0DyfxoFooly2ufzNs6JgCynU9llW/LBiBMLCEXwknsh/5j+KH4qf2D+2f2At67IDbps4f5Ryh84POT2YK7hdLcH4a/Dt9sLvGC1sjLLlBWdS1AXqKPDDIR76WxTL1Iu/hWB9zjom4gFdjE8vUizzUIR/5OpkuxKiCizhPVvAyePhX+OD19a/6wk/20/oJfET+U2KH4ofip/YP7Jx56/RN1Iv5w8raP7V/+n5R/ET7h/bPpTw/5L/TVwciRiHGpigPhuniWhfMmqf6RDJjgxIxqbGiJuVRF/nF4m9NeNOlfX9aZ3kOA2y/yCtykPi6jesbj+NX/YyP8MsmIfuR/yh+tPFR8VP7h/bPvDdgj9T5IWOh8xMOkcUeLEjq/LR856dZAg/qB7ZCsQpcCN/EyTfq/CFy1lH9heNnEHtlYjkt/L1d+8CPLPBwjg1pC74tiwTno8yK7JcUukiqL/xkP8VX5D+KH4qfeWPQ/qH9U+eH5hzNcxOpzk85TOj8eP+eH/2iD0tRzvN5VeyTFxxRRh51SaMOG6BulJHHeqRRR/WJQLsmxGka+DnWaNAa8yCERi0xIOVCOdC6wGSlYwQvVGU9UlfjIEsd6qKC6gO0FlPiRir8ik0BCKSAlexH/qP40fUJxg1SdxnFX8CQk+JHc/Gp+Kn4qfhpYSHEBMZNUgQNz+fo0dF9KPqP/8kG7hflbO9TjzwwKAPFPybyUY551c8IEStiA0pejRl1cs3F1R+Gv/cZBuB9QtkyzYWa5d0JjO93qQoFD/rOy8PLa676Dozw83jpWMh+zEHkP4ofHmBzzFT89NCg/QM2UZKbh/ZP7Z9mCDo/6PyAUIBD9VKen7q/3hkCUcni3JIP9oWBsg+s8Au7Q0JMU/2CEzG7v/HDQnUMiisXBjiwfjDCoufjL5OIF39RQfUJasatCebAHv+EnwMh+2ntRP5TsDDfUPxo7QKhQvEjx02govip/UP7Z3YE7Z+ICCUhMCBp/xi5f84SK2y0yEdaMGzOI9yMox50kGI9ysFHHv+QVD/jQHyIC7Gp+cSUetPCDwvBtrnoXraO/IBRKMaFABtfD3Ce6gs/2IYbg33QHmQ/8h+zBcQMHkgUPxQ/tX/kYNn4BOOl4mfeRIiH9g/tH9o/lnz/nDWMm8Q8KQQxT0XySOfj1zqxzVrGMmnUZR+RF/WG8WudYXrD+A/J+n5aL2uLCaJslHMlJSau4h9FT/UBTcYr4uLcFkfqCL/24Ot2JvtxS4FduBHJ/xwHx6NA4gCVvPxH/sMLR8UPcxXFTw8Pip8lQGr/0P5hzjDu/tn7eic3XNGHKAIwEFgI/lnA4B1Iln1j5dRNx+/clzKquFz1hZ/sR/6j+KH46ZtC3hfqG4jYK7R/5K2ibJ3aP80mdP5o/UXnL3iGpXKe0PmzjRdLET+bX+/MqOvzYYGAHdRwc8idLE64HOAgw0bNhKBEffJZpo5TY1KXeuCTRwMGT/UBDJAISfg1tiL7ae1C/tPGC9qF4ofZh+JH6yTIKX4qfpazCuMEzELxU/GT+wXtgmXYR5MeJvFDT/qaFX/4ZBAEcWDwMwOCpHtACY4l3xwoIAc0+MA/1ENFUCP4UH0AkXEhFhkcMIWf7MfsQP6j+KH46fFQ+0feF7R/lv3RNwjtn35xWrDQ+cFsA0nnp6mfv3XRl03rYfXpccU+OhcoKBMFy2BD8s25MJFn2Vn2ofoFMIAFPIRfRsCAkP20/gJQ5D8tHu4n8Bc6jPxH8QP2oPip+AkEzBC0f7TxEpBo/2jx8DiBeMGAof1jov1Dr3fCox5mCT7iqThLjrDGgRNRWPJeJN+oX/jl2lmXstgW5Krv+Ai/1hZ8M6d9wUaizcQ8ZLIf2Y/ZhJsLY4xRxR84R0nRZ2IeYvmP/Ef+o/gRYoH2X+0f2D97n/Rh/2CKefJG0Vgn5kfVozzWiXnKR9FYJ+ZH1aM81ol5ykfRWCfmR9Xrky+kfqwT8037PESRgXJIXqdU9EMW8rFOzKOe6gf0ykFV+Dkmsh+DQf6j+BFjZszDSxQ/PVbww0On4qfDofhpMCh+Kn7GmBnz8BLFT48V/BgVP3sv+iKGMc9GQUtMjgQsGwgAAEAASURBVKwmH+vEfKOg+vPiF3FaUvzQOBayWkx/bF46rh+hc2xeRfWFn+xH/qP4wbDoVPHTYND+0doCcvCRggmLXlb8VPxU/IRLNEnx06BYwvjZe9HXoD9PJsSvebSGi1R/ODbjSBaFnwUZdywGm7oxbkTkk4KPvOoLv2IHbqu0Dxqu7Kd7yCM+8h/FD8VP7R/aP7V/av9sL/a5P+r8kBFY4vNT56IPfQ1L88lYZz6d+WSqnxGYD6P5ZAvCjw0y+Bj1V0nQGJ0QOuUf1dlX83RQ9TNGwk/2QyeR/+Qwofih+Kn9w22AoUH7Z0GAgOj8oPMDbEHnp2U7P83S9xiMvFwWga8kxDNM5PlFAoXRl1W/uaMNYyZEEVvwhuIHWZBPXH8+/EvbTf9W9uSDy/2mLcZxhUw7/ReZ6pf1y+gV4ISfm5HsR/6j+JGDgeGg+JmDZIwN2j+0fzQ3mWEeOn+4k0QfiWftBiKdvzygKn4sPH7kJ32wtOJ0NDS3wPLhzlnkfC2Q6q6i+tPFL4Jv+Wniz/XS+gWQZb/TtV+ecgvE07RfxR8EhHa56M+K3zQ2o7K/AkYm8j/DoWx4ih8ZC+3/wUW0/zf+ofO/2cVDfP9oXu/0YFj8wOfMIAkeGPhnPGeXfARH9QFUTovFz1tZIvy9ba1fNmRfqLJmMQ/WEuEv/zFsZX+yPzhC9LmYl/8p/ij+wguyi8A3SszU/tFiofgBC8lJ528iUXxG8cMB8W21ih8reGXvGOHDFJrAgnwBj3pOi543GOvEfOlI9YsxFmzGwa9ZraXAH41r/dzOZb+tLcAkaBeel//mWOhgtNiM47/Cz/CS/ch+lmL/gnPhn7UNE2Pefa7wPS/7k/3J/nR+92DQxgnt30P+Tp8Dg4DKVIKpF0swRb65oKMeKYGOZY/QxlD9slvNgx9xI50m/mizrMUWazcuFfNxXcHzcs/6qb7wo83ArJiX/QCNnOQ/ih+Kn+YL2j9yQAjnH+2f7Z4BcLR/ZBPR/plxoE0ofhoSU4yfs01j8Dg0HClQZ2fI0yuRR6plqj8d/IAtsOZaoIw0JfyboGLrxSVjX5DhVYGokzsPPDJUX/jRLIutyn7kP4ofIVYiwJbUxFQyFD8VP80WfFtX/PTDiPYP7R/aP5Z2/8ivd3ITAuUmRQoeAlIJSi6HjHKPWFAqiXxSsFX/gYMf1sPWhu+Ax4OIL5l9+JKW9XNiDNdDofxTfQBZcMnZ7BKGj/AzQNxwCpH9yH/gFIofDQaKnzloav8pmwdDpvYP7Z8wCe2f7hgOg84PUz0/rHDj4oYMigQaecUAO7I+HdV3iBaNH1pZKvxL277ZWh9++Ch9gUcnY//NxZ7VizLVz2sk/Fpblf10fQQOI/9h4Ohio/ih+IE9RvFT8TOeNeIZQ/FT+4f2z+nvn7PWZJvgceUCoGHWPPfKRtrN1LqQ1jzV72IWS8SKuJHGNVksfqVNdoWmmbAB08nYzRwVITNF1wG1fyirvoFQkvCT/ch/zBksOCA+ICl+AAT7p/ip/QNmQDsoZqH904AoSfun9k/tn+YMS7x/znJDgt8BcDhec5JnHpTJdHwPM57rg1/kqj8l/IApdwMHG4ySFou/NUPHqtcPXyzn+nv3PeuPOpSpfjH9Yv/CT/Yj/0GAaWNE3iwYvHLsUfwwPHr2T8UPxQ/FD8UPxU/tH9wjl2L/nPXG8x7U7sxlQ0KHCEJ+kVCkHpRCnrJy7s0S1lH9heFnKGJd/KKKWAbMS7bT9jj4c614kR7Xdpz66FfrT/S7viH8Wlx4oFX86NqI/EfxQ/GzjRPaf9qzlfaP1i60fxS70Pm5c8bV/jmd/XOWgRcXGczD6Txf/JB5BKZ44RAvSlR/iviVtehcnIG3WPy5s/hidS8qtX5TXD/5j+KH2QB8CknxM2Ox6PhlWGr/cZPyzUD7bxuztX+1WOj81sZcxd8WC8Vf7R/YM/xJHw8lvp24ZZQDCw4u5eTiOh5ZzYiw+Za9x1nQK2UKvaz6C8MP+BZASaeGv7Ud11vr18VD9gvjK/4s/238cGr+Z5ja/028lP/J/2I8pnF4+Jf/yf/cEIqPeLBQ/FD81P5R3ML3UcXP1h7G2T/8O30RQDuPtIkC4/DiozkQUst0qEZKUSNQ/QcOfmUtsJ48yPraIpIWGfhNvvAyx9Z6i+XKYUT1s18Iv2wTsBHaVZMvPJSRZD8GgvynsRPYi/wn24T7R4nLTd4yjg8YluQ/BoL8R/6j84vObyUOaP/IMdH3hzH2jxVQVHp4IWB20QQM8xvPNwiAYQmOVLJZFzz7x7sqvOBTfeHHmwSwGxqN7KeBovEZ+Y/ih+Jn2EfKHqP44ZEzf2j/dRy0f2j/0PmzhAQDAmeHaZ0fdNGXcX14flYbjN8xKUjwoo7GBoujEzZgqb5DwQ1K+DWWkS90zGZkPxkD+Y/ih+JnGx88p/1D+4choP0zx0adH9r4oPNn9oulOD/poq+1swdV7s6rvpE+9D8/kq7cvDld+Kk3pn22n0mveveX0i1jzKI5fJRDebz7DBkMzZMVUPZ/9uEGaB8oe1J9x0T4ZdsADrAN2U/xj4IHMKGN8IAj/8mGAlshNrIf+Y/ih+Kn9g/fHTwY+N4RYqT2jxwjHSGdPxd0/tRFX/GvBxdZkz546DPSH61JafNV/5beeNKfpF/70z9Lqz74kvSeL6weOZUmqJpms8kWZh1U0BhE5POABj6S6pdNWvi5PdBOcsE/ZT8GA3GR/xR/yaah+AHbABaKH24R9JNc8E/FD5iH2YdfANhHMRUHR/uv/EfxAw5SYkXxEy+RB3Hha/+1X+8EOMAGwQOJedLMzZ99vFgn5vt0+3ixTsz36fbxYp2Y79Pt48U6Md+n28eLdWK+T7ePF+swHynyTE39tRenv0ivSGd94bfSrme8MV2c3ptOefVr0m3bnJ7++3W3u3qjy8pGwWPyfNlAXJf5YgjuJIXndSxffsPFi6pvMBAzZJk3iiT8WkwcENmP/McMobhHjkX0GfCZLwrynxYT+U82HO0/8h/FD48Gip+AgXsGssxr/3ADmW//XOEHfldrL/hQ7DiXlakH6gd+KFkiv86rvsPTYEWcpoLf1ivTYWl92rhhXfrG3/1JSr97XFpp3d1y8xW5U/scG38bUKMb8nAiJBgPKVgoF1aHH3WQV32HR/jJftwQPAhbTv6j+KH4mWMjPukXdV77R8YI+ERsFD8UPxQ/sk9Ev6jzih8Zo7744U/6WgiLohFeCPhBvypTPxofeaDgq35GZCH45Zrz1N/l0PRLzzgl/dSeu7nSR889KP3Hu5+UXv7BC9JbzjhwJP5cGzcIFtBSyYNPpwH19Swy8qGu+i1mwEP4OQr5IBfsRfbT9aeMkvxH8aONGW4Tir8Og/afbrxQ/OziofiZEVD8NBxKzHREFD8dhlHxc5aYeWCxKpGiBcijDnnUQxmJ5UjBV/3J8SOexHIQ/1XpVf98azrm2+eme3c+ND35cXumC458Y/rsd56bnnn4KsccdZFq/MmPhgE9lhvqTKtvDXT6twb8QrBQqCE19Sh3puoLP9mP/MdDhO8R+FD8aONlRqYtN3FU8dNA0f6h/UP7h/YP7R9lO2hiIveJhewfsxZXOxcGNDBQyJBIKQOPedVfOvyAM1KD/+b16ZZ1GzPTPvd+7BNddsvadWmfn3hB2sd4d21OaaU9vx22flw3bCZIzfqVMvmd+kXJVSo91S/rX+Ei/Fq7RYCCQTpEFU6yH9kPTKKJO7SPEpuMNG8UyH4AFBBp8ZL/yH/kP60/NHHEfAS+gaT9x0AwI1H8zDjAJmgnD8f46a93xi9IAxAkgtE4TmZ3+GX/6fxAQVHr6LE9UtRj++Cp/+KQAKOkPtzvvOjj6Yinv40qvfQtX781veGpuzb4xnaQb/5Zhoa/hXkIy6LyTgJY4DFwNnzWMbHqFyyFn+xH/oOI0T75R0HxQ/GzxEbtH3mvIA5wD+2f2j/9LKbzg84Py3B+GPhOH+2u9I2Y1FxAIE8+KXgxqX7GKOJDTIAT+aQRO+ShWyfWX3n4/0jnrzmxEW/eZE/9Zmfz+myV0vX/9vF06g9vTMku+mL7rN9UtAwv+CKPhzPIojxuUOSTqn5AwHAjVhEf8qBJPmmo7cZB3SgnT/WFH+2CVPYTEJD/Kf7YZgffiP6h+NniQVxIg/eYkvYv2krEhzztv4N2JPsJCDxI/Mcv+mysnvouDiCgPGu1F4HUp5xl6pFSzjL1SClnmXqklLNMPVLKWaYeKeUsU4+UcpapR0o5y9QjpZxl6pFSzjL1SClnmXqklKfZHdPuq3a0i7yN6ZyP/Vp68Vv+lioNffEnXtLkmWnqFwaDGCkDHMusR0o5y9QjpZxl6pFSzjL1SClnmXqklLNMPVLKWaYeKeUsU4+UcpapR0o5y9QjpZxl6pFSzjL1SClnmXqklLNMPVLKWaYeKeUsU4+UcpapR0o5y9QjpZxl6pFSzjL1SClnmXqklLNMPVLKWaYeKeUsU4+UcpapR0o5y9QjpZxl6pFSzjL1SClnmXqklLNMPVLKWaYeKeUsU4+UcpapR0o5y9QjpZxl6pFSzjL1SClnmXqklLNMPVLKWaYeKeUsU4+UcpapR0o5y9QjpZxl6pFSzjL1SClnmXqklLNMPVLKWaYeKeUsU4+UcpapR0o5y9QjpZxl6pFSzjL1SClnmXqklLNMPVLKWaYeKeUsU4+UcpapR0o5y9QjpZxl6pFSzjL1SClnmXqklLNMPVLKWaYeKeUsU4+UcpapR0o5y9QjpZxl6pFSzjL1SClnmXqklLNMPVLKWaYeKeUsU4+UcpapR0o5y9QjpZxl6pFSzjL1SClnmXqklLNMPVLKWaYeKeUsU4+UcpapR0o5y9QjpZxl6pFSzjL1SClnmXqklLNMPVLKWaYeKeUsU4+UcpapR0o5y9QjpZxl6pFSzjL1SClnmXqklLNMPVLKWaYeKeUs+59sYCFeHOACBP+YYpl6oFGHfNSJ+nWZeqo/HD9iBooU8ZzZcH76I7vg+73TvpX+9NUmfOsp6d/O+DPXe/Gzn+g06oPRWaeyADAGGApTNA7woyyWqaf6XYyIC/CMeNVl6gk/4Rd9jHZR20tdpp7sR/Yj+4F35ES/QEnxt+sbEQ/ipPjRxYi4yH7kP9FfanugnTxY/WcFL8DC2R9z9Kd7lPWVwUMd6qg+EGkTcCE24NZl8ObDj3VAkQbrvyO98Lhj0zHHvDAdtsuj0+N+/DXp1N9N6Q8+/71e/TgWV7APGDYNGPmYwKcM/LoMnuq3GAk/WESbanupy9CU/ch+GGPkP63vIFf7S12GjvxH/iP/gSdkX8i5/Fn7S11mHeGX8VL8jdbz0I6//uudnG517id7XhrrtPmN6fa169PmNJt2XrWrfQ5PbR1z3OFqQyWxTswPrVAJYp2Yr9SGFmOdmB9aoRLEOjEPtbocq65L70/fuOQd6TlHPStdfMy/pFve+OR057qULn7UvfPW83ZDw9HZmYeYF4kxH/tnnnViu7FOzLNOpKrfokEsImYx32q2OdYBh/lYJ+bbWm2OdVRf+NEWos3EfGs1bY51ZD+yH9pCtJmYb62mzbGO7Ef2Q1uINhPzrdW0OdaR/ch+aAvRZmK+tZo2xzoPJ/tZ0U5/Orkbz/qr9IvbPyIdvv+e6cj9d0sHbP+s9LdnrZlO49bK6s+8KO17wifSnVNrsb+h1R97Vnruh/JTs36N+5G7w9Hp//+DF6aTjvqJdOnux6eXp3elI7efSS/9aEqvO/yRYw0MzjAs8YIP8piP+qof0ejmI2YxH7WEX0Sjm4+YxXzUEn4RjW4+YhbzUUv4RTS6+YhZzEct4RfR6OYjZjEftYRfRKObj5jFfNQSfhGNbj5iFvNRS/hFNLr5iFnMRy3hF9Ho5iNmMR+17k/85nsIF8c4Xn7jhemdzzkxPfKPTk//9bIfTzvce1M646O/lk56zs+mA9acn3581XjNzKt1zx0p3TqvxlSE906llaVqZDYd88Z/SqtPXJ9W7rJjevyaC9JPfe2StPXjnpp+4sj9x+p0mDGOVdmUVH9cpPr1hF8/LuNyhd+4SPXrCb9+XMblCr9xkerXE379uIzLFX7jItWvJ/z6cRmXK/zGRapf7/7Eb/wnffNdmpZ5bbrsu+lfLf9zLzkh7WUXIytXHZRe9Ht/kd78M09Ld92R/6j4nZd8Nb39hJm0rz2Z+tWTPpJW32Z/TRxp83Xpn97/SudD9vYPfSXdkiX5c4z+08Y16e/fbU8Crf6+J7wy/dM511m7a9JfvupZ6eP/Z03T2o3/8YfpF0/6q3S7cYaOp9EumXH6r+vE8hLU33zrD9JpX/hcOt0u+LZ/3FHpx+yCb+hV/Bj9z6cSH4PHacW86kc0unnh18WjryT76UMl82Q/w7GhRPZDJAap7GcQk5oj+6kRacuynxaLYTnZzzBk2ldPh2uYzjxC2d884BTRuPiNf9E3xqXptoc+Lb3YBvDK/Z+UPvChv0pnnXNhuvG2/dMbvvCJ9JyDtktp7dfSzx31/HTFMz+bzvjOf6ZDvv369Jzn/rFf3F32169IJ/3+tekTZ1+czvz6F9MV73xh+uR/2EUb08j+16W/fdFj0ptPPyB95uwL0l8+b3066Zn7pNOu2ysduMeZ6X1/fGZ5JXR9+vr/els6e+/90s7zjIfdNnRk/41mf2bK9Vd/5jXp8MOfll5z4svTSSe+JL306Qeng4/57XRZvrYeHENP/7WR9Kg07TRfeG44g06q+gGcKiv8MiDR5mIeUtlPZTShKPvJYESbiXlIZT/BYKqs7CcDEm0m5iGV/VRGE4qynwxGtJmYh1T2Ewymysp+MiDRZmIe0uWyn6EPhqo1G684e2j6w9XfSk/61EfT5995YrKvmHl6+us+nT72h7+S1n7lI+ni9N70X+94WdrLJAd86ZT00UNfmL531ZvSk4/9HbtYe2I67shd06bbUvqxw1M67dyr09uO27u0Mj/ZdMkp6R3/mdInLnp/Ou5Au8A88mPpze88JX35jB+mD7/swyl99EPp+7f9SjomnZc+aXp/+rGnp9VfeenQ8Yz3zbj5x7RkUnuN9t2v+fP05tMuS2847iDvZtPaC9PHX3BEeudf/kL6wm8+ed6uo7HF/LyVihCGGevEvOqPRkD4yX6iz8T8aOvJG0OsE/OqPxoB+Z/8L/pMzI+2Hvmf/Ef+E30m5uU/oxF4IPjP+E/6Rs8nbd6wLm3Y7ej0qt/7TPo/d92bLlpzWfrMJ96Rzv7oiemD/3i5tbCj/XtXegpev7R/B9sFH9LVt96dZre+J3311/c0/tbp4L0PSydflNJ+227t8nE+Nt+7ydVec/gjyiui+6STwdl0b1p55AvSr6YL0pnfX5tuOefLfqH3k7gwnGc83tgD9GPTmu+ms+3i+cRywYdhbrvqiemEXzoinZ1hmHjkMMa+VPOHOXmtx7ZqvuoTmS6tcaK05gs/ItOlNU6U1nzhR2S6tMaJ0pov/IhMl9Y4UVrzhR+R6dIaJ0prvvAjMl1a40RpzRd+RKZLa5worfnCj8h0aY0TpTVf+BGZLq1xorTmTwO/FZ3HNuxpEhpGcdnfHJeO3PP9/l255H+u4aB03Cvfm05+Rkrfu/LmdO+ma1M6/MPpvDvuTatvujtddt2V6fP/9J/phfZU7x9e+fz0ved/MX3rujvS1Xfd4XXWzzOO5hEl+9+Mq50j0ucvvztdcdMd6bJb70hnnHF6ev1PH2L8g9LP/sHx6aOf+nT6+0/+SXreJ16Sdjdu73hOwXhwcTpmYv9jqg+oLaD+tvsfkZ5uF8//gO8ssr59J/K/vnVBevq2Az3Mzyj12UytPIzf6Km+QzEMp2F84VcQkP3IfgyBYX4yjC//kf9ExxlmJ8P4sh/Zj+zHECgOMsxPhvHlPw9e/1kx74ukzcrOkwmXogef8DZTfFd684e+mm7ZuDlt3rg+XXaGvWZpr1P+1FH7pr0ff3xKF30qfXv1urRyh5TO/9zr00tfdHJauzn/mMthBx+Y9rEfgLn2rM95Hbss6+l4J2tjTTr/ogvThed9L114vv0778K0+THHpufZ07y/P+2cdN8OO6YNl52anvOc56d/vzG3/cQX/mZKn39bet+pR6QTTzjU2+0dzwsxnp5uh7HC/IepzMtfSP3tnpze/qevSO+27yzue+yz0utfZT9es9M+6R2nHp9+6+eOmLe7AeGQ/vvYfbxh9tOn28dT/YEVcUYfVn084Sf8+hDos5U+nuynD73+71cIvx6sekERfn2w9PHkfz02Zaw+rPp4vYqq3wuL8OuxtV5QHtr21zww64Ej3wUYAkqf/uyBL0tnfPby9JyXPz/96ztbjZfbn3B4nX03b2V6a/rMH3w3vfKYPYvwiHTy2f+WDt1u13TvSW+w76kdnb78GhMd/uvpza87Pp38lnekc3/5a+kou0Bs0jZ4Cvf+9PPHvL9hIfN7Z9+RPvD1P0tHPvMZ6csnZdGLP/jv6X88dVcvzB74zPTb9sTxfXu/LR1Z/nTE7scNG4/9PUDUGnmbI/cz9BP1J8BvoJ156h/16s+k837i19O///s303X2M6Tv//RvpONfcELaJ2I1T332heH1TdN5Vf0+PdUXfn12IfspjhX8vw8n+Y/8p88u5D/yH9+YFT94VOk9pyh+Kn4qfjYu0mTm2z9mrrqr/THUPgfq46HlPn7D27gu3WivWG7eeuu06657p+3x9bmQNt22Nt1uD/F23nVV2jZcdt5j/PX3zqadV+1qL4duTnduuDttZ0/ttgp1mW36IsOo8+zp4o3rNqbtdtw17bzDbO84USXWx3hus/HsauPZJoyn1kOZKdaflAf9+er/zDOOTe/9o4+ko445tkdvfbroX05Ndz/x/0tHbT4tvfkdf5nSyh3T9iu3T3ffdGM67nc/k14UXk+N/Vx/zTXpp5/5tHT6D67paXf+MXGOpLHdSXnQV/3BYD0uJsJP9jOurfTpyX5kP312MS5P9iP7GddW+vRkP7KfPrsYlyf7WZz9rADQTLg6jGXw41V0lJFf87xsT+722m//tM+juhd81N12l1Vpz1X5go889LWN8ffwCz6UZu0V0O4FX9Qd2v92O6a9HrXKL/jQCvWQH1Yf49nLxoMLvqgzbn3oIaGvpa2/Nn3xVTul//aSl6cL77bO7r0+/eOpd6S9903ps5/68/TlU/dKhx3c/T7iOPPH2JGWfvy5H/YFGvFS/108Ik59WPXxIp6qP57/Ayck2Z/sT/6TfYGf2j+IRNc3iEu0F8WPLkZAjjghX2PVx4s6kKs+UMgpYkNcal4soxb1kI8y8mteLKv+QxO/FVx8LDASn/th8ccxANV32JqPpcTvtnM+nd78+SPSR75zU3r142bTprvtx2sO/8X0Zvu11B+t/vf03PTn6awL1vlYtH6yX/lv45aeibGK2EQelJbSf2Nf6j+vTcRE+Mv+5H/ZL7R/a//mHpEtov8CRPGT6GSq+DE6fvifbOgYVynAmKJBxSBkf40h3X5Pd4NqoB+jPnS97dLBpP1vsP7X2z8OcNL6i+rfxoy533k/9H/1OV9N6afflp7x2FXpLvzYzJx9me+i29Ndlp3d71npxLem9J6zLsX0HJph60f5QvC75z77Exsb7j/87feB0jV3pjJ/n2r35sQS298WAxWBxbEtAC+n/aH/xaxfrr3w8at/4X9/2R/87v60P/R90a35H/aghcTPxfjfvRZ7z7vZvm9uf8d2o+WXu3/s++da/5fZtnPvluXv/za7x/k96/9K+1nv+xAHSyxcrvh7k2206P8a2//cDpe5f/SL/m+0t3y862Xu/3Jb9/NuSenWjcvfPyYMu7/Q+l+PsyccaRnnf5/Z+422/u537HoZ+4fv2w/eJ5y/kJZ7/jh3oX/gcH/0j/P2zdb//RX/7zCbc7sva77c+Ns31vy6I6O/uPWfhfX4BBA5kWEEdWYpU8eKd9w7l35wmynZDry1XTLuvX1Kj7R/MzPgja7v7VOv9Oldlfyo/tfa5C+/w2pYf9tZ//usnEurtrPKY9bv6C2g/2vunEvX3GUVbf7b2+ug+6607wJuuwT9G5QNnjZdxwgfh+2bLl2X579y1avTl79j4wDfhrDXvsenw9aXv23oFTIflVEkC4cnLBfqIO+p5J1vDPJ9WU2Hal+9ei7duHHG5HNp/x1Seor9KM7uZf5Nu/PUZ3sL6X+LdfCPa2Ys6M+lFdbAwfZDrkfvMZd23NoGP+b4F9M/NtvTbf4z9t8BO86lo/awv/SIvpGWof8r1s+lM6+bSbMzc+mxu8ykJ9nfHXkEv/C6DP1fZA+Rv3njXFppcz5057n0xN2SxYDlmz/6/r7Fnp1m59ITdptJh+2Skt+1Wib8z7C/OHOlrcEeFm8O33UuHbKzdTy3PPPfbLb/lTUp3bJpJu213Zyt/Uza397khs95WuL1v9s2/VOuSmmD+d6jd5hJR+4+Z3EfcWB5+r9101w61fq/z/Dez2L+k/eYSbvZd8WXq39M83w7cJ6z1vzfgsi3zBYP2zXZOOCDBv4S44/+z7Y+L70jx95v3jjj/vek3bAPL0//Z16f0rW2/2H+29pYMHf44FYIqsswf8TeDZvz/BF3sfdgD/C0xP3fY4fdf7kaF7t5/rtsM5eeZr9H9+iV1jHSEvd/u/ndadY/sP8vs0H43o9Z/3vw9xKWuP9r7YLna7b+2PfPsTHsaz6I+e+8zfLMf/Vtc+kbN+T5f/OmufQ42/+eYvaHM5inJZ7/v15jtm8YzNj8D9p5xs8dO9nclyP+3Gc29+Ur86F/1nz9cbb3Iv49wua+HP3jgu/vr7A/eW0XnFvb2eNw23ufZPEfcWc5+l9nsf/L1j9u9ODscYTtvdj/EfaWo/9rN6R0mq0/0o529gD2h9gawBeXo//V6+bSf5rtI+HsgTPv/jva5Bc4/+bM1JzqsbvgnzXoKeaNsf5em6hfbs9YAJxJVxog598yY1ehULQ0ov5AP7lWrjdGfb/LU/rAXZfLbRPE3Vd/8jZG/cX2f0eY/122Aa22u1+4A7Vp85TnH3Epa7Hr/k9K6YMnp0sNc8zjzq33TptX7ZOuvMM2o/vWpv/80pn2xcgsG7Z+bBb1YbBo2kibJz+sP/Z0JAT8G+6eSVvK+q/ZMJP+4Qq7ELgJ/ZsTuE5pq6d+bgOflthPzo7V/50WfLj+GMKlhv0XfzTjdx9xB2qp+/+hbTyw+U0210tun0l/f/lM+o5tQLjr3WDJeS3B/C+2iy4EPtj9hWbzX7g83/kEbzn6//6t1pGhjIP/d2+esb+JOZN+ePvc2Pbjy44mPBPGbOVxxv99mzP0brO7bmffaBvRj/JTZzQ5Tn3vdoH932k3u67AzSab/9q759J/XD9jG9GM3f1cnvmvtRsO+Id5Xm+HDxxC/nmNHQTs6cdyzP8qO+zfbpvvFpv/Grvw/cqamfRvNoa7DJfl6P9HFuNw+Nhsvna55b90RUrfsEMo7oAvR/+wnTt8j8vxDzh8f53FALNBxKGltj/0z9iHvhBz8NTni2aDV9l+sBz9Y/1h/4j/G++bMR80H7gyPwFY6v6x98T5402fM+3P1P6z3QhAPFjq/jdakL0HgbbMf53dfDn96pl0xrVzCfvSUvePJ8vog/9usBjwj4b9WXYYxGF8qfuH7XPfB73K9v4v2d77XbsAxdFnqfuPa4++LrEzF3zvB7Yn4iyw1P1fvSHPH35/qZ0DcO747lr0vfTx727zNTzlxhwR/3Dexd6P/RDBz/5f0vnjhtvdFuex7vfY+Qdr/gXb+39kcc/PXEvc/0125sS8MX+c87H3f8nW/jp742s5+r/urrL2Nn+c/8+8bi6dcuWMP3lcnv7zxSXmf7M99Pqq3fw53eIenj4upP+t3vjO97zHa9rCNRT5IQmBb50HWTc119psYOBAgrtgO9qDJjyFmTfVYpZJ56l8l0UY+9vuZgC5f3SFQ/hNeOXAWOgfV+DzplrMMuk8le+wW353mROyf6hiQ8Cjb9x52AH9jwKy7oflQv/u059Mxz/v+elR+zy6M5KdDjwkXfm/Xps+9vHL0r5PPzTtsrM9Zrx3fbrm0nPSp3/nCemj/5rSH3/8f6fH7Nhey8cGNqy/I33urz6ZXvG6N3mgoIxwkZIfqQ/NFH5425Z0j91tj/O/0Q6+l9lBbNdtU8Ldr74UuegHq8fEfknJjxT1t7JpnX+L1TRF9o928PQVB5897Ynz9rOxp7aFyF1o/zeajV1vASDf4UGwx0Wwve5kFwO7Ye544jkkRclC+7/agtytG9v+7zODx93Hq2xDWvWIfBdsSPcdi1xo/1jjDRb8OX/4PV61usHW/5HW/3ZDsMeYpjH/H9hGzzvtWH/4/eXW/222KT3K1n5rPHEZkqJkIfOHb5/nF53t/BGL/IaP4YC3HbaC0pAUJQvpH5se5o95E//1tha46YS29zL8Vyxh/zjYAuvYP+7AYv74BeY9zP5nlrD/dXboucZsPfa/1nzhh2aTO1nM3cV8D7gOS1G0EPxRHxcaOPwRf0QxrAue/iIGwga3GWKD0+j/ZsMA/cT+cfGHGy8YG/rHk4C+FLkLnf91hj98LfaPJ8CX+M0w8wHbjobt/YvtH+1eYTEePhf732D9X2x3wgE74v+wvXex/W9re8+FuOlmvh77x2EcT6Hw1GWPR8ReuqsQJQvBH29V4ev60f5hf7AJrP/O5n/wgWEpShbSP85Wl/jNjXb+2P9wAwo3w/DEcYchez/GtNj+cWGL9Y/zx/6HPRH7P/afR/Ctmx4QFts/4gye9rJ/XOzhYuAK43PvBa7DUhRNiv9WhvMFuMCzRtg/9l7s+9j/sfdsZw6wVP1j7b9vcd7HbQXYP64DfmRx7xaLwY8yv8dTv6XqH+drnD1i/3dbHLjU7P4uswvEPbxtsFT943rjKlxgBvxxDoLfwwbRPzBZqv7X3r3F366L/eMhG54AIi7sabZvIxi7/3zRV1tqx0KD0Piz1sl15mTWxcB/d9qTr7UWhLazV84ewQNgX1vkkYYuPBv5VR5FXGCydwQe5EGxOLfaHbjt7RCwLTffqn6n/SiLY4j8Km++5obO/kkxCnzXD/9w4Rdfe2uaZls1bRRy5u/swuz455aLPupCtNVu6Qn//WfShtUnpU9+4GPplI+/L335Y3+YTvvsX6WLVr8wnfSVr6cn77ejH4KazT/Uby76Xvsm76g2UqqCH/OubB/g473mm8vBg3MHxR2gH9qmwMMH5x/7YL6mTfslA3lf/zhUX2vOh7ue7JtBEE8cVtumaLGgCQJojn3FPHmkpdtOn339W9P2fZZ8welOXkbBuW+wtd/LAgAuPvrqs7+ajts/nnRcbXdYkeL8cScQAQAbAfoHTkvRP+70464bMecY8PQfd17hctgAcfGxFP3jxspt9wzOHzwcPLe3uLO7vf4AfKfdPw6da+xwA6zr+a81TLAp7WxP2fG601L0v63N7fs4dNoNl7j+uPt6vb1ufqWNbZUdvPD6y1L1f/7NecOP899i48ENFxz+9rL+ceG/FP2bSbl/W+ud+efDx4zfDMHmy8PHtNcfnWKDvdie7sX5Yzz4Dz6A+AMfwMXHCo6TA7H6wAWpppnbtVlWoy50EH/wZgsS++VYcPiCDz7C9h5cfPTVZ1s19Qa9zZyDvK8+LvCuuXNw/tBGXMB3vuADfgFeGmVfKDJf06La6bOvf+yt8DVvy7TxH+aP/q+xAzDeeNnD4g8uPvrq1/2yPFb/pnyjHfLvsFhDzPMI7Mmn+cAa+IDtTTiA4eJj2v1jP8f88IS1nv9m6/8yOwDjJgwufraBD5ZJxTkyX9Nx5o+L2ovshiuedNXz32RjwgUh7AP9zy7B/ocz5QX2ejVnRuwxFrxxhQt/OAh8byn2P5x5brGzDy/4uf9jPeB3uCjF3L1vA3+a+KMvvGLIc09cf7x1s9q/bpVv/Pm4ptw/ztKr7S0ffJ+wnv/t5g+48beNrc8qu/EAJ4d9TXP++ArLBfZWQ/b03DLXH2/d/NDOZDhz71Zueky7f8R92D4GEOePWeLNN7yFgpv+/KrPtPtHiMP3qLnupLjmwE1InAlx7uIDj1H9dy/6uFK5/fYz8HFFfbNtMDhc9yW7KHfnuNMU8NRtNo6gr0LkhX4iu7EgY8K48L2CId37nVdcFN5jhyH0z+8bdNobVhijf2zqOOAMS7gb5F94tZXayTZAD1LD2q0bKXoDT/pi/e0elVY9+13pv/3CL6annvCL6ZkvOTGd8Op3p1f+/q+nA/dc6a/+oX/A3jx1LPV50ffy33yTQ0oM2TzqxIQidCIfFx5rbHODIXp9U0Kea4THz9gAEKRx998RCO02bZrE67dVO/3kmlkn9o87HNfb/Ng/ZMi7juXxvTs4CNYe37X0oU2pf8zpXD/4tv1j3pw/7rri4LfSNsjdcPFR5hjH3/AWMH/ccLkIr1iWPjk39p+fOtqhy+wOT1ybvpApqeFZGfWRKI7jJJ99oIwbHrirTMy9vlVG/2b2/gM7ePKHi4/ty8En1u+0aQWvb3Tc/vHjRbi72Td/24/8VXM8icVTL2xUzVzZQenLx7SA/m8z28NrVX3zh9/jws8PXrz4KH1EXJsxTdx/PnTiiVff/Dda/9h8cVcU8+fBZ1r4I47jO6VYg775+xMX6x+2gIOvHz6mOH9s/Bea7ePJWt/88XdWMX9s0Lub/U27f+vVYxr8H9fdmCew5VhAMTT8yBUugnex2LeT+cC08EdX1lx506Htn2sBij0Z/ne97Y948oJDwDT7h//j7jb7RNtx/psMANz4gw8gBuDpwzT7x2vtP7KbG+yTbWMtMKa7TQ4bwFOAPa1/3ACgDoaKZGqZVyh5TiEMqdEtfLxOlb/T2OLPsYDihmd+3TC/eQGfmWb/eJUc+yv7ZNucP97Awvxxvx3rjxtV1OG0mjkZAzKkMj3HMHPyZ6NrGUTTq82u/JUyK/fZP35vwW882P6Ht36m2T8uenFjDxdXffMHD0+i8eRtZ9v7p73/+d5Tzj199o+5w/Zx5vLfeCi4Tgt/33vKuaeeP/wSZyK/+LB13wGBYsr932Rn/vyGn8FfrT9icn7imvd+PvDBKKYxf+xla2zf52vU9fxxMXqFxT1cl2Dv49sW0+of8/k+bqrbZOhr0f5xs+NSs7sNpoD++cBlWv3jIRb2HST0W88fNwPg9/jeP/Ze+B3SsP63euPvvOc9pZ02CJh27sLrdj7QHoKP/3pXR9ItIEDjgISB4BDcDKS0HQc0Wf8z/qRx2Pg4ChiI/8qVKa400HAIQHKDBbV/3m81nqiDfJ1QB8FlVMIGwFc+sWi5x/H6x5O+4+xJ3yOr1zvRChwM7W6z0x5p9332S3vYv1332Nn+qmGbMEa/K2qBCIcg3KVD/+vt9U60/bLypG/U/CFHIkX+dpsXggvwazAMOuDBNtaYE+IAsqNdgOwYX/soeJvaSPzZLynqYO54l5sJ/SGRQhdBAAfwG+wCAD/2wCBERbYHWtsDdMiLeuAj+OB7bVgD9Id/3kahRvw7dz+yeePOMw5+ePLCdiBHJZa9bimzLVcpvKgHvnXv31+ELhPzpNgUcdELH8Xc8eSF7XgdU2R50v4R9HBR6/WsMfTJPCgSbgpcbAEIP7azewnAlLnCIvrHrwfi+1ycK9pjnhRP+/Hdx7vt4gcHHwTgafV/q11w4Ukz54w+mWcfeN2L3zPBUwcefHzuZcDU9brWSN3GMPuDPeNwwbmW5rxp8uAf/tQ1XPywPyqyPGn/V9lFHw59HG89f2xIuCGGww9iDuwfzsT+FtW/tYPv1GJf4VzRHvOguOGICy78wxMnvm42lf6tfXN7//VMHLLQH/6hbVLLeh57z6XmAziE4AK0eeukKHA8XtcqD7RReFEPVXFRhe/yoj8m5klRB4cAPBXG67/wAb514XVK28hP2j/WHmvL8aJP5kGRwIOfwAc2GVC4A+03Xl2aFajrdct42BbUhtk/bB/7CnSZmCdFm/iVP8wfecyfe7/XMcWF9o8LPpxpfNzWGPpknm2iD5wPLrH+Z+1GBWJwZ8SL6B+vUQJbzjW2TB5iNH7l032wXIDEsaEyy6DEGvXJJ49lUjxNw8WP1yuzYp462BtxAMeTT+79lGG8i+kfX+3A2YJzLc2xWae48Of+h/iDvX8a/eM8x3MP50zMSHHjDxedeN10V4s/uPGJNI3+YdPYe5CGzR+xEbEfT/097uDq39I0+sec8ht2w9cfcQd7L+IO+ufXLabR/xV2sxnxB2nY/HHmhd/jKyDYe3FeQ5pG/7B9nK3QItoDjXnwcEMG80c+xp3F9o9+zrPvj7IdlJliHrEJ57OtGXfgyJZYzwvG2uoNv/2e99DJoYJ/UCr6eXLGBB8J79TjJ/PHTTAEHERwIMAvLeEQ5G2xQWtokv5xFxHG1wxonoFgHjAUfN9vhf3qEA4i6H0x/WMu+OL4OAmHA+jilUj4H169ySNw0jRRzx9P+p5l3+nDRR/GCrmP2fJ4jxyvETaMppXBDA5B6BtPB7axQ+Dmu3HR96n0Clz0sUE0ZXlgBRb+eb7InWcfpZjOsR8uwZxYNvXePOQIwNh88FoM7oDx4s/rhgbG7R/v0eMXHPEqJw2UzZDG8fgFgF2kYbz43g+D8EL7x1NGvGIS+xiWx+aIAIzv4GHj56P3Rj8MeNz54zDhj/nhTKhkic2QkocAiAB0Z7n4igdP1w0Vxu0fGxqeZLCPnGvHEPk4nKB/PHFHAI4Hz4X2f4kFXtzIaW63WZbTIOWY4KfoH7q4+PQ3Dopwof1fYIcO+n7sr87D73Dxg/Xnkyfe9MIQFtI/5vFd8z18n3jU/Hnxgwvk7beyAwgOvg1SC+sf32WyPw+an7RxDhHPkMfFCW744OILfrczvm9X5CALmf9G23cQe/BKy6j5+51Xizt46ouLP8SdxfaP+vi5+vkOXs3cyhzhg7j4wQ0QvPXBm08LmT/m/G2Lff6kZwz/x1jwOtoPLP4hDuMQyhiwkP4Re8++Yf6DV5w/8vBBzB+vnePJD2PAQvrHD4V94/otNherPcb84QO4OYiYgViJ/nkIXEj/2HP+7w35hmY9T28PTEvM4+IL9g8fxN7PJ1+NDhVRx/Km7nXB9nyRg0B+m+0j2PvweuU484cP4iJlzR1b0rY2ALz9wYtfb9o/rPHS/qj+8ZUe/LkQplC9mTNk5MMHsffjRhVueiMO+ESoQ8XCHtX/peu2WHum5WAVyrYCtayPgfvfrfZ9KNz84at3lDcDhb6NZVT/59qPl8QL7jD82JTncebl3o/4s3KR8Qej+/YNW/xmzjjzZ9zBj4/B77ezi8+B8QbGqPnjwc03zfZxUctqpA2eyFgCnxc/2Pvx2mN83Zg6TUOoY5Xmwx9P7vFryfDpUfOHCuMOwgQuPuPrxgvpHz9kgz9V09S1zLD525R9j8BNP/g95o+4M6AfGKPmjxsobvs+AKs4T/zD0RhnNPg+vhLicafu336VDU14wjjqPHnY9HHn8irbzBHQmCgH7UtQpQ4uvLEI+BML+OIxJJTl0vD+cfV+kwUQXHACWPYX249t9MmxCLjzuLt95wGv/03SP747gkNEfMrU1x94McXx+XvPNn9852KlDSbKUIdY/Owzjk3vPfkj6cinHtvwYPi404g7PqyHOsyDIrGNvvlvuOma9JYX/lj60gXX+HePhtWt24Eenhx996YtvpFBzlT3V48gH9MwVzt825o/bteZdOBOeAd7+PzRdmw3f2k6pe/cuMUv+Dlu6DEPihTroRzl+MIzfur5AOu/efWo6ECXdWOePNjemdduaQ790EGiHDSnLofzx58WefxuK/xn9nnjI44NdVkz5snDu9voH0/SWA96zIMiUR8UCXy73k+PsTkfZtg/egdwW7+jfuZm/ZiHHPgj6Hzj+vJ6HRRKYn32V48A88cF18E7p3So9f9I+4lzj1lWf9jY0XRsF5vO9+2CC4EfifViPku69SjHjzA81vo+zNZ+N/O9SfvH5vU92/TPK69YoF2mOM7M63Iwf1zw4+f9YXv4sZ9J+4fv48Dtr9ZaJ5POHweux9tPXD/Wfmp8ezuATNo/7tx+3Wyv72Zfd7ZAoMvJfj9j/dvP61v/OIBO2j9unHzN+sdhott6i8V864/v+mH+B9jPXOMAMEn/2Pdws+UHt27xC9m8xu1nPZ56hPR/ULx6c4jZwP72Jy/8594DWmiRbcU8Lnbw6tRFt2zxGwnUAUWiLcw3f9bZx35wAf3vaz7INxAoQ1t9eVxs45VqfJ8Th946sQ5oTl0O52+oJ/u6udsA/uTHuPEXB1f8UA76x9OWbuvjzx9fy0Dcx8/t7204bGOHkWHYYR7s5w478OEHK9A/nqTUiXqgOXU5nP/WK+Z87gda//69tzH6R9zFmwPw+wst/uHc1W19/PlvZze84f8H2D+8eounr6Pmjx+pwHkD/eMNF9oYZwpaj6fmcP47bJ3/zAL2IRyE+QYE68e2mMfNAtzkw/fVMQbyOW6UmefY2B4oEuU4/OLPHKF//951kNV1UY/t4IeL8GuV+M5kX6Ie+2trZg7m/yj78xqP3SWlg6xvXABNEn/wXcJv2bkn3mzinDAe5jm6ejzg72d7/uN2yWePSeIf7A9Pj862C06/2dQDQN1fPf8Ze9iCuAvscfbABdC48/cf6rHrjbOsf/g+Ut3fqPnD7w8xm0fc8x9cmaB/2B/+PNy3bO/FjbO+VI+nHuE2dtMVfof5r7KzByYw7vz9V+Lt7Zbv2LkHvo9U9zdq/njQhnMXMPAfesIQvnHDfXP5CVxuFI1gUOgEj+rxSBNP9+7CnyrIKp1POjVDwriDMtv3jQ+vXuK7UrYWnmL/+Dlu3LHCXTZ8WRep7s+Z4WPc/vHkHXegMXf0j6ttJPRva+3z9/5tDNh4+AVqVwof9XjG7R9X4dj40T/ypXvv/5XPflp64/s+nB571LGOP34p6B7c4bSU+9uUbr/lrrRy912TVe2k+fq/5fpr0ltf9PT0S19e43f+HmWbP757hjH4/G3euJuCf9jggLs/KbXAc3fBv7Y6fqmbtw7m6x8DpRyPv/eyYIj+G/xL37A9XNwAd/SPX6zrzh+2aEo9ie2DIkGLPJTJx8U/gjFswL97atEBF0dYe2ABDHCHHk9Kr7lzS1pnf5vQExsrxUnnjwsQHHr2sX/4myt4BQa2jz63mK1j7rijBuwR6HC3/ur1WwyH3GFtb3lQ7Se0OGdwmQdFwlrva33vbWuP/nEXNvZv3forNMAedwxvsU33qg32i7Xm/56qDiadP7De1zYBYI/+8fTbW7YPzB+v72D+7B+Hjqts/vixAKTFzh+bP+aPv3OFH33BL0/W/SPm4AvymD/eKkD/m+2HijyBEFRkLVjiDvq49o8DF+bvtm+2h1cxYv+YO2IufB5/kBU3W/CqMH4sAmkx80cLuPHx6B1W+A8e4Ivv+EVc9o8/e4JXozF/2P46u9jCpo+7/EUrk1CcZP6ws33M7mD/uPGVn36E/kvfiD3Z9+xGm13w+C9W5lEuav7Yc7DuuPmGNx/wHdkV9s9jqMng+46BzR9PKjAG+N0W67W5VwuwFjh/q+mzQHVciAODHcz/0T+/J4g9N/u/9Y8YgB8OCf0zD9qXquE1Q6U25cAe9o/91yBo+nf/M/zxpgJ+pv9O3/enO3+MG28/oH+8fcP+Pf7Z/GF/jP3Ydzhn1GN+MfNHrMX+g/5hC7F/zB/+h/7xVB/7DvtE/80CAkhLk9g/9FENB1HsP/A/vALK/mF77B/+jws+xJ3YP/OLmT/ePsABFDYAH8CYYH/0f/gf+sefg8EPR7FPjH8a88d5h/373oP+7R9tn/6P+DtX9c+xLGb+2AMZf/D0G+vh+68NAuPB96Ixd/xIiP9wj41uGv4PnBF/EYNw7slfu8lz9zOnrT/mjt/DQP94Q6r2v8XMH/PEvo+bT+gf64AE7NE/zrvsH3sP4u7Gyv8Ws/6wO/xdS1978z+Ukdg/9h5cXMH3cO7C/PEnsjjnrJvXYiHrj3Om7z02d7z6C9tH3/iwbn3vQ9yH7bP/ado/vubGvQ9vfmA92L91m+61D8RdxH28oosnltO0f/QJ/Gc+fzmOmTBH797opIl1QZHQDnkoMz9MDp2YHmj6cWx9+VHjHSWv25xJ7/y5p6VfefeH0yFHHmvCGk9j3fnt9NIjfjy99ezN6ei9xm+fF30vtYs+HFSR6k3LmRN8IBjO55Sj5HVXPEBzfDbAHJFBLdVo1Pqj5jOpfj2+ujxqfqPkA+2VCwjNP9un1l/27ycy+b+HCsW/9kQBQCaN55Pq1/G5Lo+K76PkA+0p/jdnEsdG+7/OPzirKv5nd7BPnvjBmDSeQd+uPS25Y3mu51QNuf0rZ7AmD54nZkjBDHl7vJvrFB4IeV6//mBdUshjfkJ9ItSM39pyXmmT+UZu7Tuv9MP8MHkztjjGkOdcQZFAyHNG/UE9o8XQB+a//b7p5Vbtgx/48/THb/u5tEO5Y4OWttl5lf14R2kDjHr8ZOG2KvLYZCwPilRfNI0yKt5xIfU2Gkys5P3beBr8Sr7MbWBTnMO3FmxMRpvU4ABOvshkg1kv6jOfO2S8KNNr5oo5e2uaf4MJ8ND6251E2ATts+SH+QftntQxlP0Dhpzk/zmOK/5le4Bf0SaMo/if9zPggIT9TPsf93CHJPtPyWr/z/ai80/rL24TzXmRtpPlOPd5yMnF5qzzcD7/zTbnk3Cd0PAaR5snAzBRt4Da5NleTdEUecjX9cGLiW2zTq0/qRxts62Y7+PFcQzLjxoP2yWNfSJf12c/4EcZ64O38YZ0HvRO+c30JvsX00v+YW36+SfZF4igh4R6bIdtkEJcDrekXqXwkB9MbDjT2qk6/Vllv4iwAQxtn2MrzXLzI/X6nUM42rQpFX3mOeS+8bhumHNcf46LFPONec2/RqAAXwysD+/G3gqW+RDTLkAHX62/GZwBJft3Q6Pfk8JWuhfh8n/GPADGvOKfm4/vC8TEOdwr2vCT/S2rN7E+xqSYL2qBKP5lMDIOiv+tDzoujOXF3jx+6fzT+Bkw6viX9v8cj5Zx//dnQsQdC8J8GYMvUH1oi4dmfxkcDLwU7on5YvVVi4Ptlz6p3pyAyLAavqOV9pkvuxzH1h4SetrzseX2XN/6aPTDnDH8wfGVd4hLf5yiU3yw7anOH1O2ZweduYb5b3tEesu3r0vrb/5huvKyK9I2+x6Rdrl3Q9ruMYeknXe2Cz4Mi/A1a4NnEZm5BXcT/UrI9EyXc0Y95ktv9j2rrAvK1LaNfnKNTKFhLRITFK0ffxpX+htsH4c6fJ+LA65GhProu9RnPt6p4RjRHdoZaC+MB/PW/LX+sv/s4ZW3yf8thhCTHE8U/zxmKv7DHDxp/yMS2v91/tH5DzvGg+n8a693cosDRaksolNw7NAN0pS90HxkbV5CRb14qGAbDo+3xQuQwYuw3FYeR+4V+dxaHh/7RG8cW6bgkJfzoz9RM7cI3QfC/POYMaYWi+78Z9NNZ707ve1Nf+GqT/ndf0lPOOMF6a+/9fr0gfNPTvvll3ZzM6M+sYPhKqnsZAPzN5mLoIPUhatUtXFygM1KZYaro41c29rK/fFuDw4UyDeHcLtAQ1t0IrQy0fqjLvrK3Q+MtwyjJWU8eZK5L3xmHNCO5q/1z3bgRuMGbbli0LRV0JyYydTVYUNFKvs3JNynMiLyf8U/xX/tf9r/y36h84/Of2YKS3n+xQ+alUN3PpXkAJx54ORDTaYoV2fk9jAD4ZDEAw/EuT0Euaxc94fDej5kUo5KhdfUHz6eXCuvgzFgAABAAElEQVR85gl6G+DmQ1ehVh41nvtj/nn0QA13EDDIav4bz01/Yxd8L//8mnT8dp9LH/rmqnTCZ9ak9Mr901+f8ivpd3/p8NwEPqv5UzBXnqz5/MrTMcjq9air+/q7Xm7JxxfKmdv9HFj/2F95ksgnd1gQHxsGZslf1bYsX9nO483rRjl5XsEt0kedixB2nhTaaLy9PKpcd7g9eku5iren+bcm5fiXxaUdZNC7n0XFmQN4a/3N5GHz5Um652FwsDzZv/zfjMDjlZtD3q/aFx88LmafynKzmFyBOzOEin/Bn+Bb8KsclTJ2iv8l3Gj/t43MbaJsaIjC3PPhYcwXsZfJB+1L2dKyZMDetP9p/zOjWM79f9aNF0GQlsk8rN2Ss8HLxRwwkS9ysselA+1ZxabtvkbYD8cDZYyHlZin3nxtQEa9Qh+s81+fnpiecPTeabsfGBYb7beNZ/ZOR7zguPTXt9hvnHOOxKIuBxzwt1hw6AR1dsk3d96KLuF27EN9rzTBh7dj42naswZLz6GVMGBmCx013nbyrGjNItIyMTtmewPjtXrksclJKOvmOaOm5p+x4MJkTBpMyR5zvbT+FWAOJ3lubhnaMfEcsFerR16zRhNkWDevOSrK/jMWYY0QZJmYLVTxb/79Sv5fGQzsSPsfvWnAPEb500C8MnjJaxsdP8e62edRT/EvY0G7zZg0iJJd6Kj1Glhgb46NONy56THbG1gvq0deM8YJMqyb54yKy7/+5dc7w6g5GtIgWrJs7It50r5Oo4x50j79UbxYl3nSUXWnIY99MQ/KfN3H3NZpz3RhOvebV6U9dyrCuevSBf/yH+kpL7K/gj20XtbN13dUMqPjlS/EzqZll7YDyS8+wlBLfRA4UNMc6lqBGw3zudNWF3Us4QVWf7rojaCqbeqF5wo97XeeBHq7nIPXqD44uNKhD5Q8qLJukfs8LM/5VK1p/mV9CFDP+mj9DRTZf/Yc+X+2BcW/bA8MvSXcMtaDIin+a/+jTWSDsE/aDBgWV7X/t/sLz26ZOmLVB8ErDqfzD4zI/vGA9/A7/03y7a/KmFS83xDY9vD0ij97d3rDLx+UvlgG8UsfRuZl6fc/eujoYeHCqsSAfBEDF8hOUK6h/Nze1xDq+cbM+kaR9d9KMWou5HlQT66HIJWL9Rlwrvz5CqdeP4+lqJe2Yvs5T3lutf2s20drOWU6MH6Toy3NP+Oj9TdjMINwHIrlRDJgP6br9oMPS7J/+T9ioeJfibvuF5Yv/lHHZ8V/wwb/lz/pBJiwFxW4tP8ZEI5JAYT5UvSYGz9q+3JwXSHb40D8Llhr/8/4aP83YzHjeijv/7roixHjQZTf66d+J/3NWb+QLvj2t9OGDSltt8+h6fCnH5tWjrui2cebzYVBFOz5/owgnYEUkJWmetHz9oKOB21jNv2VPNtjW6Sub/Ub/SpI506pDT07blljzZ1j1/ejeFe1VGG7pGBr/sPXtFmnFnKtf7as3k+3J5MQLrdnKzT2VvINrqWVjr7xGn3Zv2PBQ1qGi2jJ/xX/FP+1/2n/1/kn75j5BorOf81+aVul/ckG+8SeyVNF2VIbBk4j+fZI3l+hF/R9k/GDyBCQc62hn6Pqj5I3Y8GYkKrxZWb45NiH6lcN3A/z52ijwdZOfPd1/zed9ulz04//z99Id33p7emdr/7V9JTf+Hz61Te/OO3EObKhQrnwoDxkDuJFB8nr6YoTrP+WYgugTG2uPfySh3mxDvTjnHP97njyHMjzCu2ao1g9OUQbuQ5yli/YaP4ZD60/jML+FXNHhjbmCE3o/7Rl2T89PMNbrM2hRp5S+b/iH30m20U+sLcxu+uP9M1GTt8tBqX4b0Dg//LkkJiCImn/MxAs1mv/d3Noz07a/xpAGGOc8RDc//2Ps/uvxzVeUKJn2Zb9ostkzUVHyQ9/h7hg10CYg3ZT39r1Nkv7DN6kqNaX7+NBd3B8xY45De8HFp0ZnGvzQyWYj13UtPNhxaJvPXTunC3D/H2s6N7+cd6kmPNcWpO++Mzj0+nP/uP0Y9d9LX3iXR9Jz3/vx9I973pp+ttDLkyv/ZlD26Dm827nj/pgPZDn351rXoc+HqbyUFz/vrn28TR/rb/sv47PD/743+frfTz5v/xf/i//755PFf/8tJuPjRYikWnPvzzrP5zPv+2fbMAOYqkLEcrzH7oXK+dygCLV/Y+S9/ef28Jnro8LzZyyg1g/dvGG5HK/kCty8nLxfpl/6dpJ7/xvXZ1Ot+/vfehjr0s7fOMt6ar07vSel/5q2rDNV9Mf3XB7M2Y0EOdPDDjnRt6Z/6iLcguy9mwut4z1yvlMc4vkocT8MPng/Lr9+6ZmrYDm9rryfutkqxhlHm9Tv8x1+PrX7dc9aP5c03HWl7pa//InGYo90n9oqdm64S9d+5P9w9/k/038quyjjk60IFAkxT/Ff8Texn60/xkW5h2GQ/aPnB8WfwfPl9r/uacDP+aH7e+j5Nr/cqQeZn9Lsf/Plj9XU7YI94NOPnPaT77pB4oE3yEvc+b/pC7ro3/kOQ5vMzSRXTMDQzZ5KNft1eOhLinq9OX7eNCt06j+av26XNfvnb8NBuPBXDguUrQ3t9XKtF/akDZtWJfWnPKRlH7rzLSd8a+/5QqIPZWY1qmPvsDHz94yMUcKPgNd1um6ZR6/meLU1t8OdNZYO6Z8yMNxpR0LeXlEcXw1nvijlhzj8Pq5nSxnm5EX0dD8sxXm9SC2oEgwJa5B5sz/SV3Wr3+CGeue11fr7/i6BxOTjK3sv/XP2p7k/4p/2Sbmix9tjKIlkbY+Rx20A2luj20zfin+Kf4zBtFi5qPUpf1o/9P5b7nPv7O1EY4KYvkOiR1CmgsH5mNQzIEAxg89PlLN5RxEm784b0X2meWTBZF6POwLdJz2Hqjz98EP+9jpsem4Y7+S3v7kr7jGa08/IJ1/8tHpA5+4MP3C5w5oMJ/O/LkdZlrjjc1wjn9B2Tqcse8S5PVs9TPGLPuoXAc5yspylbFnu4E8J46B5Zay70zRXrbH7vrnMbW12lzuP48DXNoiaE7McPygtHloaP5cA0dD6y/7NxdBHEDK8b/15+xXrT/K/1uM+vByEP2iI+fqT/qe4l9+kq74r/2PZ87sTzkWtft514O0/7dnnhavzMtI5ThuHC/q/AccHtznP/vj7PUk4oJjejZB+w80py6lDBQpX8xhU6det73cRvs5af91fxhhNsjcX3ZuLAr74FjIqPUfqPPHuDLunDNmlPOr0vP+8ob0uPPOS5t3OjQdfOCqdOUTXp/eduqz0xGPXeUT759/waCsubdX8nkdvGrADgGzu4lkvKFHvOe/qM995Hb9swt/8zd3/G/vFLV27IP9Y5wcU1bvNugzNNsrM3XjA4rtpCp9zd9gzGtc4G+hgkTrb3hkm2vtDTnYEcyqa48j41/X/GT/5VUH+X8Tseb1v9resh2ibrFHN0rFvwZN80/Ff7MN3+dgHN0ABHsCL1PIg6rlFf8zNsAhpy6t/VHxP9vX0PN/1/y0/90P+1/5gf8mRBbDbglCJhJpK2lzXRnbIs21o3bOD5O3mrnmYP/z9wd9WhZaQL79DhpmkhMpSjFfxIWwL9KuNJe6MrZFCp2+fB9vsHW27XTzxrRx0+aitHV65GFP9fy9m1J6zPNeWficK9sfnD8k7Z34nG/2hNIKCTcDUvIbas27DN0goSHk2SDzw+SsA2qpvvOWX3+oXkll217B+vMJ4cOS92+dNTrIE5N2rpp/xivDZdZV4Msgtp9cd9JWUnIOtVUetr7geydFn/nYYchr/VsTBmKyf1xUy/9hB0wdX8QTVYjKk1XFP8QiD0oFLuQV/xmgB9/EAVyK/8G96GZO6WukHSEKbmqwuSJBQ8izQeaHyVGNupal6YIiKf4r/k97/8sXfb5pZCMb2DRqK6Qu6DjJjd4UO0ZvBRr6yParDkfpuxz9sUMMMuSr5rKDBhV32knGh/bnSeiafUJtnPZdr9RrKs+ljav/d3r1z/82pD3pmemX/+Lj6XnPOKj0F+Yc519q+j5oeYfL9kTCheDGu3uu6go2gUYBlewf5oRU08izvKuiOviWvH0rNUG0ap/7M8eHDnj3zBuo9JvreezrSJD7Hs8enekifNTte3Oaf7u8Wn/ZvznFMP8M4Sj7lPy/i4MHmczCp+IfYr7iP3cj7X947jo8vtT7s/Z/nX90/vNdJG8qUzj/ltc7rT1u3mgaUbqkgRuJpjjjr8+1OtTtpVQjhVJov8l3eHVLoTL1SL29Vp9jA82iEmTiBENzDbvDawv3y/xt4Obq/l+eWR7P7L4vSu/57E/YX1fM3OZz823p8q+cnP7m1x6fZv/hhvSsJ+ziawQ5WuErujzIOS1TJIykOKX4q1Zll1rs/AeDOJa/xRcjxP/lA5lO1mUcBIVRn00Vyg2FryPH+bN6pBwKqeZv8PsrB45S84fqsQRIjucE/q/1N9Dcpxw+/5D902kBh+W9GHghK/83iBT/io302AttpVDF//I6IoKOJe1/7fmnAOIkxxzDp9gNqfZ/w0T7f3OXiqH3oXT+qS8fskOETwQNJNI678IJPngBMvRQPkFbfaocJyl0Yr6vznw81iVdbHuLmf9WOx2YDj76wN7hHnz009OOd++RTv3mpXbRd0xnznHsXhlLWi7qehsLMj+g4tDaRMUJ8URbob/e+ePJgisF3RKMfZyhftPWEPnI8Vbj0fx7END6N6CMtKdGc0imsjfZf/b1TvyX/yv+Kf7nAMK9bsj+pv3PYGJMBWLMlz1rZLyu9DPo1WdpC9yR7VVVB4pVf4r/iv84696f+1/54+ww7mKulZEOGPEiGTzck6K5mK+br4dTx8Raf6BcVaifjmLe5HndusOBBhfH4FxJ0VrM163Xw6mmE9R3SI85+pkprd868LzxNjCiMpJNujE65HHoogHUHbq+1xry0VchqHq7plPa51xJMTj+LZdcywbpT2nzYHuf3MYnTc2cYp9VnkM0tgddzNn+Q8K8NX+tv+y/OBJ9JbuH+4g56Dypr0JQl/8bGIaR4p8bBeM+qeK/9j/t//59lBI0Ldjq/GNY5E1H5z/EBzujuk0AlZxv4if3ZlJYUZ3nFm0inHtnfT+CIjd5VAhKTX6hcrQdE9ses73qzOBjI8+brccb+0K+6s/xMF6DC/Njjscrss2e9gfkI8YzoM9xlHqcazkzzDP/tWn1aV9P6SfvDZOr5l/ahv00RsN8kQ2OBwqGFq6MkZjngAaff7eY5xqo1OSaK+yh7bGPXGXgThsvUIfVb3vKOQwb3XP4KGBKHBPzRd7ocsjoh3NGi8xr/kDDsDSgHN8CmOeNX4quEwsj8URdq1zWQ+ufsWgvSssFuuy/mBbwKT6aOd1P2BFskfaEAtRpk8wXeaOLOkhsexjesv+CbwGMWBM/BzEURuJpFeT/rb0WLOT/xYbMfvKeQIc2Pm3Kba36gBqqUh0Fy8v/iWfBouDTYFXEDbaKf9mw3B9hQMTPKLLt+5/Z1oif1woF2upQPK3CEsc/e9LnI0ZPPrzsEeSVAbiXDJOXahSjGPO1FfEuRrlydWXyvC6szxpo5FV7HC9Bb8ZGq0UjIXEspEGUsxCUPp3BBS3tjeqP7ZKijZhf0PxLG2yn0PtuPTd99+xLUtpm29CJjfOem9NFnzwpfc1Ev/XeIzCCNsU2Yp4amB8NETzky8/IusrAl7KAT7gz1dsmGweFArAsik7soxQ9Q56rF91h67+l/OoKKJKPt/Ayp/vJfki7UuveBJp/xgHYaP1l//L/7AfwB8Y6p+4gLc/l+LAU40vMK/4ZOIr/jYG4bdhHYyPMFwbPQtr/3K38o8HKStr/yx6t84/bhs5/rU+0HtPm6DukJhn5JxtywEYbCNxIqB2CuPPiB2XUjzLk2TtprT9p+9PQ51jqsaLMeZBO2l/dJvsi7Zs/6kBOndzGvTeclT7y1rfkQvX5+J95a3rT+05KT94vXhBCqW6fFUvbPi3Lc3qsQrVGQAXUY5uWrYrNBRScEWlAbgzn4QOJbQ1pPyu1n96u1WX7aIy8VivkRrTv3aKNqkpTpIAU40YetJBQ1PwNDF5I9+JjuDmEBb8GyyH4Osjhg2ut9S+gGI7EJMDUZmmcQ/B1Ntpoa3TyTYEKvnimXNavKsr+DSfZf7HJYiYwnWIuA28GyP8DSJbNwTEABl5I9HXFvwKKGRYxCTC1WRrfkPjlbLTR1ujkmwIVqoBXFRX/DCfFvwd0/JuFzXYTOaRdaS6NI4s6MV+3Rxkp5DH/QNAfNoaajzLHThp54+rnVmILqLnt41+bPnPxa/saaXh1ne54snSOd6+bWjGDO0gIcPlOEmqgxHb9O3Em43fiTNQKPV804fhMA/kSGChvWicj1CWroZSRQlDn44gpI+XcQPuS5q/1p41ky4rWJPvP30GS/4f4wdCCcMJYRxp5Td7qRnknfrkSPoYkdkYKtTofLZYyUsgY4/q6oEzxn8hGNOX/8n98B1HxD15REkMLioxrpJHX5K1ulHfilyvhY0hiZ6RQq/PRYykjhYwxrq8Lyh668W/kr3f2wSLegx2B4LADU6Es024JyvwRFDpR3QBqQMaazFN/fvmgNjYZ9om+BjVaHuTslxS8Oo0jyzrUJNX8uRZczz5suUaQMU99IEneoJySVlvrL/unzQ3aS3tLih5aU9SpE3VqPsqUZdotQc6x0ELBiwk1aMXgM0/9+eWD2rJ/2T9tbhx7GrRY1Oom6nS5uURZpt0SNDgW2nPdBmrQirN+66Mozy9nTbaeL7LZ5zjtDY4YtbqJOl1uLlGWabcEDY6FI6zbQA3OIuu3c0Z5fjlrsnXNX/Fv2vHPf72za6QwzJgGzbCjP78Nx4b684ut3zhY6yad8Q30OmI+k+ovdvx99TEGDJNTGhhTZEwwH7bnd1lYqAcQ20a+r33eDTFxXR1tO4/tsw1QJPILpS6oJf8+rOX5vVjoZxHrQSvmOZZ8Z2ZwQNCPCXW908JkPvcSNXO+T599hqZYXfMv8MY16ssXnsNv+YKf1j/blOyfnij/z67R50PAiLFI8S9bjAcUy5aAkpnhEzhSB2zmJ9En5j3VFf8LpMPslfxCHX7LF/gV/7NNKf7DN5EU/7Nr0G8yJg6NfzAWjR///fXO/JP1uRn3QcsWH7SM5dBfeYfcY5rlQZFgnC4uZb8qtS8hg7rcdW3hSv2sbBLqW0N+N6M0yDxoX+JVb9O+6ZHX6vfXdTnG4QPOOgPzMSUXs7FR+qbs+viw5GNZ5PxzS/2fnOuC5+9jtI+yHg/E+ePXuR7O66/5a/1l//0xfNHxb1Q8L/Gx6X2U/hLEf/m//F/+33hg5yAk/y/nZT912jHuIXj+Vfxb2vg3665lG1frYuywuYrJTleKHow6h/Kufg5W5GEHLXlcXTCF7IC+GTN5WR0jQ4U8Qo6TFLKcD42yH6eQtvU9C35R97qW77bHOq1eq28yzgntmCCOl/lMIZ58/t6sd8hxk7bj7I43jyPXqz85l7aGawybP8brB52iUEgzf8js1/2ai/hR86cufhEQCcPgzQkv5vF18Ir9Mw/q+k6q9QIvjDc3WRStANsr9alG6q1CnLXzerHP0GyjDxnn5HVGrD91Nf+yHka0/o3B9caLaH/Mg1qinZLC7nNe9u8AAQYAUuBwv5f/GybFYohLoc61fJEq/mn/y3s7fAapthfYEfe0osAYhiLzzX5OXe1/jpY7mva/JuAM2Evtf9r/PCYzfjNOk8JBcz74Kxj02wo/8O07fZRmm0SpfU6X1ybzsrzVj/X68n08thEp9Ugha/P5zg44mZfnw4lClzPMU891ycv1WKdPG7yY0Mv9P/92RNOcPzHMd1LaPmLO52+OxxUgkkS3XZuikSu07KYmW7DWuYHEjpiHzDvp1+dYQZG4ls14aqP2/rMW9Pvr53YgrxN6mdH8m1X8f+y9CbhtSVEmmlVchqKYKWgEBYpRmRQQpIVGW2lsUEEUUYQWtW18iCIO+PTrR9s2ioAKODxxQtB+tLyHnwMOgBMO4IA2+NoBceKhICiUUiIgVNW9L/4/4s+MlWvts8+599xblyKy6q6IzIyIjIyMiMy11j57y5Ld3r0n1ssNVusf5hiG6A3l/xX/c5oZ9cp/lf+ZZLfzxfb+lc4/tf95foUdWLghGeb23LZf7f+yVhitA1qvzj/9lMPQNOsMeylOA7rB5G7d71KD+2e38IRcDfl/49s7F+r2yWuqbJAloL/wbpWpgZOyNsBNem8+6NrHNiLhgv4WBx1ZvuFdn8GDMcQniLa55D7hgudy/hpTEHoKFzzq/DXXzq+GBHOf8A7tKRX3GTytsiK859zJIZh0rROQ9HahS7AWFwnPbQnP3cI75JNEkxlPEl0f2xTP0vrji099DFdQ+Bhv6f81f6xFrX/5v0cso8PQFJ4jqaWYz6hiHW3CO6z4j3zkFvF8VPlv5OPhM1v+k/1MuHxri77yf+1/HmPuLcKHv9X+7xHnGb7OP+ff+Se+yEXpbgMufXjs1tq1kSFFQ3alTEFr1A3ZhvjVTdRMI9k7x4P8mSnVV/qlvsOg8/jSQ3AlX8oI2iCnO/8se+d4kH/ARLKMoGMgBkvu3pKiA7s+zqnkJrgOan9LiLelvRwwf94A2tx2kczjr8dzXpkHY2Z8lo8+zRm0wpO2aO5lHl/zFlzrU/N3myaL7lpcs/K8Pt3wgcz2X9u71p82TIYr/x/GmP2r4n/kPFip8t90fBmuQ2zOP8r7gut8VPm/8j98qva/Hkq1/3dTzMi8P839c/5Z55ujn3/2/2SDfFdw1gr1g/pmetEK7uMX3S447+L6vHS8ieIdgNpmXQ5Tn8fd4hHNVt/cJlpB9Gd8H71oBU9j/n4o1BWC8MlqCZwUMK8k5Y7A5WeySePyMBl9ThuShDu0BtGGPJftG6+PjBbXifWZnmraGFLXdl98HFOv9vDGj4GyePPXu00kNBnyhdf8ZVBfhX6l/a0W69XbA+G6ao3YVuvvvu72FO7Q7SibwVzl/7BJ2AEGoUVGfK7yBc1a8V/5j85i7mLRVPmfdoBFav+r/b/OP3aaq/MfEyQeTunTCZ4xL8Df9OE854GScbShHOpOE3Sk3rhwVOzqTqGxdsnn4VI8Jk7bv2vjYlKOPwTBUrl94x+5P+m4MfuVwvvk98M1JmwTPe75Q6CL9rtiX1/7sdFDrs9Kf5PmOuKqknAsOxfM+5wfTU4z+1f3UP6AvOuKGzJJlGuEukN2yIOf8cfnNR8MC8f34dmnObMr6Gv+h4vPWv84VMh/wzeXDw3kbe575f9mD3cvxj1Cs+LffaTyH/L1OH9U/rd9mQHi+zO8pPa/2v+1o3judBfhkQb7EHJrnX9ojjr/7T//nmDCpc/EJhR47NE8LRMPr/On1PCzTpEwt3u+unxP7GrXhs+6vFkQ0ohLPirAg8B+DoE4ITDbMPJPJBgZOYKcY6QLpVpfl44NBxIjaISrH8KIh7xzN38oTW0ShKLRdjrzl000J4g72/Of3rzZkN3WwFmkFys2P9ZpdWtBRXZAdZo/9R/+xd40P4pMF0pN/TX/s+z/tf58oKInj3BF5ZrulvR31cxDWaengtr+0audoPzfbaL8V/Fv3lH5TzHFSEn53YNmXBlVqb/yf+V/9xkmXc+0cSai18hXvJuxhpR86PNv7X+1/+HFQrx5hE8pV/WsFL7ldfNG1pmpQG3/6KHefQz7v/9kQ4h1qT6EcN5UWWU8a1GPQ6mzQ8VQ1xPLklM19fnMpymu+Gd9fHzJgEzhh5MnvQUhIePzeOjPxccfPPv0z7yOr/WVtfPY0im3gd/Hlwy0CF/P31uMwt6i6c2W5ApKJiCKaPn2zJsW1/lJNTdROLklThTvH+MtmFkxfTl46IuEewD/rM9Kvua2eFMIq3iZ6TVvQVBlfB4vxHQgXQFRav4Hr183XEdq/cv/GTn0iH3xM8fjHM94U8RYrPh3e9oVmanyH82x2o+U6wVBlfHZ31zKuFb+972+9j/3mn35a3iOsNr/av+DL5y78+/mt3fKHQW1YaieofoE0beF57bMv4VnWuGCpyN/ize3bemQ2w6iVZ/g6eiXx5pxyRU8HfmZd8U/3WTN4yOZnwyaua/LMpo+hnCPZG9XmzFsJ0W/UXB5kTzT1mu9fehTkhuQPAmPO0jcbZIH4wEnDCldV6vP+gRJBzX/Wv/y/xGfPTACYSwhvtQhXPGHdrUZOsfb6tAcsb6I+Yp/Wdc+6BB5LSA61EYitYuu8l/lf/OF2v96hhq5CrFT5x9Lz0v/YB6JS51/rnnnn/UXucQmYdHgy47NQ21oQTP2nRFDaE1lJhCxb1adN6pd9mHHm8St9ZnGn/VPmm6imuth9VkJmcafJ7zS3+ilI2QBz2WPuNOZP1WI+QnXqJtJULYwvWbzZFUdP1hhTpUfeQjqk/5k/pRBFCag+EgE6nhg7zyoDVPJTGt9luO7vPGmkfMzOdoEa/5ui1p/uhf9YrUJlv+7cRg3IwZ74wJZxp9Rg8v+uYdV/COn4SbajYa8pxyFlsp/dgCt/E8/gD/U/hf5xo8HjBvt+bSPpRbmFKQYFuUab1BsAaLU/u+P0+r8E/6RfKL7h/mK7IM2qxAIXfpb7wpk6X++76lNvnz15n/7yYYxoa5+bhMuyJl3yh1Ilik84FSlgIVs0YnQKBLa8a22rk3qlGzBTnMAkmmFC4Itid+WkgmEB5yq5F/IFp1BtYsnj73V1pVJnV2G5DmMMweHyE5MPB9KjB+0CgLH3ZX7cCtkjD9/HLXbbpCMeUJO1teq1NNou77TTSA6+EmuIADQmBAHeewKuUE25EG2NWrYmj/smZJS2K/W3x2W/pX8kT62ujgt3c+8kTxyfHUJkihV5IjZX61bfjsfAtFR/m9GDAPJ1rJXxX/lP/pCjqfhLsz7lf9r/1Parf2/9v9r+vln9fFO3zT7HoojyaLgeCKaRUdU1MdEa20f6vTzHM/FfDAmxsG/uRyHfSlbwk0gE54WzAaM70joQ4sUDXY/wJskwK2iDRQQRbKVVKe/Q6Uv4SGehhceD/bcCOiM8SBXOlA+eK1N6szjbemjNvBjYPGwbpeavyzhULZFTbav9V/aSDX5FiCKfKv8P+wBu5hDKcZQVcyDQnjFP6xhBcEXNkMVfqUYRJ3d1qYYnf1tyx/VBv7Kf2Y72ZgGsTrsnYpsiybZvvJfMlBC5VuAKLJt5b+wB+xiDiUfQ1U5DxTCK//BGlYUmxGE8CvFYO+2NsXo7G9b/qg2ygevxmDDWJuodtmoa+wP5fjnxzvheN1oYWW8Ldkq/KYw69O3F8le29S+X0EOxkA5+/Sum/SXXoL79Hc+e717Hsxf6yLoFlxeZVdB6K05yt6C3gcnT+tnhqH8MNCh5p/5TfhCPxk6IPWKMahH4Aw0NExF8xCEGPwmFeBW4e9VGbF+t4pztIzq88BcnUuQtsn6Wz/GUn/NHwYb9pttvrIfqdP6aKECch3DxpAFO2d7r+V7C/lAb/9q/ZN9J4OV/8NB3Edgmop/y+2V/yr/M3N6vmVc9HzsH11DHld7zse1/3HH6f5DI6VL7X+T/5ht6D+yUfhZuJ97mbW5t7k/Zn8Tm6DoBLkadpFY0QnW/meWMGMd5fwb396ZbgJcRjcyFyjaYGhuqgFRR9m1IOqTDNSFA6JwUQOyYbrso5/7PZnl+TjuyQzCpa3DNf3QEdSz/HMxf2iGccZYrgf0me0167eezzx/SEE5f+fv+vl1nt9808B+mwogyv75+7xr/rX+2/4yYt77R8yhPmJSfiRPQu+6gEo+jF7h8te5f5awojcGtsXwwiWv/N8t5nbQeuWHGGG4yn90tbW/DB/d9lfsJ25X+aosqnqG6HN6bxUOiDL3e+u4ruiNgW0xqHDJW89n3v+CsdafRl7ba9961fq7T8qPKv8PS4y4FYY+t5e3CFe8zv3iE1zRGwPbYlDhkrf254p/2ATnFi+n2gl8M50qgDDeSSOQEVevm61fHKS3d6V8c4R3plb0TXdD7pIeNJkfn1fh3wsFv2SxDcRdYZfvyo9JSJbgkJ5bMk6hSQf1OTwf5g8NsSy+NJrrmc+fMiXbzYBaYOfP/PnH190vj2/+mOhytuuW82H9a/6RE+iZtf7Kee6t8GDZZL8/Dx4as/zfzdDtMFuw4r/2/zr/1PnPT1uIBZ2JI3EY0BkCLdqr9UUxdf4137GzfJ3/h5cMzH1oUb8a7n/8453m4TpjSyFB3IuhL+7JOi76wSgORMXAT4d/3PDBSJIlmNs8INGjIEVvLuoT9z59RCe4j77PNc25t5kip8WfJ3DM83fRHpjA55tszVtwTmozvatn1GIAQtwb9vMHY7Lfcv2ppavNa9DHgHqK4U94Elmg/mZmHJL36bOUjvXzGxBAlJq/+05fIxrMLjJcrX/5v3zC4mV//ITjVPwzvyjH9AqRHlxWE+6w8p/n9sr/2yeg2v9wA1v7vz843J+Pl9llP72nI+MSY+3/5/3+7x/vtAVTysDaAdcaai8WZN8B9OLt8oJ2Fz/3tHSZx09dh0Jn/lkfTIy6gdCK8K5vtEV3v3/bpf++8cBHHdJ4aqMC00XjTs2Hrh6kj+bIDTL+Upg3M4bvuqnR4V6QCdQmoE12talYj9qgNG+S0BYGdFuAP8p0V0z6uNEiBRkME8M8weGpJJ+750MnHt1pzmAQXvN3A8/217oJ1vq7L5f/h79Y/NEnIg6Fd/tErhj+o5zAcEUAosGhNc3+x7hXUINFOCCLEIdzd8V/+Gs8tKr8N3I+3Kfyv8Wf9kSzxxx/iltBxnft/8x58B+ddfpNlfWojf2V/3x/QI63gl2DPsYaGir/n+v9L769U1slVsJdFtALl8lQwNGq3pnej/OS4Rxq85rLG8d+jS2JHjRjPO9XUGUdtuUNHTU6ZGV+tI+ynN88H9dDOg7Z0nam11zz/NSGMYXn/jEGKNzOwFBc76X+Y+wteWgbJfPLBif5He9Bw6+RMg59nRRGpABJmexjfzHK/vjLUW4GRqJNwbk0EsYQHvJ0QxeHkFOmix/M4i4Ua5W+g164Q9dZY7G2kmet1Ee0kCuZ3rY0UMyv5t+NU+sPU5T/u0NU/LsvwA5WKv9V/kdqqP2P4VD7vzkDzxu+X+jqECaq849sQodZndfq/Heuz7/x4+yxofmq8EpPBoYTIA7ofhKMvgTUB9hLwrHiqI4o6FREyA+a4CG94Z1esgICSCYEzPrN+ohW8uZ+yKCCRBIe483yRSa4T948vvgEyW8VQBTpCUg82qXjmc4/xuATTuAsGgMV4Q6R1N0pXTG5gSD0xu+aSH9XT8/518sjPkHKXjxphCjcpLlmsz401xguflMudID2oQ8gCuSIB3WX7XNC3YvmjJpw8df8ZTNYR+siCOPW+g+HhNfggY68aPY/2U3Q/dX9UvZ1e6OGIkkO5cvh3uX/lnvchp4whAOizPZ321b8yz40Uvcx1Jb+Vvm/8r9iBt6hvCVY+b/2v9r/P7T2/+0fZ0d0q2AP4M6phgmqr2eBqR/V3IcnZNif40mZ46ABYZSMc3xr115EXqtnmiy/dywIJHnosuAZ3Svs6pg/lYD+9u+45x+yd08f42pQw3Coj7dxZJ0u6tObOBx4obdDEBvOpeAFe4TVsZG6oPlQQQ4nJYE2HB1S1vSu39JBKMUHgA1ZHEqXmn+YZQVgp1p/xh4sUf5f8V/5j3GwShXWUPl/+aai9r/a/3nm4R6KiKnzj85csEad/5Azr97zLz/eOY54WJapLM/MU2ccD40mzvA8Yh9ZnsYw6eLt8kL24pB+nPRpzNXk0KCxBCci6hs6ilxzmEi9KjmCYgpizVu8mLfGUFvXyRo0lvgOoteQp+yjjOOmy2QYc7cvKxDsEv2Tlnia1UdfIDgUnzzoTd0sj0rgRi3EmC5E4+OVJLeGGN5/DNNm2X8Mc5N+zOdkPPkH9IKxgPt8XP6gp71q/mM95vXip2Nr/cv/I5wmUPFf+a/yP/ar2C+5d6X9bc6n3JZS/+Z+VvtfmLP2f/hTnX/q/Me8YZvvZr4Y59nDnH/5RS6Q5ykL9zh4VmVJyY/i0ZMplrt+1yU1qw1NkJu598kXr6A0cilriaITBEXGUc9FfYJH1S/LAi45grkN+FHlSw6g424x1WaJmR7joajNaxtX/V2KdXFPMgYl2dWbtBUBmOxfDKKbN0GMlnGRAqLsk09eIx4yNuYvIsqj2EFPXkzI27uisib0TvJX0zPZ/nYnJrgicP6a/9LuY73y2g1X0XLU+h/sX3LtYc/yf+xII44VvO5RspOgx3bFf+U/z0/Dbzyfz/G1Su9GUPkfN6W1/9GDVg5irSkdyUyC4Mm4SD1boe9g/yKvEQ8Zlf8r/8uL4F1yDvco+YngYfa/EysnMyf3Nhfqw+E20AtSgbd5Xfiu/pV84/Z04hweU+NONYbpQG+lAFk4oF2iSmFsi27DMSbkosz6euu4rvQ7T+YP9Tktm7dsRK3ZaBdAlGmCTrtn/r4Azs43OSZGb/Iw/3i7AwL/NK7pEDwczi4SQXVAR2krdUJWkm+UtHlwkB9zDH4CCbfKkdefPLv1Wcmv+dNYtf70DLNF+X/Fv/kCEikAc13lv8r/dAffbmv/q/3f3YHnFhxXdH4RDojiubTOP/18YZaq8x88I/YX+Mg5Pv+e8NO8KaCsDmWIu1J84oODkK8UtO0Bn3E5eW4DzrkpEjYa8ByDBy1JFa0Emhq6MSP7qj8IYpPep2/cQXFMVycEnk/zN8Wglc/lGOcfaygbXR3zx+2dP7ty/+IP4draAbKs1vcY548B4CewQ/hL9/VztP41/1r/8n88u634Rzqq/OdvPir/1/6HeOAxAKkhzIE0cU06/9X+X/v/1b3/2xe5MNTSRQ2CCMCEJ8pDoWIV7AP2BgywFJWrfMNnDYQgEx5E0k2QJFnAUnQfaieJOgQxZMIncXurYhXcVKB3rsUd9/wxgg3nRy6fmu6DODhufqBOvwkC/QH6kemAi1gD8iYfIrsdljgliccqF9j8GSSx/sI7v3QThIAFDiFoQ0eghtf83R4wVa1/cpnyf4+Vin8PEFxzPhmth8OUywIqbwlSvJKTJIrH6pX/Kv9rz5OvyCfoLvJNQRIlBwJa+1/t/+ESdAXD6/zD6GFq/3A7/1wYU3eweZV7AGZ8k/gsNCqBAeIfdBA8HX1meVBZbcDnksfI+Ex3turSDRD/znT+LgIbCQ8eJk5wITqG4xN5wwEzTlVAgyKY8eDvdKpnmozv6NcbZkD8gw6Cm/pIjuBkLs0VMOMmdmna4M9jZLzPK88h4xp/hpkm46LLbYbX/GEYt4PWXXBzPWRHwVp/j8/w7+zzGS//NyfLvhL+k30s4xX/CEpEphXBjCv+ZphpMi663GZ45T83LuygvCe46Y+yo2D2acNzzGe84t+cLdsq7JdtnPGKfwQngtWKYMblfzPMNBkXXW4zvOLfjXuc8d//pq8vXHZ8LEDv8MHZ1Nu8dk6veKJFHUMf4YCnUyBGcwa/8C5P8xYEUcZRPztlc5QzmL/kQUQvlGeTVSPmHX/nBpocdM6Dm64FgTUn/o7LgBgMeAy6982ljyLyIdvlnbSvivNvDIQO1mvN/o1FwdfHivE1V0GRCdb83Yi1/u4RcJuFe7vjKA7gj+X/CwOZwcxo8p+OR/wxkIFX/NPBKv+5L8QnN+gXsgkMpDwtOPlT5f/a/2r/xzcG1/kH6aLOf0c//9rf9MF0VgRnnJ0HXJCc057eccnb13+AaHYdhl9j7ZO11S9eQdBkfIsnt+3Tb19/lrWFH4b/KPpyDAiNQl6rdxmG8KNdvUGUASeFWLULIMr08Ti/p8JTyui2frVFiwEK8WrHg4HEIPE6Ej5wQnIID/quiOohdhfgNI22T9eQmr9Zqxtkshzsir6wL6t2iWqtf9iCPuRue0H4PAwpHNCLbCl7o11thpb/hzncXhX/5huV/yr/Yx9kqf3PzwLKpzMMM+0CNKPxyJxAav83a3WDTJaDfdEXdmbVLlGt/T9scR7v//Hj7GkR5yW2OcQ5mz0IMDz1zodu/3u7WHU9tetP8oZ/UAAOMXAaQrRobMCtAiOKxvqFZ/mJDR9ZwGt4fnQhtQtVH1/VszH06V4rSodQ85zPHyrpHxDNGSoJP435822FiTuJ9aPdKdAuyb7dDlDAhjOwnr8/bSTBIfTrS015kOs+5Py4+ljbdevTnDsp2gZ1rpz5+kuww5p/rX/5v0VYhIXn/4r/o+x/sh3TFyuV/8ab857UU0JXDo6+yv9miLAJgV2yiVKl9r8zPf/JsA5r/6/9/5q2/8cXucjRU94NlLdi1t1vySwKvC3zbOG5bZab+4Q7xDXfgjgeY1LMkn6W7Hpm+plCfZKD/owv6X2u53b+0AebIm+uqZ10zrpu63zQ/PVywWHmz/i++duBDys0voOXGi65sjzg0EptwNPHwzruH1dYU+MGPsbkIOJ1+iHbZ+7XbC8ypYv6pA+6Mp5IDaU863a5IK351/qbN5T/p0CZ4yfXgSN61AZcMQwRwj2e19QV/5X/Kv+Ph7TLeBmx5TuUX7XHIb7moj7FI/ozvqSnPOt2uSCt/a/2P/OG2v9SoMzxk+vAET1qA64Yhgjh527/4xe5SB2oMBf1AWa80ykbAGa8E+xBMo/hrAbMXbukZJ0yfs7os5IZ36XA3J55DJ+qpFbbzIp6nnPGt2hzG54I4j8UwdwvXH1ODXocwhxSWzwGgdaAxFHNGgsHzLhVUUQb/Eyohus/knQ+r+HqsoYuQ7+jzueo9GNM6kD9bV6hv6umeUpPQbULYhqBB3/N3+xhttB/brlkr+4LaBtrUevvFoC9PD6BrYv6Tt9ew+awv/tvwOzLfWitna+XN6vNapkn1r3WX97vdmJO2GFPX09fk7y2nXxCMk3GJ7JezTSO1/rLDuX/5p+M34A5lrsHKdYBMx4Emafi3yzktlQGgJUq/uU3bg33HPcnxSKg47X/yQ5up+UVfSecQIlcRtWh3hn81mCJ9zYhgiZ08XE8Bjo688K5LF7j4y7980OgU1siG6hkaUDp7vLVKjj4Bpb7zsv5m6rQMeu51B5zVe/h5y8OfrwzluMkntxZsgVEQYKBTXqi4XIYZ6e3PsMhg/QGgOktInnt4zhuV2s3Yr6xBBMKiQMCmByOGfI4UFp/cInFUMqVjqhLd33cCvKgKyHpWaUMp3fdpU7Nv9ZfPkT/MOcp/6/4r/wX+Vq5NKraOyr/Y1eyvcUA9yeveu6o/Y92oH1q/6/zD854OnAxWMwzFC/ow57LMx89Boc3RBYqvI4a2II+BGjvlvw6/5m1lLPNfrIdIAqW4YSMOyC7SHB6l9gdYtFchtq2JKpPEDQZn3nUJ7iPfuaf65IjeK7laVzBWb+5LjrBo+tLzvACHm7oJy7PnQQHXy/zpibeXaPrsCSI+PWgDnkGvE11lyR6tTq0q3XzhjIGxG8UeVs0SPdQGEA6Qwao2IYKCukdospx2ebynLbmDzugyJZcA9TRKBsCtxIrEbjXtJ61/u5j3MfCVuX/w2fkJ4J0ouxR5k4V/yPIKv/BIeATnmc8FxkeCYv52y5RpSexzR1r5K4gqPzvtlP8ua1q/+v+YwhtEg30OsPD++hVS9xr3Z6kxU3NyGyV/4f9ZCfBYaUIWDNn5X+zRTjZceT/+CKXMPBhAAaHA4cSHQ+n3iviTPnnAXDryigKhYQrymb6M62fqf6H5Yf+h5nDUeYf8vA0JKx1dGscVv+QrHEEMXAOYqikKYBlJR791i5TCAdkETOglQtCIKHV4ZbkQacV4Z3fmw9/nQXMA0ySNI4gFKj5x0IYqPU3fzCfWPj3MI/bJ+xkoMfC8KdgLv+HeSr+K/8xoCr/Y2Oq/W/enpE31UYDHfUyC5AwN/dKmvK0YO3/yNFmpjBI7f9MV+d0//efbEiL0CMinFhdUfWIgWtHA2PA8OzUXQbI0Ged/VBjdbBy4SGHAgKizs6AqM9loucNDOWDUWPhdbIzrsa3Zg1Bikle73Rxc9WZwRj9ZDc8hlvNZzW+0YL1wPlTsR2XSd+jzD9Uluo+wCQPnXyIGsTLPzM1lknIccyfvhEGFE4YJtCQqEq3/qDXCN2/nEp4Xn8szi55W/6nMTBezd9d2j/8iwWAVawErPV33wr3Pa34l8/TrLDrAf4q3yz/h7Vg+4p/5TzYQ3jlP1jDY/OgeKr8DyPZPyUww5VjYL/a/9w0tf/BG6zEvi9Y+7/nGIXPnE+wt3tOdvPh3A8T5vP/ud7/7cfZ8dYHr5+1mmlhoRz67L/l61efAK7qA0TB60e26VSC9pxFTFJMm/RHHX+ml+5dPxuOC9Cnc7zjU+l0ORvzh+qQm2Vrfmc2/zBK8rJZni/KmCA+K00anSJGl5PCf4IGDXvXXxEQ8k6dDH6DvSRUsvtntif61fpThy7JDAlh5hHdv4/ofzE3jZ8kE5VtAFFq/nviv9bffbH83+Nnimdv5JWXiv9l/p3zZeW/sI/v+u4zaf+o/F/7X+3/df6p85+S4gXtBG+QLFUKju3WMb/x8JsQtCyPzKh7S78psVsVbkQGBz3aVIRLCbQPXLyShz7HB02ml1TBfKOU24TPUHoJzv1Xx/yhA+aseQsO3bItRiuwQ88/JswnDob3Jw9LcRYrvl79poZjuB+AlDdDoNEhNvBOb7IpQwZmP4SkOSR8PuRhRi470Sd/MSOBpCvkY/lBwFpZpAsrE33N36xiNqn1d1+Zr/Qna5QPTe5T/h838RX/8Az3E+Uw1N08yGGoWan857ZIOT/vBbKd/AnJ3fHK/+5AdKKBTgmp9j/3F+VrWiv72mSv2v/NQmaT2v9HSGXsmrj/27d32oojKA44tOMljDYtxk+wuHGUjAWRphPuu5697EO0YahlUKJ5KR+DOR3p7eLvDlBzPQ6i77w+HDjsH/TxBiYDG7QnhdBPE9yvn4saeURzFTyG+VNjs6IN4poPi+6z18HzlyUNwogok8Ajz1+GEDSR3bbAXSGH0YebWNFMw7teWP/Qb3P+9lkL8KGQLtFzODqI96/WP5xH8mv+ZrywCe1p66iDF+qr9fEFsfUL+woRtGatLShq/eGciF93WMZX+X/3kZV/RewqPiv+kcGm/F/5r/K/p5Pa/6Z8Ufv/OBP5Dg1HiU0bWJ1/eKjR/jIfcLg/26akM8xqf7oGnH/48U46x45DmztOukayiTNM6thG3Yg49+iUuMRXXLN8+etgX7DM3UsXB6kYHTr92ERxIGMRBEfCvTNdZ/1S1xZ62vOHsDwZTWMaxOczZplZnFSMgAPvFtBcBUGV8KUS1rl6NLYe0cf166n4SQhAlYPlB5XsDF0QeV2n5Xh+nB7HIt5Q2jz97ShkjTl7zY/fNf+wi+wqCIslvNZ/6W/l//Abs0l/NDzZB0GWSsW//yRK5b/K/wqLg/NrUCGsUJCLa/+r/b/vyct8W+cfP+vpPFfnPz8LH3T+7R/v9AyzvjLnRO5Z9+5voYsib+0iVR/OElYA5Naoz/yzPvv6ISOXmT73beHzeFs0B7XtHW9j/pAHO+SxIQclt6E+y5/7QdOLbGxPe/LHZzYsbiw+Ip6I8M0PnhD1soXntk7o+xVlqI0aWyVmZArTQaG4FepvXVHtY0vfWR/ptqufQtNlpreRrFc6gVC46zeP56LyXIULOoWu3K9r/vQDt8nSvljoWn+zSfk/3aPi3zLQcIfKf2YM5WA4iHBAlDmfz/0kSpeZvvI/7KicDEMJB1zbm439QSopvGnRFk0Gav+TDWWTpX1r/6v9/1yff/jj7BhUd8pyTUH1UTE1HhF6+nCmwz2ZUGCAR3iWslsBUQnO483y1v1L2VfP/KEDknFOyJrRUr+5JirB5fx8o3S5zomnjn7ImPu8zk0y3tbNYx22Dvkq85P/tfw8584lxJcPdukyhUtfkPqciHF+5t9xqHZBTjv6jaP3q0/ywOtP65336Nea/7CZbKk3H7X+s3/B7+Dc8kPYLuH0e6uX/8MwVmQLt5HHWsW/co7n98p/I7+Hz9B3PO/DVqNfsSZ/muMzGI8AtBYcefrkS+W/2b6we+W/Rc6v/D+irfY/s4XFyBns//xxdtwYdCk4/HoWpKH1xZvjyziX/T0+pYREAW4Vk80EG5lQeE+6Z9o/jznLi7n6nEFs+pxn86c6NOyw1aHtc+D8fZHwbEXycFN7EjdGHE+b4OiHuH4/RBwHqtQPkVpzEttFbahPBbwn+ebLdREOyALZwA2iCM9Pdqlv9AsH3CyzPNIN/Wv+tf7l/xX/lf8i32IvQM5M+TShbF/0K9c7+9gLdqbjyv/a87BfCa/9r/Z/nl/m80qcher84/7B82PkKMZP4HX+25lw+xka9kJe9x9nZ+JW0LHHD+6gwomeCT319zYSJFqrK/kLBskAkzx2hOwFvmM87EAH6jtGcmzPeHvlTfyyRZ7fFp7bFipN8hZzRsX6WQATreTt1TfYO0gyQrZt6aN3evKImy2+hTGIwhtiQ3WTjGbg0W2YLQfbSN7xRT/leP9iTmySLoJoHPhqvD36QmvqRNkhC41JZsbnN081/1r/8v/xTSEV/5ZNIuchi6zyUW9Dr/odoq5cNDKayxs5SD2C4gKUvJRvK//ZGkSOCgPleK38P3yODgQPrP3PTLEdX7X/T39zrNhCoqPV3H/q/Of+c03I//amjytLsMBzjIzes4PlsYQLbo2Y+4QLbtHva8u8wgX38R5Hfx5LOKDweYzcLlxwps110RhUEGNH8Ke6HuT4fgY+9xdt5jcczdpY2WU3ofxmVtyMWhGub2s14b1tqx9P2P0+NpKMiVEb6dkpHa0PSSm9KRQvIOkddNNJV5fu86b8RFHz16qafQ2t9TcPCX8Kd+pAlurd5njyefofd4VoY8PB/fJ1wCAv/4+c4PYwSyPmI8Ar/iv/Vf7HQ4Ad+YJZxPdpoLX/uS1q/3fHsN3I95c6/0SkaG9xD/lwOP/Y3/TtK/MxZ04jS/65d+ZeUq9r+/j39a8lnmnLPINZg6X8uXfmXlKva+DPZeY/E/mQhcJX4X0gtTrk2cr6dBM1UmbQ6QAWmw53FSSQkGchZIdgVENe4MuPB5sSMcD88WGIwfe8hbguq/OHfNdL1wE5LJhD3QCqUjAPkBqg94S+ANZX8zc7sIRBZKdaf78BKf9392AcmY9EPFX8V/6r/I9wiP3E4kIx4ek0YqX2PzcH8oaZRPs7qrX/93Ra5585fsxZ3FcivuhF/bjnSPgUupxqQD/bRQySd0nBsDT+a/L5j9/eiWnDTijCZYrRIwpQZRz1UcQniJ6MD8ptbGV0LUAMKVmCs3yQoU8aCs/0eeT99JIkCO6MZ2ljrnm8jC+p17XubMa0sEUMKVmCkJBxkKEuDYVnGvCIaZPeiAe9JAVkh+GDgOJ0UbNgGkokS14RBlzMGRwYCn15eKuKDSQZBxnog5x9bAMhiogDqm9Bb30iG5KCgh2GDwKXG1c1C+YhO+FWZ7RproRgwFDoy8NbdUtEkNf8zThhLtoJeLeXkIDqW9Bbn8iGpKBgh+GDAGbvRc2C6Mg4CXOD8IBa61r/MClMDdtk8082lQnBATLQBzltzzZ0oog4oPoW9NYnsiEpKNhh+CBwuXFVs2AeshNudUab5lrrH9aCqWGbbH6rbpkQHCCr9e/mop1oExgHRYYLqL4wr9Nbn8iGpKBgh+GDwOXGVc2CechOuNUZbVrr8v+wFkwN22TzW3XLhOAAWfl/N5f7c7aXDBeQ9gq7GXB66xPZkJQXwPBBALZe1CyIjoyTMDcID6i1Ppv+fyHHshEA8S8bgdO0PkH3PhCGhkFv9qhc6wAAQABJREFUgDSkS21o31cyD3G7CAIRDkg8QcqWLoD2j5oFlJaCh6HHGKDv45ksjhvyFzKCDm2dPrWhfV+hbCPq/FMDq3bp/UHb5UIvlNCPNcMBo6dDp+N1Jz3GAV8fz2QBl3ygtf6yrNsJJun2Chxthym0rRF2fkPYFg3Co0qRbJPwI69/6L7DXyC71j+tR/l/xT9iLeKFYaeYs4picWd8kmH3ZcVvDWwLgcKjSkFsk0jpEvoxug0HjEjvkCx76CG74r/iv/ub+Qv9Lfxr4UNWkS92+tRG2j2XFb81sC0ECo8qpbFNcvf4M8gUB2TZQw/Z5f/l/93froH+71/kgjCLYFCACGL58988Od1B9FOQMdJ2XzSOICi38K22LlWBTOagzG2dEIh0x7JaIZ3axthjvHM/f2oBBUw36SFIlXHJJc9VuOCCzitYz/E3RI7rb2Y0juA1bf39b6hq/rX+Hv+KhfJ/j3jFvWDF/7nP/8P2W/vRaOupPed64YKdyJHKf76elf8q/yEiKv/X+U85kf7gabKfu6+J+5/d9OWpxowXQFuQ4D76BfOZV5CbMLTnqIFndY40ihgFwZzxWZj6BPfRz/ynWcdw+Hec89cUDJ7iJ+ehm22Cy0/Rp0HRn5hQZVGb6mcCD56gf1ObJab4Gyomaf1d2aGGXcrXXGv++MsJlFp/+YTbA74tn0GLfF0wtwE/06KxAFGW45f/xyG94t+9Aw/sKv/xsE6D7L0s40uxXvm/8r+7Tu1/igm3x3L/qf1P+74grJRxt9rpX5f56Vzs/4f4IpfTn86xcMq+ghCa8YNtdiwqXB1CMEVOU3MVhDIZP8L8xXbSBIDNi1od4oo0qNZZ/DgQS4JzLJWS7C04S9zi1+j+pTPg0O+wCNfo+GY/vq2NQ2HH40k3ZgJazUh45+8z9TFdG1GvZ7tu2dJ/a95qcw1cDtq2+F0X9PpvyNX8a/3dJ+A98gn4R/m/WQSxXvFPd+i2qPxHe1T+r/3Pd9yRP+UTETAO4hwAqjr/1PnHvcVPae4T4SZxmvQetKlXHKLbBa/+898F3/+779qj7b5JzZOYJ3tU/jOln/WZ5c39s75zfeaf+/fJOyr/qfYVD7qN7d2n2oXXutY82BnVr7riCvsx2KvaQ3/kL0wO9A4gFVEXDsiyalBHwGn+U3V+Mzd1mxrWcsChbRrMqrOESb+98ib+qVrzTyam8Sf7rhZkMuBUrfVfvpmZzFP+vzdeZ4ebLTj55155E/9Urfiv+O9bTOU/s8AUX3M4dmMhkKxM8VT5v/J//mTC5B61/+3drzysxnW24BSfe+VdYD/OftSgHqMHNg06R/2Kfo/SpIdMlaPSi++wcNZ/5pvHn/tn/n30c//M39olH3n7dund79tucJObzYOdUf3KKz7YXvPzP7GUwSfCplM8GWZnNv+8niv1jViOBmZ+n661xXcwgxwuRgjcMDxJ6y2b46NfZTWgdahNNIleqCBIMi4Wwc3x1QmosWIGU7XfsMp+NX+zmRm81p9ORK8xc4T30J/K/xGQYZHN+MsBuwq44M00CRcqiFXIOOq5bI6fCabxp2rFvxm38r/5WDhZ5X8LHrNF5X8mEWY5hEhPKXX+qf0PuSI8YnP/iVzSPSjRczPTJiSnSvRCBUGScav6j7PPrZJFKA7BRWdUcp9wQZBs4VttB8l2ely3Xr+fOnmyvfudb2+Xv+vv2/vf8+72gfe/j2+1Lrzwwnadiy5uF118g3aTW3xEu/Elt2rXOoFpn974Wxpuy9olX+2CkJjx1q5n+j74UU9ol97jvqvhQJmXXHi40OoMov0Y8B//7m/bb73q5Tbacrx5/OWg+tWc+BuAaVMjrTY8ViZ6aqs2EGjsXXA1I0oVnz6aoTl4CsVHWNwCp06dtDOIeYhBFJ8/nraFGAKNrba5rnZA6e7y5ptaUtb8k8Eme9X6Jx+CmeRru2D5v9tIAbu0U8U/ch0s5Hap/Oengcr/Hi+1/9X+X+efOv8ddP7lTR/OrDoUC9c5dusIojYcYYR7ykHLVCaCffInbm5tEoE+4Zf97V+3P/qtX25vfePr21ve+Ib2jrf+f+3ml9yy3eKWt2w3velN241udCPSYmKXX355e+9739ve+jd/0y6zm8JbfMRHtltfepd2m7veu93x4x7Q7nDP+7VrX+c6HHqffthqpUPWB22bRcRBsE9+l4GB7N9hxstjEzemVVsXDARBAcmGmX30EQzUhfd+0Np/fVMNfBw6ho7gH9YJDQBwoxjVffIpQsRgXY231Af00q3jnH8MyH70eFmNX/Pvaw4Lrexj1tUasH+1HrX+ilH3MDq8oeF/rNolqvvsO2Q4JtuPeFuuB6jK/8O4skXF/+QT7ku4rvyv8l+3yaZ9zJKKQfZX/qNvjXxU+b/yf9/eLES44QVUtfY/msXMscq/U34xEitjP1PuGfG2zEdOPeh5Ftiz//HbO8kCz7UifIjJKgx8V79LGVdOEhPTTUbgy4PKoJ8xjQP4vvdc3l778v+r/c9XvaxdftnftUc84hHtCx/5qe0Tn/30dsc73rFd73rXm9lX9ZP2RvDP//zP2xvf+Mb2m695bfu1F31b+8E/fWP7uAc/rH3iI7+w3fFe92cW07gQsIVvta0Gs4bjnL/k57H3OkWsq+1Vo9hadBnC+/pQ6dHPTQ6sLsD5Er/1dFkg6wM5/amTRouDhUEUrDufRorrAutHFy8kWVzW42nskA/94+ACRuGALE7W1WKr5gwC4TV/mmtln1r/8FT5L51G3jtsRsz7HA3/LP+v+K/8V/m/9r/IlbX/1/nH3sZqB63z3zk//57Gt3fiMIOjoU7TwnlcjHa1Ic4tyEnr/To6iRsUy7KW/95/+sf2yhd9Z/vtn/vx9pmf+Zntf7z4h9onfMInNHx086By5ZVXti/7si9rP/VTP9Uuvvji9hM/8RPku+td79rw77M+67PIftlll7WXvOQl7aue+Ontfg95ZPuSb/nhA8Su9XNbHN/8MQJsNuymMaGWcECUffYd9C4vvv0v3xQtl2sMYdJxLwTSuCdCC8d0aGj3he35I7j92wa93z8dajpvk3POvDHkOJDu81OSwBzUxtFNOcqP+WBvxQ1f7LFGstR386YQuoAMRXjoV/OHPc08ss9kz5XBpn6sVa2/+yzcq/zfjVDxD2+wskxPVp3yW+W/bhM312Sfyv+1/9nmpIe8tf/X+afOfweff/3H2fOpbjr0cmNaXfoJMHYtT8dONguYdrWVrK2GIf+3fvYl7eUveEZ77Od9fnvJX/x5u6V9fPOw5YEPfGB73etexxu6Jz/5ye0BD3hA+/mf//n28Ic/fCHi5je/eXvKU57SnvSkJ7Xr2Mc8H/SoL253ue8nLmiWlaHfuFtQ23HMfznawTWNKzhRoxlv0QBFIogmJEwcLMapftCBlTQODY2SBKyErufvN2zOg2EkE8KEA46S5Y9WYKITxN0I8dDf8UHH8Wz+0e3Ckviaf61/+X/Ff+W/nBRHzkU+ZQ4dTWhJNeGC5LB+ZmLSVv6XTYYttR/tt28ydbKqrFv7X+3/9IVwKMdT9FlYXlDnnzr/KT1bDjmxOnWjk5koko1wepO1zf1BNoCkC6In4YeU98F/eV/72e//lva2P/qd9ppf/7V2j3vcYwxxSOz3fu/32pvf/OZ26aWXdo7v//7vX930qfO3f/u3203t7wIvvcd9hsqH1FcyBmOa82nMn/IoQnICUh/DAVHQLB3ZsHGRiOhyEd7o9/uWOEMeN3jDtSl12bv6V8NpMEEQDFzPF3aNR92MI4YzTk/qgCh79SXVuFCesXZ5NjFvO6Q8EmNgl7myzxgqMM1VEM0Dr/m7b9X6u7vM/jS5W/l/xb/nq8p/DJjK/8ifB+zXnlb61fe6vn05r/XqIcdee04Jac5XfaCOaK8TRMfAa/+r/U8+RM8w15BPoD65W+1/Z2H/O8EFQFiOuMwxOvDon5MIFuqgAjYtJOj00gkQhf12iSpp3/Puy9oPPu1x7QH3vmd7+e+9rl100UVOfMTrne985/ba1752wXX9619/UVflTW96U/ukT/qk9sRnvbiduM71uj4dCQXPxfyl0xZcv5kyjbh40GzY2mtbEoat0Wt/4sigA2SBOH0BozXILwQhlx+hcOq9V64v5IjSEOLRILmCcADiaQKd12SctMH5+h5KoFjG4N8LInOgav/QI3bxCoIm4zX/Wn+4Tvk/IsOK2aLi3+0AcygvCSKvVP4b+RU2OqgoF/ecawjxaJBdBSv/h89pAzPjdtsZXvtf7f91/rGPL9b5z9PuaZx/+Tt9Oanwo06WZvwjGZCLXmQgp1rW0L+7XPGBf2nXvm66gTJSjSU4j3fZ3721veCpj2mP//zPbc/6tmfuFn6Inh/6oR/ijdy9733v9oY3vIF/A/ijP/qjK863ve1t7TMe8Vnti7/pe9u9P+nhpuPxzF8Daa6oCxec5683WoDCJQfQVwL6eQGN2tAiuYLep01aMg0mAuIhkPrYHfnO9Tc+HJI7f+jRwXJAKuR/x+QUGlYQCcyfXLoCwvUksssNxMc2/UJfp4c+LlFyBaXroJ/011xCXs3f1qPWv/w/ZRhlHYQgwkwxNccm64gjBF/EE/CK/7DJAD1PV/6r/K89z9yj74Xaz9CWi8de7X9jP3dbyF7a9wWVqwb9lL9q/2dOV76u8881//zDb0LR/ozkohsNvz3wmuNjL9eeLj5B8OtmAfAPfvVn2kue+dR28sqr6FOiE5zHe7d9I+d3PekR7Ru+9qlnfMMH2Q9+8IPbW97ylvbYxz62Pe95z2vvfve723Wve1109fKHf/iH7ePv9wntXg99TLvfv//cY50/bIC5DujD7po/7Kw+51vTj9OUJING46zplfwAtW46uDERWqMgCJg8AwIH7YBOu+DH6FK6a+Iacd7W12HQZXr3MOjm/6EPGKDoBJezgzCTTJkORScIeugqKL0FSWf9gjZszR/GCTuMdbcVYZvbamE/M262N9YahWse60N8x3pirVF89WMDtxpkSq4gCUM+RuAoHK7Wf5e9sFYoO9fP+mlf0Nm/in8Ywe1Q/q+4F3Rfqfh3OygvCSLOKv8xIdMOPe+jtiOfV/5H4kXK8f9gJ2C77AUP8wLodhWUHwqCrvK/W6v2P/cF+AZ/py99ms/czd3KXdENlq90IjhmIkgo3xJACN4WvPmPX9/e+7Y/a8/54k9tj/n677C/lft4CpcMygWzyXvPZe9s3/gZ92zP+fZvb1/xFU/OQ54Rftvb3rY97WlP25SBb+x88ld+VXv01z273fdTPpM0oQ7tsMUk3Q8z/yEQBglpsp3B0W9Y9BPYBW+v+QZ7ouehjG3BADlQJuQB7FpPcPg/Syudffp2RaNAskbi2Sr66Ff89jlJJAsV8hlr54cYfJZX4szr8scx/bNSpnW8rheZIOalMSkfdGwLCkx4Mf+D5yNdBTHXxbdLmqI1/1r/7r9wulTki+X/wyiKJbRU/Fte4v+RnwAq/9Em9JjK/7X/cQ/Hxm1FeO3/NEdkjX5cqvOPpY50oPWzI9rCUnX+M2OYLSKc9p1nQcq/6YO3ydnoZKiEEHbQsPRJb0/96lqQWwUk17/JJe3Bn/Hp7Z73vGf78q/40nb3Bz60PeyJ39BucKObhTATZ7Tv/Nu3tO998qPaE57whPa0r/u63ne2kH/+539uX/qfnthe87u/357yf/5Mu9Xt79xvgo5z/ofRH/OnOcOAwGl71O0fAD4eBYginB+ZYoNdSISKy8oQfTyUSQCpBqEOt4JYEL+xDAY6lIQYH5oX6+83CHA2FMjhR5ZIxKbpwhmSEh2iBUQhv8mSPrwBSx831EcPAYNh6BT8aBe/z99oXfzQvbM7Muhr/rX+8JdwmPJ/twWTiAUWzIKQCfPoAUnFvxuE+Qs5lEYyO61KJJ7or/wX+0flf3oK/ceCS/5T+5/ZovZ/84jIL2GLOv9EHtVe1KuOKH5gNr0oiQAbe5g1iE7ww+H8ax/vxJsNFBjL/tFmAQ2wL6DjQY9DAP+BbdAP/FS7wY1v1t7xd+9sj370o9tf/Nmftrvf5sbtmY99YPvNn3xxO3nVVeR79zvf0b7vKY9u//Xp/7m9+MUvNmFnt7zyla9sd/nou7W/v+J67Wkv/EW74bvTWZs/bJFtlnG3k7la2BFQuC+F2xfdoA2yjqshyyRu5IK0JAW4DPKg0Z6SgCbzSt4MMw3x4OUTOjxtgXzBjKMt0e4a7xS+QcP4AIkbjyD4aZOAGdf4WSfimhfmiWK8HRq+orex2QbdN/6pDzDzavyaf60/fUG+A38DDngIfyv/r/iHv1T+q/yvfU8Q+SPveRnfmV+0T/muV/sf8jDKIfMxc7dyucHa/812YYc6/7gfyQ70KfgKfEs+I/yQ/nZ17P/28U48VULhVAyiBtxb/aqaNZNeNGh33OGy/4Y3u0V7x1/9PhrbjW50o/a93/1d7Ulf9sT2lV/11PbtP/2i9smPfXL7tZe+oD31K5/cvvzLn0S6s3V5xzveYR/lfEr77df9fnvMNzzffofvQX0on+Pxzx8DHGSfrsACkcUXjTsrohb0Ecf6jbVEm8/xFJ9Eh0jh8aSVzgscTmxFcgXnJyGcH2UEhfCQx40KbSFv5u9u56r5uOAVfajZgegCclSQi8D4ML/OLxzQitPL563B2tXmBFYTj+gTnPWv+bu93M9lz7Ah7IZ1hI21nsJhY5QAHQZ9Xz+nGteJ3qRTBiHwWv/y/xS/PZbD39xfKv57vCAeGUMRWFP8iU6wx3K3p/VQRlAIV3/Iq/hP9pGNaXdcrCivqQ9wq4hOywUawzu18dX+B4MMexOXP9JeFf/dXxiv8CE5lPUAD/uJTrDiP84y3Z/cXh9K5x9+eyfioBesLj46p1WGL7BNFOoQRPsWbm/6bnKz9sfvfKcYCe9+97u3X/3lX2ovf/nL2yMf+Ui23eueR/8NvoXQAyof+MAH2rOe/Zz2/Od/V3vgZ31h+/offY79ADt+AiLrnASg+ZjmP6TmsYQH5HhJnYi9zovg4xoEvfBOF+2L+agNchO/EiF/p0AjUKBVQqBoBJUAclIAq/r7uGnM3kbCMHX0E9hF5JCjMUAOnPqFPsIB2W8X8qSqCQtqir3A+iW+y1rwG68Y3LijQfMSlG41fze47CLYLd0tbnQTzmq0CRcJ5MjGGKHWv/xfMQ9/EL6IX/gMOh0g2hXOcKuK/8p/Si/b/hOOAweq/G82YNTQGn1fV35Xbq79b9s+fa/rHhf2dHLall3RL1zktf9ZCFr2zv6mnA8TCq/87w6FjY4+k6pH3P/63/S5iLjKIVEV3qEh8yLJcRdCmn288+btXdNNn0he9hM/2e7zyQ9r9/q3j2hf/tVPaxd9/f/evvm/PL095jGPEckZwSuuuKK9wH6I/due9ex2u3vcrz31B3+hXXLr21Emp6L5bI2S+4R3aMgh5++DHYJessEg3KDioLdN/ZTPTnqCV+dNLPFQNOSmtsWAIWEMbA1SIiCe2PLvUKLu+Em2OTulg5FVp4cYr7vpIMOpg2hUgq6Pix61EQ/SGOZUfG2NQ/ThKR460wAH8EvPAY11Qa+BHNb8a/3L/+NpJ6LMAvmU/aU9oJeIl4p/mqPyn+f6yv8eF7X/YXut/b+nS2SJA84bkUQIHA9Ux5I6/5hBcOaLlwJ1/tt7/uVPNgyPMkwOCJhxEclbAYkbnWBs9MZI6hvc9Obtsne9S5wdPve5z2uv/f03tMf/l+9rH/+QR7WnvehX27/9om9oT3/md7Tb3/FO7dnPeU77x3/8x05/FOTyyy9v3/qtz2wfdbtL24t/4ufbFz7jR9p/+Kbvb5d8xG235zMLz3POuOiOMH+xHAn2MY2r4xHhEJTbiNs6CPYbHR3AtuhBnuRBZirqA8y4SHS4A3TcbwJMqpFIrqC4Dg/zmBmXhNzmuA6gmLPmLTjmCtrMK3kzzDQZF13N321b61/+X/GPWKj8Jz+o/K99T1C7xuFh3nMyLgm5zfHa/2SH2v917hGs8886XoZNFFMZ7qO/Jpz/TowbBiUqc5h+E2HmEE6YzSPcN74RcJDjbRfbt3Re/u5/sDe0J/nD6OB49atf3b7V3r59zQ++0j9mGfLv/q8/teHfm//o9e1nf+7H2n97xu3aAx/0oPaExz+uPfShD223uMUtNOAKfvCDH2y//uu/3n7wh1/YXvWqV7WP/TcPa1/ybT/WbnOnuzlt1l3TFOSNiuYA8uObvw8+y9MY3msG9jH7DdOsy0xv9a57wnvbLA80vRPC/NaoNy3p+S1RRq9viwKv2si8ukhfQJR98jA+bOLUR6XnKMar0SBHbT6666sPOKEPgbyLfv/4Nf9af/OeKYbkve598nn3wNEGzHkJo7v8HzaRBWU7b9hnL8axkRJ2exoS8hD3kFHxL3vCdSv/7fIXdxz0yl6Ga8+jf1X+V0zCHOsi28nCsKPaKv/JdoQwnpnH22TJo9mLVqaM4BcOMVYq/1X+h38dtP/xd/qU8OQ2S+iu5G1b1/C2SJqZ98ILL2w3vPFN2mWXXcabtre//e3tMZ//Be3xT/++dpNb3MpI17yX3uM+9nt+92mf/VXPbP/rN1/Rnv/CH29P/N+e1G53+0vbx9/3Pu2ud75Tu/Wtb93e9773tXe967L2mt/+nfZbr/nN9lF3+ph2r095VPvP/+O/8FtDtzTNuo2x0So9Mr7V5hKWV9EJZhkZz/1LCdvjZ97D0Gf5GZ95vb5wCpt/T9nxUS18ZAsFTzbyx7cgeaR0UGgswdwGWh8JkD3YUCnT62v5rov042Hb6AkhgLjpBsiicQWh0cCDqAP0uf4xvvWoDUSaa82/1h/+sPZP+DR8RkWYINoHXv7v0Vjx7z7BG7DKf5Zn3R7r+Frm58r/Zqfa/7Axe8Kt/d9sUeefOv+d/vn3BEIpH2KES6RH2ulfb3TTS9o77e/6Lrnkkva5n/f57RMf9UXtzvf5xH4s2jXedS+6frvfQz+nfbz9O3nlle1tf/kn7W/+7A/bb77pLe29v/vH7cR1rtuud4ObtEs/+THtIU/5jnax/TwEyi55u2Zwtuc/y5/12KfvzD/T7+ufx0Nd+RM4jvaQ6Ud84Pixcofod1o7smGgKAlV0044y4dkySSTCeM2n4QmlH3+vTrQ0riDHhAFQDZBXfsjIArHMnyX/rN+Nf9a//J/xJQHkGJ1V/x4lO2+zvEFyZJJrojnviEgZpM45AbFPJqFV/y7kSr/waOGz1T+972u9r+IjwiQXflrzk+1/9f+f03f/0/E2Ti2eA8UtaE2bypOMa5KuOKZ6W9of9eHm76f/pmXt398/1Xt8x//lMVYkCRe4DM/+i48caLd9q734r+tfrWBH2WfvEwvWsF9/BwgXcCX5QkHRJn7vXV5zWOLDzDLEk1ug5Qt+aJFf6YHjpLfbIlWEP0Zz/zomwtoRYM+4Rpr7l9rzGNdcO7n3yvfCKh/KEB6u0R1ZS/NVRBzyDj5u3boXRbQigY9wneNV/NfW8xvMNxi++y3rx8LwPVzcb4ehke11j/5KPxVvi6Y24DDblox1OeiPvHP9HP/kDY4av1lpbW91TOsNSyItZj7y//dJgp4+qNdAFFme8mugqIhsV1mf1a74Cxvpp/71xrU/lfxLy9Z+5t6AFH2+pcRkBaEojc8quX/sgmtE7YyXPZFc8ZhN9RlP/Tnoj7xzPRz/5A2OM61//PbO/V0DJOZlZRqgnnCwnOfcMEb3OSS9iu/8ivte77vBe3rfugXTb717LJgjA+54gfCp7rRIFxPehe0qOwrkKOVAWr42Zw/1OlzQWVPES3mt5jrccxfdr9a55+VkDHUNmwlO2Bx8BXsep0vnDDYO63EHQRBXPPvhpZp9SR0Mk/33YNsnPuEC2IpMj6Cf6z5aBu0nafWv/xfTgpfCrzif8RPjxUE274C4sp/PdHItSr/ueNM7tFz90E+lvuEC0JqxkeuH/472gZt56n833MebVn5z5wkzoTuspN/ReMuAMf6MM9//J0+JTzYSaEo6GGYrNQtNih22RftF93wJu0Zz3hGe9w3Pq/d2P6Oz7mOIE/DCGKJqbDSgmR1gpU6uUdzFQTxAg/uwTN5yRHnv1KGLiqdObpdNMagxts4/jWMFBE8o/m7EEoOeRjZX2f72FsfdwC9P42AfzhO3Ya6h8YgRzLAJHynPC1OQPLj7w5hh8Pwk4akvEziKKXmPzbbWn+3BeyAcmR/dbad1yPLmxy2/B8fD634r/xX+R9JZu/+SZqRjqZ0Uvufmab2/9r/PZts/7mTYgxRJHzneXWE2iZ2Puz/8UUum/pFo+42BGEe4DKT8O3+v/qTP6CcBzz883bIQ7N4g2QB9o0388/0C2FWmfWd++e6dBOc5c/y9vVLjiDGy/g8/j55M/9Mn+Whzw+yutPdrz1u8qCh6zg77cqe9hSGsgHBZ7tM/uIWp2cP+/0y5u9jDe9yTFqCe3nTKd18NJM2jZ8GiaFMlmisRZKlwTy+j+fjQkDNf3nTvrKgbFvrT38r/6/4r/yHG3Vl2BkiTNQ2Z3v0LTNy5f/a/7QHD++ATaJM+4+aO4QfisYa4XnyMNAIl7za/922sIPbp/Z/5SAaZPYg+dZ5fP45xE2fT21claAF0bOFe9vXv/BVg/W0MMkWnMebhYpOcO7fx79Fn9skV3CWp3bBuT/LOgwuOYL75IlOMI8RbZb4RhCPxEdKc1Z9hAr1xUdMrY4fwfSkq3choBpjgRe1/PEr3WBmSnHoQATIfuNXGxu6bOfQ2ICkt35vC4lI6uzI9E7T6a2r5i/71PrDEtrkcSAo/zeLRDxW/Ltz0A6GVv6r/K89CPuJF8+lwGv/q/2f+4nOIXCKhMtTBHXWqfNPnf/cVc7++Xf1N30Y+EwKzgrw8TgzrESpL8XBgmbmn+nn/gWzVWb6uX/m30c/8++rz/Jn+n3jkT8xzfRnIh+yUE4aoiQjHJBlhmhUhiKBP+kZx2R0ImCDyBTkU10oGiWzz28+9ARYEHqdtM9bSL+ZHkNRxS4e+qB4w0yvmztByq/5d/vW+ruvlf9HlFb8e9aSHVDLCczyTBxrnY6dyD1BVPmv8j98p/a/iI8eGayv9ueIs9r/PX/U+afOf2f7/HsCuSnnKOERiz1wBwLnTJvc6CB26pT3OUTTkp5PyUw4oPc6rkO5xhXEWJ4Qgp4daoME6eL9++YjuYL76Knk4rKcz6LLKsc2fxwtFnM9nvlL35FkoTMOvt6DIWUT0S7h/Fdf6IVNvLhdoXtvMURrBAxrt/tvcqSXIDj8N/M0fx9fv6M3ZHu/6757PpIruI9esxiw5u82337TW+sPTyn/r/hXxljuF5X/Kv/X/lf7/+7zrx+cdD6p80+d/477/Gtv+uRkvkn5prT7pmx1yOYRx1shwbc4WygXt7qqXZDjGdUIgjECmP12Qb2Q7zigFx9RNx46bAhCgs/xcPTUx5g1Im5G2dZn5Bq5ZtJPteObv0sccx3aj7bTm79x0fi+ArKTIJ40nTroTRvtLpublqYYeAFRHIfNvT5f1SzI8cjvAiRL/C7f5tzlO77roYL4BGHHI62/DVTzN58Pg8N2vkZ9xbDK9s8XxNen1n/4J2xR/j/ib5kB5EWCstXwN/cl8bt/VfwP/6r8J59wz1Iuco+S3wgiT1X+l41gMeHb9mI81v5f+18knNr/r3nnn9Xf9OEmx1ODwxn3pOGt4zpacxtwL0PWoNQ4uynQI07B3Oac2y3rvoMliP78mT/0lTbDDtuzzXPTTATV5/Kc3/C4iYq7NBvA6RzYuGIzOm6and7e8HDX9Tc9uCV2PTuBae1t1EC0kUR8PLBoPEBtzOAQ7vKkhyDHirfJoO66SD4b0wWMVCcmJNzFux7UUfqAt+bf7W12qvUPH6JrlP/3mGOkMKAi5iN2Kv5pGVij20r5acpHuiFxSAaPN9rQ0xNaezwyN7nN0b6Sz8Z0mcbrubDynxuJ9mGSY93tXPm/+xtNU/kvwtECsfJ/zzkWMTrrOUQI4cx6QH6a8lHlP5w7deaF/YR7glYcCtK+Z3j+Xd302YphXMjeLupznZxObeAQvqt/lrqPfl//LG+uz/xz/1w/H+YPnaBH1uWw9pzns2v+fX2NgHgMwKBEWxDIwQhNOA4vuN/TIUY4IMqq3+SwTQNKdoyHPnRJnvAgZ7fhvdv08LbgJ13IoAIUYFgSwO9kzvSj2yTX/GVD2K/W352t/B/eYP6AuDEHqfinOTyXGaqEVPnPbVH5f4d/WOzAV7AHsWC/AY64AkA9IOrCg9z3Oidjd+1/bjLlI9opbAgDuQEDGpDtAVHCrh3W/h82kX3MQHI62gvt1iZ7057WJHtW/gsfg7GsrOwT9jyP4v/EcH7XmVcFRmo6NCpeQTBmPHxIOY99bHtv+5/f8sj2o7/0xtVQj/zhP2l3+f3Pad/+wee0737CfbblXfGn7Yce8qntbi/6s/bAO148aDS24Er6RsNRaGd28QqiP+M75x+Ccn/Gs4yMZxqNpTbVBcWXN50YdgFEt2jcVQFxGpDJwdqUJOakSlK7AKLMNxlKOJFU/C2Tnn6AQbgLmMhN3HxTGPrpEN91lQKQOZWa/2SQg6q1/uX/iKUImop/t0Xlv0ga5ht0jci3dBW7RLXyvxlHmxgsJrz2P/pP7f/uH7s+CTC5S51/6vwXKSQSrM766fx7IrbqSND7AZzPjtXmXM4pHHCr+Mteo49DwQW2KGzrm6JxhRLvf5fd8H3us9rXfMrd25VXXuHirmztxre6uF3vvv9H+0/tNiIdQ2kCp65o/0JR1+I+MgiOFzub86emMR+Yt6+T5rg1FfUJgibjGzyUq+8g3+hfCAAxljaUWc3fss6pk/aH2bFJDV5XgvSgCf7V+kM238SFIsL1ZGTu75ML+XzSZKP2J82Byx1Bhrk6+cBr/mHwLSBjWV+tf/l/xb/HAcNh2v8q/1X+r/2v9v86/8RBQmcHh3X+s/3iPDv/rj7eiaXiHh9LKFxnaN3cCYIs48GWwOAcjWobLcLufNsHtNvd7c52RnengWzgl/2vP2lva7dvd79La5e9/r+3n/7qb2h/aEx3fsR/a49+0n9st7KZXM/qb/iF57e/ev33tN//y9b+3dNf2T79Ifc8cD4aV/Dqnr/mDYj/NH/ZeJ9+modgpneL+v1PX4FMYExTNZ4a2BoHg/QQBANv+CQcdBJCJTRSF2D9hqtZtMHPOceDAbCv5m900CXuIX1t0cax1pdJvNNTbtBOBFO1j1Xzd3tp3QVr/eGPcMjwJziinIhN8syA7LeLmkUb/OX/lvMq/s2F3CEq/8VD4ggYPoOy2Kn8r3zstlA6iSzUwZReav8zy8gmNJIqHm69L6q1/0es1fnHQ0rnHkE4zIfa/m8f74TWEQkGuLiciE/SJzX6O+0hs8xKHsYI0QSILo4PpLU//+vXt7e86T3tyg/Em74Tt2yX3u3S9v53/GT7hQ8+oH3ax/9Te6nd8N3+m3+2fc6drmivfdxnt297/79qz/v627brGv8fvux72hc872fbfd/xM+0HnvHv20d89F+2+9zmumNMG4sveaREH5/DX43z1/iuGJzKHctv/DxVDd37i6ppPpuboomGVP/BdByq3NYcUWjA1XrZGzS2pTdpPTO6ylLNa/HmjX/3hzExsGSAwsbhDKdxKZP01mv6MZBIH/MPnTVvQQjL6zn9nTXHok0gK0rnRX3So+bvNqEdYB+tXa0/rOHOC5+hE7Nl+BCq5f9um/CXin/3iR5Plf8q/yNPTPuO6n6ArP2v9v/YYHAWQsTU+QdR42e9BGGaOv/BILCOuUmc1/TJNzTP51//eCc/UhdcwhcfrzPO6J4PNRhoUUCngw86+DFOy3CEqGPXM6JwYsol/al2wv4Ur73sa9pzXwbGKHf45vbMF36Jybxpu/Up++jmVX4zeKpdq13nVh/XHvrTr24f+w83NHF/3z5gLA977h+0+9/75q1ddb12z2f/cPvn977fWq+jnDp0i0MJddGcMaTwcz5/DG4lxsXPBuBjk160Q1htZd81iUyLHnEC8p9d8BS5O4WtxeInCmxcJFy0oXCpTA1AlNmpvHVcZ/p5/Vev++EKSX7/qKfsYKL9Wa+PsZYfY7u6rOyaPzo1Vs3f7aa11iYrX6j1L/+Hh8zxNsePe9G4zvQV/0icSLqeQCv/xf4SSXrlL8j7MFXlfwYVslDtf3rvvc5HPNTAUp6u3WYZZ8vonvNX7X91/tOZh25keUc+gfqcn2b/CffqYKY/H/c/f9MHlXVS5h4ViZdTsYZ8Ky28vy4hg1ECooBXbaiGLMknSYpK1KNc+V77uOZXvqI9+XPuYS0hj/wXtH8Q0UV3aZ/yZY9rP/BND2+/jLZ7P679hy/+yvaRJhJ/03fRDS7yCL/qStadLenjDeMqvQRJGjqTyho0Z9SFn4X5+3AxbwB6EHSxivQjUbrAlKAFRBEt1wANMwHanAWQh5CAqDs7HB81FHvOpDmjFrhD7x9joO5B420hn+pLQW8D5WbhwEYrBWL9d81/7mbAWqNuYlyPYSBNS7Dmb7ayhYAdUGr9h8/SIOX/PebdPzyfVPwrnym39IwSucf7/SZvxBdsqFhz/5qulf9gocr/tf95YMwb/BQuc3ft/3YTV+efOv8pf0znf+xSfNOnbQvxhDM9tivd0+AZi/f7JgYap3Bs4Lv6l+QaCxCFQRsQEuCwaBtyvVPSr3rfu9tNH/y09p2f+/T2D2/54/bnr/jO9t+f8sPtDr/w2WAy3ngTCDnOSpnstAvHt44+vtqC4Oqcv6sQMzXQDwdukEU3Jyfd83yM1ucYcsjluFpOxtMMdLmV0rNE/T1NfzLtX9JySq/Gkjyia4MNJwKBKUPWMDg+quA+5Q0nqe8F9mA3tAP0CVC880ebtUiW1EGSz/M5GX9UDziKZm6ijX7xZIeGrPm7H8DAYYtaf7oP/N4PEtv+tJEwy/+VE2DBiv+es9wclf8q/2OPrv0P8VD7v/tCnX/q/Id44M3PWT7/XsiB0kXHY0D84/gBPU15m1hyG/D5H+hEA/xM5IP/qre/qj3rcR/X/uTvWrvkDvdvH3M/+wmH9v52FTpzWTXkzt34meg3z13zFsSoh5GftROvZKNPbZnutPFJId5oWpvffFtCwk0SbswM4h8GFyTuF7vGf6DDf6KHvuCLohvZLt9oKT/4DRADzHhIXbSRBnKH+IEHP4fN/WxIl5q/GwN2iHUX1LoLat0Ft9aH624dhLHupA+TQxYKIOUarSDWOMvMeK2/WyDbBDiLICrCATNOwo1L+b8bpfy/4r/yH3Nx5f+0P9kexv1J5xnLqbX/wQi+v+Q9mzsU7IT/ZC+QGa4CW6IAat8XBJ//v1v+3E9hQ7zrhUa0qV2QxNPlw3D/OwF75CdvXABbJEAWLBhwLZzw6OcLAeuOFwMQ5sYOdshIKB1AY7DP5MAp0Hat66MFwxlHjCf8QmYi++u8OzyyPfYzvqm98HEf7cR2fch/fXW7+YVXtBuxxZ2pXft67RasXwsCuwNIF0E42vkyf6rLeUu7YQvawQhkKwUS2tVGfrsMbjBEAx1fPWEjdsP29jYjImRLHu1ntCyyJaCVU/FUn5ANdtGYqFuBfVWoa37TGG/m+t8v0hfGH/nxDaPaTIjPdfxExNabmDwedcFLGs4/7GnVbk/rqPnX+pf/e4BU/K/zaeW/kb9pC+b3yv/Y02r/Mz/A/zgH0CB2qf2fNnGDAA3bwDQ4y9T5h3agu9T5L3wiPkmks65B2gcfaVOb/Cc+faR+nYnJYJfsb1vn3xM8/FJoOKZwDQqHRZscV3j0cyDXz8cULkg+VFw+r1aN0cjj+MXt/s/463Z/yI0bCpftgj7ic/6f9jRIsb77f+3ftI/9kne0f7Fvbrn2jS9p17+e3dgZ3+Nf/Tdk4eXEndtjcn30LLDzZ/4LtUZFdg64T9/BmDA3oTUIwXp62SeP625jH3b9oSZkS23w6cYaI3LcoHENok2VGUpQwH36rtitAQ8kNHPqhrYg3Cev5m+WMtvX+ofHyBbyS/iRnAto+La6y/8r/iv/jfzBKIoYiRTcc7HqC6hACrgvXy94rYLQrPw/UhTsT5uEofbZs/a/2v9q/x/5q9tCeQlxhICKgmbGWLSdj/u//05fvskSLsjJMFXHtIQLaroHwUwrXND48ljCBbfEWt91b/Kv+BMNvfsg+k60A8m8wgXJknTtW1Ru2yG3N2da4YJGlMfquPV3vAtyJLcLF5xIF9WgYaLPHYkXP+cAzfSzDsStZWgrLKATuKcb39abXz0N5ZD6e594MsgNyMZU3EA3tZF+ks9Oe1KWGEi2y1ahZdK/q+p8uNb8uy1q/cv/GXIREx5+Ff/KIyN7RIsbqDdX/kM+tf97QgeOhkgxwiv/0yDa67q5av+r/R8hpDPJlF/q/GPGqfPfGZ1/Vz/OHqm5wDXZAkgo+UlFmuvqyZ/1ab8mGR9lJH7tVgG5idlFzXrKOg4BwatDZcg7lfRZjocaBHorn5ob3j+O571DR81NSZNKp8usf+oCWvP39embDmySbTTbTwsdEEBrDjbhtf5hxMk/6ffWVv4vR5r9reK/8p/5RuV/JpDa/+ytS+3/df6JE2bsDuOMMu2vsesOMJ9fRg+xD4fzn/9O3zTxY63Oq8JToY0w9vjlcEelX3Kff7Wjzgf0VuC7+Ec7CbLn9C8h2gLEjK/KSpz6diyQlCJcMbtsu+rdHYLIP3PsA86fae+TDHkAiktIFy8gSryHCYgWvXqXvvv0dx4TsKPs4wcjaLYF+Lxr/rX+7o/l/xX/ymHMPJbH8t/0VP5b5tPK/7X/1f4/jhfKHXX+if2UBzed+ZhR+5nQD3T7zm/O8+F8/hsf74xDtRsuXddZ2D1yF31iJeprxXNy71Jbb0iI+gTRlfFESvSo+p1t+lk/6S6I/owfRC86wZkW9aPOhzLspgR8VuakwsZ02Ty0pj8kTaSB6mZI8tGMg58ohYvO+9UrOsHBu00/f5HL6c3HD6bSIcOa/8ahvdafcZP9ZODy0/J/2MTjWDGPFuGyk7fhiqK4F9xHX/G//EmRyn92ILS9TYdk96pxVR8gyunZa3yR2JAsTH4t+WiXz2dcdN6GK4r8XnDwbtOX/5f/uw/7F4Gcnj8fNV7K/3flF8Srl/M3/uPH2e1EHknQ0o7pDIV1SkcfphF10qFNk0N7phe+qx+ycjkGeukEsRxWOudxhKsPelsR7875HJX+GOZDvaAbkLlsyNccQHrQ/CXPoD4eifkT3zF/7zs8/fFsqruTkE8Qa+eTke5jPqGr5jqZ76jzOSp9zd/X7swOVbX+B28q5f8V/5X/kNor/+N8Ens4DKK9vfY/WGNVjrqfH5W+9v/a/3XjDecTvms/P6q/+L53Zvt//E3fyBD6YJp/jA5JdQwzImjQey96ttrQioTkEFSnJw+cuWyN5W24agxwCAfcXYa849H3uOQNOUvdc7twh7hqzuAR7vMXjXgkddTPeP42EH3HB2wnsf6GA671cQUzvXBCqbeCQ9/hd96GK4YWhfBQZyXJG0TtujuPt23zD/oxUrQZg+YA2TX/Wv/y/4r/yn878umUL5U7K//nPWbetnKfcIe4as8Cl3DA3UUyav+D37nN3Cbb9hv2qv1ftghoBlMMw9/q/HP+nX9404fl6klBFa3lttf3/HFE8s4nZB8/XkDh0LTjRdQqqWkegrN8jSu4mt7MsCIQp8Mjki+ZrbaLX4THOX+MhdJtafhqevOAMj7gRtml/zb1WsA+/vlJSHeG0GfWX+MKzvJnDWZ+GkdzBrHwmv9sOtZn+67suck1Gvfx1/pj0/CPrNFqkz/O9pbfC872HZZ3bOYv/zeLycYwkXDAjTLbd2XPDZ7ctI+//L/8v+K/8h/yAMuUj+Z8oywlOOeXnHuAz/yV/81isjENZBbSmXg2ntVn+67sucGTm/bxn438z5s+OQiU0d4mmNuA71OS9Lio7GHQ2IJgW+BRyfpkgj3ipUWHECceNe4bL48tXkCUffL6YDsYNLagZFI45EeHINsT8WH0kawB/WmW1/EBBknZGs+fVLjVhu12TMdELuX1gOlJy0jGcH0p05R6G/TzeUsHtBgziV0DifKad6kN1HMB67J/qa/sLAhq6QBZ4t093lJezd8sBQPW+rsrTg5IV7YeQRAtcFbkg+iFPQN6jdXd/gjaUcAK2jHG0l/l94KgLv+H/dzCst1uey/tWfFvlqr4N/cJj5kCUHEoCE9b4KwoBsMPoy1qFf9miN3xCCuNAtOBdth4Ga/Ke4KgrvwH+7mFZbvd9l7as/KfWeo8y3/24+weAFpELG8uc5AwAGIeoCO/Ee3IaS4qCxceEEBjOPHyqj5AlJl+7geNaIHvK7O8mX6Wfy7mD1vq3zz+rO/cD/13zh/MKIJELakFRJeXQTDL52eTTTl9Rnl+EoEbSNdxyOjOAeFqDui0ozkU6GAef6af+8GItsOW+eMcziclh29KZs3fLFHrX/7vJyFzBc8FehJd8V/5z3P0yKGV/7MtYmeKJrdV7X/JQoute97fZ3vN/WDWXr0QtKNS+3+d/9yHsgcOfPava8L5z970DbffigtNX3A+tCPEfMP3UBtbnjjGMQDy1/1zwluaeR/9cFkf36VJhs9Imvj43ud80mhJ71xL3i5DiOBZmf/Q4Hjn70pLpmbPNewLO8b2fq/36eJulB0O8VznJL7N0f5D4We40Rby2G/4rn6KIqdfQAf9Dks/dPfxxetzdJldd1b3+2NSJ2aRfLTmH0at9Ych6N/l/zvjlfY5QjxX/Ff+Uw5HfM37Cdr25XP5EGhR9tGPPcTp81W8gv0GNvaBiv/a/+v8U+c/5AGUOV8xP5xn+5/d9OmGx5XeumnKSXCNKx0KgiLja46DW8QruE+e6ARn+n3z29d/sLZjrrvG38c/90sOYMZnOtW3aNQGmjw/X+ML7JeydVOkDVJOqw139A+PgDRIlkSv+1iiz23Aj1okRxD8GZ/lqU9wpt8/v+UhC3LEA1maq1uu5l/rP3wi+9ou/wPNUYrkCII347Ms9QnO9PLl3fFd/g/b7bbPiHm3ba2/cmL2tV3+N/vrvrrkCOYxtnhFJzjTl//vi+99/eX/2vPctyr+K/49JnKu2ZV/tnLWQW2SI5jH2OITneBMv5X/LszqL3ENoeMuYMYP2+83BS474+I/bph1BK6QBdwaP7dlXHrN8tCutoyjTe2C6M8yM46+0y8f+Lvfa7/0ghe1d111ZXvrzz2jfe1Dbt9e9MJXtH9e6AA9MKagj7/lIGhTuyC1i49x8XPJGQ/VdVgCzHh0L2RKrqBoMpTlADOeaQ7C9bFTQPzDWIIaVxByhANmvI+R55zxIMhzzrj4s8yMq3+Gec4Zn+l21Wv+brVa//J/xb3gVvzltoz3+Moxn/EgyDGfcfFnmRlX/wxzzGd8pttVr/iv+IdvVP6r/Ke8J7iVf3Jbxnt+yTkv40GQc17GxZ9lZlz9M8w5L+Mz3a565b/9+Y9/07fLgN6+daOiNlAIF8xtLiFf4Tf4ZIT8R7g+NZdpTw+XHoKQkvGjShWv4CxP7YJz/3K8w84f9thtk7e1Vz7uc9tvfOI3tXu947Xtpc9/YXvwV31r++B3Pan9zO1/pX3Bp9zRBl3rI3n547hOB0cRvXB3Hvz4K26/HPpc9Pc7qG0FstqcenllAjJFFJyQpTaX5/TShmNTN9fnTPWFvCFDI6oNdeE+Xs2/1r/8v+K/8p//+DMzpjYSqyjXC7K/7yWoLYtyfeV/7S+1/8kn4Cna9wVr//cH134ukYV0RkFduPzp4P16ph9nIVn8aPIU94KuoWShtixa64p/rde5j3//cXbdiWB9lmu+1bBcxSPWdMMxbhxwoICTuBFmJ8TTAziUniIIH062UnipEWQv5mf0agOlcOoQamR11gZZyj9iTXM9eP4QCiV83pqzt1rbu/+i/Ub7rPaN3/xF7fq/9y3t7e2r21d8xuPa+6796+1H3vVPIBslz09zZFuQCFffBTYu548LCuzriYTVM7ysb6J0oNy1/lAHdvAifKw/2qVrEOU65xdrjm4I0pxRF17zhzXMPrX+dB/YgQUOU/7vgRMmOQNQ8T8fyir/ySfcrRB3TNKsOlb5H3ZAqf3PfaH2f+1P7hV0jn5JfXX+sXRi0dPPdwgis08PqMB7v9Vhvmvw/n+CIcQJhxWEdyPASDCC/UNBezaitx7hCkELgVZXG8QI9wE9uP3GD70YmzdM0AFlrz5GpzmJHmNofh1P8nqbMaB5oe65mD/GxDw1b0HoY/i1Lmof0d7XPvD+f2pv/ZUXtvaEl7Xr2Hze+e6/NgJMDQqraK6QYf+sb6w5aEY/aujnjXbI0FIPc1s/dFA/eFwK2DueNWBHXPbdxM/9qz+MtbFPQsdQiPomffJYwDUXQBbqrTk7hU2GlKjV/Gv95TP0jnCVcDf3j+Rv8KrhPQMv/4f11mWOb89GyE1usbm/4t/jEXZAQd6r/Ff5v/Y/389r//dY0HlszrjaywBZdNYhREtscNFf559r/vnHvshFT7EBUeAcajNUziEIkoyjfqSi49AuCGHqk+BUj48bNkL0w2mTvmLpULyC6Mi4eM+n+UtH6SkI1U3PG9yh3f9jf7E99xG/CML2BS/8yPamH3lY++GX/mn7tOd+FNvGRbyAGXcKPGX1mzifv3BtKlhrpotYc+GEMcgWntuGLsBCnnSBXBDLp4SHAAfiwfRDX4Mo1Dfa2LC6iFdzB8HAa/61/vJ5eIbw8v8IwIr/yn9MmZ4z6RXyCbRbCU9Z4LmNHf0y5ePK/7X/wVlq//cIkS0igBwoZur8U+e/Mz//bnx7J3wvPM7dcLoi+dMzp3ZV1ScZM/3cLzpByMn4Pv6j0h9VnuYlOPOrXXCe30w/92uugpIjuMV/s/agZ/1Bu/SNf9yuuviO7bYfdfP2tjv/x/alP/Bv2l0vvVkwgg9lHs+a2OX9fALETXyM358KkX+6cJM22kjSa+38qb1k7HuSz8O1CRmH7MBdPVMVCW96E5D1BS/mGPSOaM7QXTggCgjVJl4fg93sFa1aEqz5m9HMPrX+dIqlN7k/yWdBIBwQRb6s+Cj/hy/BpSLmhLu5tu1X8U8/okPBXshnYS9HYEs1CA/7sl1t4q38p3hUjNK2W5fK/whWcy/3L1yHN7k/KefBfMIr/7m9Kv8vz4e1/yGWEFKIIgaM4+4u2/FzhvuffbzTnyIoKKHAIoqpybh4vBvP0HFBruM54CgD99fxyBnRpowR8qYqc8sF9vnaTh442rYK6DI9LUpCp1/rf/7Nf8zL553nI/yCa92oXfKRd2gfuOpU+6fL3tVueLcHtRuazd/3gdauf91hrzx/2Zy/KxMLiHV3m4c98QINDf4izRC0a1VgW1vZ9GYtuNJqQyKKeoAN3D+aZOK1oEtSH8nIMSK7wJrWv+M71999U3MdergO1D/eblK+6VbzT2tU6+/OV/7P+PP4qfhXHqn8V/m/9j9/2+D7p6eJscNrt1+3gLL2fz+f1Pln+Ec6Htb5z2KE9zAeVn7fc8zn3xM8XJv9d9/EjW0fekihHWf2UHUALO04MgSO8YJklidXECTvAfSSLXmcB+ijgfIN7/pKcMAV/Za+0QaVZ33ZhsuOgmGkI0iIQ7+gn+Vl9XLfkv7y9voXPLb9+E/9aUgZ4NO++w3tIXe98e75k9SkHXr+fvuuJ6Guk7VJUZOX0KFIYH5TCRlOxSddxryUN9bH6Q5PT3vaWLIPn5jYUITQjfiQ72rU/LVo+/2/1h+eu/TX8v+K/0hwyDEDXWGV/zKok80AAEAASURBVDzXV/53L6n9D7mz9v/lfjLOJ3X+8d32sPmizn++/xzl/Dt+siF2LhrRcAnxJRgb22xkEooIGyB4jeiwh4LVoXODf7WTpgYMjSLYkd6wrUvvFhLwfJi/z+iA6/vf3F5nN3yP+M5fave9/SUktJ/rs3Jlu/YNb+wm0LysNa8FiY2idws5q/PXIBhduMPt9Tf9RDbRu/7jKjLBLfIhax59pY67swk7Xv/v2q0GrPm7SWgHoLB9frK1taBGpyLLCm6R1/rLWuX/8hPB2V/OTv7vo9lCCHdY8e8mqfj3GK38V/m/9r86/40zy3K/GDt55ItoENW0vbB3yPLdx/6mb1nELIjeLby3CRE0anzr5OAS7sdokQl24b3BODMe6qWmzhJdxwo0jiCEb+G9TYjgMcw/T0hiBaXP+9oD2p0+5o7tomtl6sPhvrE4rXDZXOMIYjM+aRVtysIBe1nguKE0JgkEowYxBjan7m7cJEOskK9mwdwGfH7oQAaT3xlJNC6TOl01jalxBGv+tf7yeXiR8PL/EVOLWLNAqvhPCW5KOJX/zG+SebrvKOFat3IxPEzNgrkNeOV/swGMgz0PRXg2mPfwOrlj7X9mJ9lE5suw9v+x58Eutf+5v3wo7/9x06dMIXc/4NS8N8uK95BZ6NjlYQ657NNnX3+WBXwf/b7+w8gDDdZE6yIY7Rd9VLt3+5324z/2ivaFj/rX7frp1v3Ci27crru4EZz1MRnW1P/mzbIacWQ3irexUhbUBiwIZudN9C7Q+Tu+q9/IMJ1eQDfNDzKCyP8Gz46RoR8/GiKdIUOyBHMbcM0l8aOt5h8Gky3CPmaYYTOYN8gEa/3lO7v829pprF39MCocU0W+HvQ9Fpyo/N/tXfHv/lH5z/eCnr8VS4IIq4wjrymnoSvwzl/5r9uEGUm2Yg5z09Gk3aaV/9x3Il/TTuFjNKDwXf1wQhLGBXRoCPqOO1Hl/8r/8Lfj3P/8x9npftkTMx6+KYAv0EC3vkhDeGcRIgjGhK983PrYlmgyfcd39E9JvSf4SFpj7B38++Rr3oLnYv7QHepSZektaO0ffHt7g4G3v/TJ7dkvlWIOH/r817eHfMxNjFf0CaotP6ZQmyDEZHwp3pzPX70DilRtTprG67xqs6W2tYZ4QBR3aIfewtaOanMWZG/Sb39SjLETz2J+ahf0Afr4M6K51vzdrjCbbOK2Cnv3uKJBuxlr/cv/3WfCW6ziPiG/WfqL4l6QvSlWK/73HYrCrslmlf+Sr8kugu5g7pwbV+W6yv9uQ5hNNnFzybaCNGi3ZOX/yv/uM+EtVqn8f27PvydOzVHIw5ruzGxhELup2s9y2zHtp/nlqo42rLP4BCU7bgJW44EnlxW9CWJbCBR+aHlGmPWdFYBYygwlpLcgmjM+21OyATOteCR70hfdInHGuILuOndtX/Z/v66952//3/aWv3pHO3nBtdvFt75Lu/VH3apdfCP7mz6OGfQQEmNIniApZn33zJ+v941R940QrbYtedBFBzP0z/fM0I2mgSCUpK83TNeYC+dkXfO3gWE6aiPnXnmhABi3GCZ+zbXm79aC1WQTtkz+VOtf/l/xr7cjlf8q/8cWp004th/tZ7X/2S6CTUX24aaSLuoDtKK9Xt+GWfv/sAkNNJ1f2JYv0369OoBN/Nrr6/zjRoQbyiZsmex5Pp5/xps+3ZRQ8ynipqpPd8dVcgRBlvGZTbIFST8TpbroBGd6tQvO/UkUUekm6I1Lqixr2bOuSY4gKDI+c0i2IOlnolQn3Yl2+e8+rz3vuT+eOgy99Enta7/r69ot0XqAPDqiOKVbQLDZEaWz88BmXg2IErm2Q8yNfZOcxZzVJwE+COXxpyEYOV5ll10AUXRg1PinQhdA9tsF4qUX28Sc+qQC6NDd6dUR0Ptq/jIh7V/rX/5f8Y/U0vNGzh+V/8waUx7tdRhNfTJgTsDTT8Swyy6L/GP8lf/d42r/i4dotf8jmpiPEF49H6FNwWO4+hSCoEN3p1dHQO+r849MeE08/6S/BjNPqPKhYYEPvqm93G74HvqsX22f+nG3o85XXP6m9hvf8PD20694WHviI+9+4DwY8HGI86xgLRH0SgaCaCeu5DBLnp5srORFvzZtyhOPZCnCrK4D1C566dL1M1kXQDfItLJ6ssK2lOQm+pW+lJLoa/61/u5Y4RkTkC+H/638Kfp3+TOllf93o1b8Wx5Dzkn+JJvASJX/zAjKyTRI5f/a/2r/r/NPnf+QDg9z/uVNnwg3mWzzOaj//2/vO+A/u4p6J7v/3c3uZkMSQwpJKAE2oQVCAgR4ICUiTYgITwQMyENBeSpiQd+jfCyIShGlSFFpgdCV3sEnAhIMCVUSWigKoSWkbrLtzXdmvvfOPff+/r/ff/mnz0n2ztw5M3Nm5syZc+6v/SGzXMOGtZw8pgpnHp+yHk/noOXUj/pafbYYlnsomGffnP6RAQ1hT/yHCsQM/6baju9+Tr4qT5JH3faGHc/Svlvllvc6Wt5/ucsxnq3/phv69Q+so5l9+Y+tY0MNn7v+oOGec9nZRhsJnQlXazYfkI97k1ec8u18tf0mlnWHng6wLyD02Uc+goEfXzaoNP5h3fK/5h8pUvmv9bnWv+UB8sHqT9W/vj7P2/+a+osYqrABXKr+R05FRNr9rfY/jU/kCULUxsfClvLJ7vOFfQFr/6/zT53/0nlb6zfqcT7/6t/p8wJNiPWU8by+gGNRoRHqbmlKDXrX4GqLOG2i6Bzob+Spl7CV5wMJIHWRZoRGn1cU2Gi9fkk4bSGkzsQ9QGkX4RXmv/pBvwhhCPClg4+Wm8pT5Iyz/qfc5aiDnG/HufKNL35Jbnq7sCziM/CffhOqPvpNiDEyjvvc6DfhFeZ/DApbWv9JAwvxzuZry/yX/xaBdn6ZC4Bobf8oH5HrlhPG7pfK/y4YXDeE6Mh4xxgI1z3hKN6NwGh+Wv3NeqVewla+5n/5F1FH81H5X+u/6p8WtVSYEs5aRwiujCcpQ1mXCEfrrRFo6xe6B/qr/iEgvkY1NowrYRu/qv8/ef1fYnCbXO1uLehtosaDojERJ+wkHYF+6mi67JZ9gFOtlW/55/X7IL1m49cKALhIa8czmWwrccJGaWtf093FJvuPSOA+j017jbb+VvKzv/lgefGT7iJvv8kJcuxN9pEzPvxBlTpBfvWJW823rK8veB7j3bt3aa0KjSCZkWEZcXbHuwB8Z8y4sq/ECUMNgT66qh86ng2i1EX0UxjsaufgnYjGnnn9piqllheN8r/mnwmechLJskh+5lwnTmgJ118q/2v9V/2r+l/7X9TbReprXz5r/6/zT53/8idxVuH8u5TOw2mpDdFFeIYS/R1lCfueHlukL/NM4VO0foQeIx9h3zMbWwlvq4WyhG0/7hfpyzzAb3j/58rTbvNL8qVPnyHnXyzy8095hBx1p7vLfhuX18fxen3AWImTMWRA0cGBdsGHROjPzdWoDhKpi4fkkf4YK/opRwg1U3hP41ixyRh37x/5CF1b398pJ8PIPjUgsXc4h6OfAV0NbYLxSkEsy3+P0Ci+w/hwGgghNIX3NMaaE4KefsLIR1jzP4xPF1wGaDQ/g3D2oWW4MUGpuRrOiXZU/tf6r/pX9b/2P6+So/qqFTOtD5ZhQghN4T2NtZYFGT21/zFqjBOh0/v4dMElw2h+BuHsQ8twY4JSczWcE+24Gux//kMusIxGTxjVGQpn2v4uoToFoYxRg1BqTGhAtJXqmyvvavsrxskO9j2Gtd2tPXPHGylQtaQ1Y+F2IX3KB5MthLRd4c6L5eKLd8rGzZvksosvENn/5vo9vpt1Ondd9kO5bN0B8/84u+k25W4qfgkLJqM1/psnSuu7gWsSg8/4w9fdHYdSg+Ycwyv811cruodI4oDWtF/fGewMIm4QYjp2vNoBduLDdyJNUVxgS9ZHu8t/C5CFp+Y/JbjnZuQ3wmPvrkc2OV75X+ufdcQyRJMEEA30oNl9c6n6V/Wfex5Sg3jtf7FQdO1wzweFeO3/Fp86/9T5j2deXx7+qbWVnH/9TzbwQcTTShcaNy4sOhCxEK0zDkQgcZOL/uj2DS/RqIryxpdlO0FH0EWZAW/IwLbl7B3JQ8ky483TZ3arPO23saEy65zCg0ZfKD/wyW6GF6oCNLwnXHbOK+VPf/M98pun/JW8+1EP1h9zGbef+evT5d5HXa9xmTqcny7Y3Rz/LRXUEIcqocKGz/DfHgjBFjEfqbdBh/YYiRd0MWYDXpexw6bZwIDyAB46G3m/pTW9akqbMxYQUlTCHbTR3e/y3+OgIan5r/y39RnrbbBGfd1bd63/rn4MyksTL7vNl6Z+IaLeHFb90+yq+q81qN+vHI88afLHb2v/i+h0RwtGr/Z/X0++qaHSaKTq/ONx0Ou18fznH+/sCggmncuBELTUSCZMXTPRzEucEEJ5fOKEU0oHfVQUsLmdEh/RltPXMu+R/qRkSj6PHzgKeV/YXX79EY+SPzr1UbLv9ZbkxGe8Sh509NGyOam+9NwvyEWb1+oM6iAcJ/UbXe/x60Yc0jYFvWFRHP/19KRAUbzgZocYvjFnA5kWY/SHPn83EASMuZe+Cs6xiQOGAAzqzzbE4+/wmLxa18ljw0/v9Jkj7oTro98BbRjFORz8zocwFy3/YzY0OAiWhjL/sR+PrF1r/iN/Kv8jKyxZFAfU2MRa5TGz1n/VP9Z8y4/YC6r+1/4XBaP2f555EBDidf6x9Kjzn5+lV/P8q+/0aWzt5Gsxnn8hL0+JrXzb32q8svnb8Vv7Wnta/vZ+nnzb38q3462Ef91m2fXfZ8l/ff2z8tI/frqc9Kx/lsPx1LdD/+29Xb7xhsfKO444VZ71mON5BhuOjrG18Q+8+o0mVX4KCp44w43Swz9eEDKmTC/0AfeK2/MCaHbrCA+BeEgbjAcBewINAQjRBshHvPIzSMbBnvnxoGw2ms7UFzrH9jf2cOyAMXw3xFhex4DplFOcNitVu9wvwvK/iXfNf+V/rf8oIqgY2lhLFGUtyTUv4y1/1b+q/7X/4ZM5aQNPa2q8fzf7EddeEh9s7/aic8hQ74ChX7Po5r5PWPt/E+/a/6/0/X/JYo7k9LOpnb/zMwD6bROK/g7n4kBmZxz3uaGPOoAqjvU4c7x2gJHAUF+nO+wz9hhHQTcWawBouc3lp+2hvzXPdK26/6pVDbbCNfD/MjnrJSfJP3/WPfjnPzopu6L4UXLSL93cTQx7GWtAmNn/c6PdfyxEV5X5jaJ00CzOkDeGgC4SDN1NIK6/jZe7k8dzvCvSkwLx9iI0x/hulN7D7mQf9O9Swix/+IoJodmzDD/0l/8RZwu/BttiEvOrtG4ugNtkJMi5Cfaaf4Qr52flP3PC0qdbzDlhav0PCxqWGeMTSw51UBtiWfUvry+PCcPFuk9Y9R8Ve3a8av+LpRbrq84/Wndq/7c93CuuXllcjBB1mecg3CJ3WK4jdqg7aDwLXJnn3yX/fqwtezPCimDeY/VtZr460jHYW9BuNf0JH8x/ozW+02nTwT69MTm97+QVM/mg4FVNtcBf8VR+xHeoH8qUEoEHLyQcRhc+igUyGm3v3j4f8l8d/HdDYZf73fu/We7451+WO207S975J2+W4572f+WQjeG/bFd+/C6PyqlvM/0HO9rV2H+fEVzVG7W39/+6Mf/lv895zX/lf63/qn9V/69b55/a/2r/4/m16v/q1399StDw6pMOnzT5TEBoD0HGY2dw4zMan259hdqzhnFAkDSgituDGmjaiFPcqcMrxzYqdYX8kJP64QN7KO2wHY++AqL5k/bVy3/3RO0342Gk/uv8U3zjVjnhFw6X5z7s5vJzL/qc3PnQL8nfPuRhcsjjXyUnPejOssEUTPivJFOjeq/O/rvl5oQb3PofXQDMxWvT/Jf/eYIVr/kfrv8cHl3QfLXQycweh9fE+kcPzB8UrJr/mv+8/1X+dxGo/a/qX9X/a9f5/4re/+xPNvCBD5Wke86IkWkAIWqvvVkWZYd4vHFkDxWkgYX4rP5Q0wGMw33eiEqwscMA4nFrnaSBH3iWb+2lr4QmA6ejXR38N5v0Qr8ISZfLzpJ/esafye1+7SVyq0M3yO71R8v//OOnyhuf8Wj5yA3+TX72uINcVgVG/kOJtpn+x7u88QvJnR5GCJsMf2UaeojzF6dX2g8dubWHVPSl6enwKRp5fSN0ra099JvQZeidjlX++4M03h3XxsgQtvGs+dc1FmsC8SIOiDYvPs7VXyv/PYbLrW9Ea7l+xJ797Xxw3RO6LmZ3rf+qf5F/Vf+sKHFlELbraV59m9dvg6RL1b+qf7l+e33uE4R1nXCqP8u3+cq6T+jyzO7rRv3XX+/sHWZoxxT2aFDikcqhhayj+Z3zZh1DHKeh9PFDG99pLonevhEnRM8QH+ujjZk3y/Tap7HleKn7ivS/97CfnWzT9h+eLV+TB8nvPuiessVcWC8HH3eyPPyJH5Dnn/3fch996KMOygG6Nr3mFdOEwPj1QjkuIEA081vfc181/9sqr+OYeTGevWig+KwXDebORziyjMvuWFzLf5vkmv/Ih8p/X4+1/j0hqv5pMa76X/ufnQOxJngW8I2W5wZC5/C14zg2dsoAVU4WWTBod+3/HgeEo84/nh51/kM22PLo3kjD/Z6cf9e4GqrDgiQeKFcvoP3TSweBgB7QbrIOrGAQAxquF0JDwA8C4BR/dCuYbBwbkNWCcCF9GBctxu9wQ8JWxWGi/cM4wAGBBO6YXht9xhJ+GQ45E4Jg8BMGH+02vmCDSLSl/Y6QI+XtctYX/jvZ8EP51umflCP32xi08Md05PFVCfWaPvChOb/f+fcqDcc7X+jGK5/2T4U7GIq4IsHX/W0ElQIOlg4CV4LRAIGAJyBw6CZUXClGAzQ8QXR1T4OwweyAjqQPKCQBDU8QXQOt7jdo3XjJht5vFevGCxyq0Mr/Pg7dvKf41/xHLmoyMu8JkXWV/5o/EYe09rr16L2eY7jaWg/IdU8IPbX+NTgRh6p/yJjICUer/mNlofkK87va/zwaGpZUg2r/Rzy0iGCPMhgFxeqt0tDq/NPH4Wp6/ok/zo7J4o5gM+eG44rsR5dXg/bWxPILNfHLG8o/Qx905oZxbYzEP7AlMytOWxJ7d5g3VnYQgphxY+ovU+Nn/quj/xtvJff5tQfJS55yT3mn/mLnLU7YT/7z3z+pPt1bfvU3t4Zv2eeMozvdz/VfA2A8ngBNOLRLX2vQBOjePfRv3i4z/42G9vNEZl6yr8042gLIllAnZQJxQgoFNH2KZ305PkxuQG2N9eW/xq3mv/K/1n/Ul6p/vr3M3P+bClr1XzcVjQniwDbYi9p4aZ5xT+r4iRDmvY44IXkC1v4Xm3qOT8IZ69r/LWGabKzzzzXw/GPf6ctn3KYk2FnYJjqtg4Qae65RbQ2hLKAzDyF0cZ9ET5tUnW0x6Dz+dnwbLRnMsWbuSSbQX6b0JXWuPhFa/j31v7OAugMC7LV7SQ7/uWfLHx37i3L2GWfK+ReLbP0fvyFH3/kE2bLeJWFH15IsaHhhhu9p2Q5tr85kgU4y/qYf9iTvb2qgMvLA6zPMvwHY82u/yvKHY/zhSnnDQI8XPnLqY/IBYk/5ORbHN61Ubta6veW/z1fNvyZe5b+ujFr/XoGGV68nGp2qfxaYqv+aC7pU4hlAY1L7n7/gU/s/Fkh7/rDzTJ1/6vzHgmFn0av2/Os/5KIbPg/B/mlrLWRxCACdNEvq4GU/aLlh6eP4wCMlMGgghboo/5Pqp2ZAtFafU/vrSsdv9bXyvWbHVsd/xND/W07/ui1HyM3uekTPctG5sm2fg2Xv9f189p2cAYWWc/7Koj9k7eoWZfvOXfsQ1vb7bGMUnwHzXxO7n3+My9lRLvTZ+MGvN9RpWvQVT9rU297Lu6z74PxT+np/eh2O7W70cyzAXp/bhPvyv50fxLuPD+edsOY/ctyyyS8are6u8n9qvXpOIUjt+vTA9fGr9Y8YVf2Lcj1jP6n6z/2sKzyBtOvLa3kfL+7FgGis9dTX9rPuE1b9x/rUehbxthhW/e+i4fnjMbLYxFmiz686/3FNdkFL+bMa+98SExSPGD4JkbQpaxNqD1XGN0jr3jzv6+/HRQLlod/ETQ1uYxA8ZLkOhyP5sde+A0aRavX1ljhm7/Cpar7TB1swEm1y9X4woaxbEvKNfeTJMPOP7FdGjmUyPvik//bAiQISC8P5VWD3j+Uz//DL8sa3nZWHNfzE53xK7rFVf94lG9Fyabw7/6NAwU40899emQoh8AL1bsUxPmizB8g97StfpopzFUNQN25b/eP4YXwYE6MQzzrDVqrPkH4Tmn5lKP89aDX/mguV/1YHbN3YWscC8VXUrk+nDq+1/vt4VP2L/SveKUVkWGu7KKV63eZX1f9m/8e+xz3Pg6lX0iKiKZ5djAPhvkdY+5/GV2PDnKz9T2NR+9+1ev9bsnqRKoPVC9QQ0lBgfFWQsjJo9Sh0TEjaA5CNFyMC2HjB3Mjb4iQNLMQho23U7+T+Cj76FNQY2e4Mh05KkNcKLYkrgI19reSU/xgbfgx8yf5t+7r8hz7wPeAv3i23u9GBZix+Gllkhyxt9gc+k20GI20Xv0cR/Z2vej/2XxV7JWy0LXirsnh1kavIwq+i4Y5+JxibGr4bHFZYvJXAeDfy1GUQJszrb83EYMkedJf/fZBq/jUWSBGGhLkCuCetyU9VbboB0Sr/a/2jJFX9q/pvBaH2Pz8r1P5v6TD3fNPsL6PzkWvpr3X+uc6f//SHXPp8mIktwjNLmLKEs/gyPfMSJwTfFD5FyzqJk4+Q9OXgSnhbPZQlbPvn3VOOEPyKXyJ3kiOPOlI2rp1QkHknuiHPQyceBAfvJLb8diKBACVahuE9uDA8uW0P0zvWcH+QTR8PtKKV9EMYLaDpQ7dTlayvBes9oDXjUzz4jZM0MJgB6HcGSLlNJq14+V/zn/LR06K/Vv7Hl4BjvfWRmcRsfWkPuX2t1fqP8mP1xg9yUbCq/nUxsYRiHWd4lDio11X/a//T3Kj9PyqsrRPFuW5QeUnDgrLFA5ozQGqwnvSm9v/r1v7vP+SC5Kh2zYnAxiPktvJJedPr3iePeNCdBw9+azbuKxumHgSzd1YDokqMDh1Kx0E3FwmVRbFAm/eQFFr7GgQZk/QLCwwg2kgfx079+ZA0V96H6a8YJlU5f+j0cY1Jx3FaeGi8ipf/Hh6ET/9FdMbzZVz9hXNNiJ6Mz52/mn/Pvcp/SyquTYNKmZs/JpUutf4jnzwmVf+0Gll5j6pU9b/2P+75WCLEa/+3gmHlU7Ha/y0c14rzj32nLx/yOzwOHe7qFXhtFtnc8VfKP8/01dY3b7y2f2p85cGWlA/LnRj4t39HPqOE777pt+V5b+p6DLn3s0+Texy175AYd9QHFWy79XOhdpDyz4d2OGhoPGwRZpoxrPBCPRlaYQmjiLPImPpk8K6wFxANdpJmhPZCXwnRn/Dyv+a/8l9f+EjriWvClkqsPa7XTAO+0kY9GXLNQxfxWv8pslX/umCw1lf9r/3P6kXt/3X+iTNhVyQywrMeIfoSzr3uurT/6Xf6dHvFphKHfItXxnMALWDBmzaiAUurj7o7ftvWVSS2dePHbdrmM97Kt/ox+Er4V6oP+nNr5XMf8Na+Ef8C/medrTz0rztKHvuaj8uOnTtkzdr+zdpder8B3+lDgxxaa49Tu4c5O/AqLx/yXCTNRfAT4LBGGdIyZB/1tfz4oj6+x2hf2FdB47OU6sekLPSO5NUf0jhu5je/6TMYiANqoywgGmRJM0LQiLeQvJRv+1t9LX/5X/Nf+V/rv+qf12Or3VX/fR+MzSTvZ6P9Y95+hX2Nex70EQfUtmJ9JtVfWvm+x7Ha/4bniTZetf/X/n9V7//+x9mxXuMQ3C7iyfvleNlHONLth20d0FU3t3PHo17CKYHcR5ywtYd0wil9LW05XvYRtuPRb8JZ/kOeOgiTrrXr1gv+DZrer8FHOyf4jRZ0vrphsvylpvTralknExQQzYr6sq+s4ECnLcYi7luO023/GdgIgenmvzKmOhkntYO0KQkrstoBaK2BI/vLfzsX2B9vnAhozb8/oFT+1/rH8hjVj3bNaL1hzTN+XEgjDgbWJaPhMt1Y66r+MT5V/5kTjEiGtf/5+qv9v84/ti5YZwOO6vd18PwXf6dPN7OoHEgV25NyJbkG4bR9UX9Wyn9lhQLzEMt2POSln5eXPfzhcu64R372eZ+Uu95038n5pL7d+tRF3F4IVD3xQqDRGRNXT16PqK0dyFNBawOFnd0PNzZICBCfOSD4qCQMw2Cz+Mka42FR44MvgGiNNvdb+8IaU2s8Id/ywxbnDX3BXP5beMcXhIlBRC/njgHDvJBm/XqhDO47YY+6T5DiMZ9tdyfr02PzXvNf+V/r3xcEl2KsJq9lVf88Dig9KEcBJ6oPeoI34hnMLGeQGTSwMejoYK2jQNW/PiYWH70wZrjvghcZOy9elPXpqfqv8ar9r/a/5fY//U6fL7R4fdKLoNKw1qwncNasboFykSkTVMRth5taUxCdJIAxCTS3XdcM9lF/W1TjdR7l6w002zsDVTMLiZniFpCfXVel/wgb22R8Nt5aHvOKD8l2WZK1cG7XZfLjr71fXvbnz5X16/WtPqXRH4Rh6L9qBsGICmJCyb+Q/1ZV3MKRfQhvDGEceo9R8L834k4gLyAaqNhmyb6X+aK0zl7gSR3eoYTR8U5l68/Y/+Dv9JkFOp5bUP5rbCNENh/DcGFy8PvyDgMoS0QvZPU+whsTpRxgskbcCRZ9RT36zlbzX/nPdKn177lQ9c8zAteq/6mc1v6nCaG7R+3/sbvajtqdZ7Cx2l7cbbDYbElEHg352QWIxrNAt5+DXvt/d2Dx6HW3Hq+IG+Ln5x6NuZcvJxjuBJNXNMJtbFf0+cf/OLvOcPd2OMzqDITVw/vRn61Sa3NSEacOSyJNEiZRlzBIHG3Mn7g150lD/+6IqkHcwzaOCRS4LvhOfxfdcILKugFUgIXS9EH26uW/muWOqp3T/q+RTfsdamzmv7q65cD/Jb/1uI/KGz51jtzh8FtCgfUPAszCuIz/Fm4VBWTjXOK+nX+Oz/iDlzTwG66xZ//AHu0fTU+iQX7K/7H+1Zv/8t9Tr+Yf2eet8p+RqPVf9a+v6cgK1mLW96r/fUy6+NT+V/s/N9TmwNPcLnT+5Zrr86vOP6w/ukMhLNomzr8gg/E6fv5d8mD1STMq2hE+5qzxx8EeMUTrA97jpI30qSLSTNY0qFxAzBXHIClD6iVEX8apG5B9pDkFAwBzBpe9evnvdk5f3d6dsv3ii2XngOV8+crnThM5aodRJ/1nkK/m/puPMX8DF/WGc02I/oxzrif9N2VX//kv/3Wiav4tW9sLc50Q/Rmv/Pd41Pr3zEFuMCecUvXv6r7/23qu+ufp2lxZ6wjRnXHmeq1/Dxxiw5g4pdb/dX39T/9x9hkFx5KGfYSeSTOvfL4wCK5hzk3LJd2WsBALGvQA7fQ1GtrxVipv6tL4jXofHMTleJJQa89C/if5Sfsv/YK8/FFT3+nbKr/4mJuabYxPlmcM7Z1RjgHGHFD6RTjqD0J+65WVBTobfv4AASEY/KNKYNRmBipO40Dmy1/ojldJAdEa9UoI2aj8eGscbw8aVP758mAKxQoMz7AdcO5bj6EDctroN2H5X/Nf+Z8WXK3/voZZwdBL1T+USWvz63fV/24P1YjV/lf7f51/6vy33Pl3Cdtv2oJHZ170oRH63ezr6IysrKRNSbEPEI225PGm8ExzSb9O6aPeKbhS/jzWFD6lj7RF+WlnPOd0sb/4G5+U78kt5CY3OkLu8VvPkf1ue7zsE0p36dt+6693kGzSH/RMZ4ZOFvEa/INR2mx56BMJINpuezrRlImnFIuzdnXxtkMaGINizik+S59K+hKkhiG0j9aCJx7a8A0W0swgjh36h9JhB23QW35UN+uDcfyWVPvMVv77XNf8e4JV/mOF1fqv+ueV1q6swSjIVf99r6v9D9nQxyL259F+Wvt/nX/S+as/SXp94Vkvn9dIY36xBuHepXrY1iOT1bWZ9dX5b3j+7f44++A7fRZtv7RBTF2G2k8E64Gd8vhlSEyEQXAQjyLZ6mvlTcQ0+2Uuf4yns5ykEopxyQMy8eA3uxWn/WBhYjm79zGJQMuttX81/DcDYITanv2/+Et/J696yY3lEU+/hbzhb/9Y7ve0V8the+PXmsCs/n/3W7LlJreT/ffB322Ilv2POYBe49fr7ngp1SBFUgTy+NE9CJB/n1JjxO8LYhpUP98INByCMbZtCop3Dxk6vo/BR1yo72egHb+Nt81n+ow2x5kJEafyXyfE10vNv+adrf/F8g+pnNLT8t5ytPLfQ1Pr3+pL1T9LB4+FrRmv6VX/4zyR6m/tf4jJYvW39v/+TGgrDOfYOv/YHu4bUJwd47w5OgfW+U9//lFzxvZpXCaaPQxpn0H0G3NAAByY9D9AtHZRekFL/cGbD/YZXzE/xtR/NL8dnzYBojXm28OJ0ajA2brrVeG/2an25NgiRged8L/luPecLK/7EzfvPX96cmcnkfs95xNywj7X6+dLO7q5I5NCuovDCfDukJJ4gF4V/nMObfx5+QIb9V/nDx4o7RAfi58+QJk28zUg7sv/mv/K/1r/Vf9QDcet6r/uI1oguj202UDyHo3oce8iP/ciQOuft5/F3rUwP8bUf659PL6NyQNw8A34VdBcogIIpFbzX/Nf+X/tWv/6nT5/p6h75wVFSf/jg5gVBM97KwWoH6R5bSAnSklQUpEh2kHyBKQu1hwWyw4aH8fox57FD3bK+hA2gqIusUsNgX+AaIaHz7jHSFcP/90PtzL83/c4+bm//oI88PKvyYef93a57ZOfJAc2f5/dfGCwcaPewCuHHgN4ONN/xCc9NGGv4vcqoI04X5jbSz8GiuEA2XL8aUqGpjPYR/qDkTqom/Lz+M1GMptB2X+8KDZn/tGvg3D80Xj+xpDFAerL/5p/pFvlf61/Kzd6Ye3APUtRhlZTqv5ZuEb1NQLFGHJtMX7z+D3mfS76vod73/uq/tf+t+z5TxOt9v86/7D+jOrNteD8p3+cXT9eZ+XXCyVxh+jwRyAWTTwO9rRxPyi57Tb9kJp++9719kU5ywKfN974IQ0SXthcl/ul26/duj7qBQm8DnElfrX2f/1N5N5/+CS58Buny2e/+k2N7HrZfPgt5MZbbyLrLGKz/EcM/B//7tPIfzhuhQ/RQNP5j+/52V3g/SF32G8i6YKPbXgRTfPPHdz4bEDF+ogncfPGbIj563Hnx+IcFmmd4aC5nmb+MbaKlv99XCKSPhu4sfhxFobzy1yo+Wf8hvFh1Agr/2v9V/1DTa7639cE1g5QrOAGJEcP/byiNab2vwgKYxG7Vu3/df7RJ7P+Ic1x1FxvXGsO7dynXdfl858+9KGx8GQ8B63vtzNzvLtj3IHzEOj9dm5EtyYkcBzM7RYU/YcJIIEPKD4pY/nhJPJAv9wkoyz4GG6H26AkbXxAGCZFzz9lX0+jPn93w/UN3+kY2w+ZlfkP2yGTfaW9TrtcvnzKw+W1bz1bTdgqN77R2XLON2DNyfLrr/0DOXhj78/QHo87v4cHCYyV/fPPeSqt+7zTsN/1rdB//cz5zPlHbDBfUAxrFIzmy+Thk/YHzu8Q2nymfihYiT7VqFr7eJX/EYuaf8u3Nj88Pyv/Y7nqWvVYLFv/a/1X/fPynWptEFZYr6v+Yy/VM5GuKTTiPB/U/lf7f51/tLbEBuX7dXc7Xi/XwfOf/pALKodevIboDZGAdgZUnEUb8bRqg0uPU8rO7+gIfvJ2/TYLEAxKq586oUObHikG0PUrrdPvOPmMufNhfEc+QmO9pvl/6ZfkY/rA98C/+LAct/Ugc3LXpd+ST/yf+8lbP/xAecID8MfZ+xaRDgI87yl8IAX01kB7Aov3tMHwE89/6OIrv61+s86SIuzpcwCE7lf1MGe4xwUHT8Cu5Tv0LaNP/faHTMo0sLWv/I+Ye7AtWowJSMQRcm2jfsw7YwoG4oDW5swX550QMjX/lf+ePHHlGsbtnHyq9V/1DzWr9r9m7cQaauvzvPo+r7/qf7/nIeJtfOfVK+57hKajzj+54sepo8vnOv/hbNVHyN/p6+8jUAmwjzB17TGadREnhNIpPNNWOnCWJU7YjtfqJh9h278n91kXccJWH+mE6L/sAjlH3+G7z430gS/oa/Y+Qm5x3zvKB3+sf5w984K/vdeTeb/JEUdigFeZrRC5kKULSN5rcvbqIjdJ5lPHoIykhUwG7SuT7Su3NjZexYyHAHtFU/HBK5t2UPMB/aGVPuSRAoeerM/szvzEw4Hyv+a/8t/rgC4hW8q1/qv+RTkd1VtLkEgU8GDbIA33Tav673sZ35mr/Q8vunpMLFXa/Tr27tr/sbCwNft5pcufOAv15zlj6y9tPOv8gyhep8+/+tDXVmlWbMAro610/JXyz/NhtfXNG6/tnxq/5eH9Ttm1c7es2XgjOUHOltM/drrc5+7Hyfq1O2Tb9z8rH3/paXLCU69P5plQU75/DpzzypsVE00FFhXUEN/4Xb1ZD1qMZv2KA6K13tnIxk8J2sJ7Spm46QFHp0/t9cIX3xHRDvu+SDBgWI7pGvTObHH93scxwbz8O0/lv8ev5t/zB2lW+Z/Woy4hi4kvtg6P5ditRY8e1mbkk/VAiGuRHE4LdaEvjVfrv+qfJlf3HUHikXBV/7GiYsuzReTrzans45pThtr/ooD154kuJgiPvQgcEHGt+l/7nz1o2+LytYac8NtrxP6nf5zdstizOQzPJaMjEbFFEDKkZeirotc34lfZXJaMX0lRtF0VeKK18q1+Y1sB/0r10Q7CVp50wta+Ef8i/nuELJGS/OVfe5X8xR88jyOJvPDRcvoL+1tg99h3X09AyKEle5iYePGsP8TrBqoEvnLkwmojmaEj4buCF3CqzX8laui/8dtzV8yhqe3Ht19bUx+6XxsFvoy9U/x+SHf9xMt/nz+Pf81/5f/0+rM1npY6116t/xSUVAir/uGBrK8nxFlv/WyB2Hm+Vf3H/ottenr9Te1nXIP92lTZSMcpfs4B+IlzPjz+/XzV/o8o9fHEHWMLlLGv+lf1D/nQtmtC/dc/2aCTh3rDh4TWi/aevIBorN9dDhAJaHyKd/yBLzpeN4ghMSBwjkN6hqmP4xCO7F+hPSN5HddoHJ9jBzS/YwywwA7qoMgkhHzoCLj+0AfLb/ztPYy8dmlJdu7Uj3I2beP+G5RCOaCBAwbOXxSEqG8CDnGvmP4bOGRUXjyp/d02o43YdQPpOlRT+N/tae0r9d1YLsVxhjB8SHrdziGX35HXITc3wtb+8h8bfs0/86Pyf7SgB4usXT/jclHrv+ofUsbrb9V/j0Xtf15GePbo3qmt/T/WSp1/PEOmrjzToY84YctPukPu64Tt/nVdPP/ZH2e3sDHnECvgjB3xWf0QJi/wtu2JvqxjkfF/Un7Iz/JvkfGvCP+hM8cOdmw6QA7ceIDaulMuv+QyWD1qazas7eXQm3UEt/+6qd9wMyK0X680nyMgjf/2zKrMfJa0AeyXHj0I0I0Pj3AMX1T+6i9G9EWHBw3XP6kvJeCY32W7RdyMZ3rVFOov/xF0/efTgyno5sZwTnPAmn8NhMWLgdEocQ0Bjdyq/Ef2oGlAav17HPRa9a/qf+1/tf/X+cf3zzr/NedVOztftedffacPG3fTMo04IVgz3oh2fZlnCp+itbryWKvFTz2Ey415ZY2/iC2Z55IvyCt++ZFy7oTtJ/7Vx+QuR+47nKMsqzJ2u9zHM9PHJ/nRT36RGm8LGR4PbX7I6R8k7FCsR5/uUKyD2XhhA/G49fO13sQRW3m9XAJaM0bFKQA6afDFT+EOIUA+QtgJX8PeDi//LbztxR6ya/67Fw0q/2PT4nqp9V/1L9XTqv94yK39r3/I8VjU/h87qyaHHUXs0uNxa6ccPzM5f51/6vyHk+8Vef7V7/Qh/XwYTzvigHvSVqpv5fy7du6Si87/vlz84x/KJRecL9suvlAu33aJbL/sUtm5fbt+7HG7PQQgffZas0bWrF0rS+vWy9L6vWXdho2yYeMm/bePbNi8RTbus69s2vcA7V8Xzl4d/HdTWBiGs6DUjbeSR73sfbJdlmQN5m7npXLBNz4k//gXz5P1G6af46GD+vxBKbTGQxOf0rxYa1aQWdWP+aHMGfgiP/+s2/QrO/njoCpnIQ75yD/PQ9jkrxQ7U7I5zAXFF0QYiIc5fhkdPCCb/hCgI4QcGxANdNMR9hgo/xkuxLLmHzni6eL5EnkDYPkU0MjxkBQB9HeqK//7d94jlhEfX/dc84gxcQ+4r0qNL7qs1fqv+heLDvlQ9V8XR/wYGeKBhZLCw326g9YXa9D4gSuR69EWWu1/tf8hObRZarT5onTmS+Ranf8sWhqWq//+r7/eiVlDC4hFb0XAiONLTDLZR0WGsoBorb5WvlM0zX/BD74j3/zSmfK9c74o5337K/KD73xTzvv+d2Xf/faX6x90kBxyyKGyZcs+sp/+gMm++26RdeuWZJM+0CH4/k9k27Ztsn37hXLhRf8tF517sfzgoovl/PPP1/sL5Yc/+IFc8OPz7aHvEr1He9qbP+d2211zae03/5QHEG01/HdNptPUqe4unLq69tprrWza/wbOFfZsuf6vyK8/9t/kLZ86R447TP9OX2ePstFG6gVkP+Jv+HT8Oz7ygw0/dBXsHQ4ayDA0fzGdePSbHHDKd0gQzFbFY7xp/7WbVQaDDnAQtGV7TaeTOzr7Mb7h0+OP+MGW7Sce/pX/GiCNRXfIJx7xqflv8qfyPxbm9Pqr9Y9ah/XkYULd85gEAeSqf5FDiEWghAgTcIaLdMKq/xEzJhhipTjj00KwoZYznsSjvtf+p4HRWNT+FwnCWER+WN4AZ/50SBCQbyn/vNY5SXvs3Ff1z+OAeFhbYf1f6j62RwWAXOjAMRc2EbjRW8XtNnhsQ1I6YNem8KCZOsU559zQOnnt+OG3z5HPfPgt8vUz/02/u3ah3OnOd5b73ukOcodff7gceeSR9m+tvnvHdu6558p97nMf+fKXvywPechD5JRTTmHXXHjppZfKqaeeKn/xV8+WL5/1JTns5rfxj+9Q8irwH0Pj9Wz7LxYIXsxj271bv9N38cVee9U+j+GP5WufO03kqO1G6KaAC0yhzbV2zPrlKdevDJZEoaFZdVfG/A83FbUDNvDjZcgcSxZMTKQnWNz4LjfD+n6DSvEL1hlAJct/jU1EsObf8w1x0Fb575kRfxvYaw+ypVtwuEGkohFnOinZ6hW7lc4UMxLCzJoFAj9KWOvfwmOVruqfxqLqPxICURisJ9B0TXHZdWup9j+Ea4GG4FlUnZfFqeq/xYO5VfXf04Nrz0oys6tbfEogHnC0XpXOFPMA6/UK3v+WIpdp7giaU2opnWp8sKpjffBGmzmll7g1n43m3b0eBkE7OcZ/ffmz8rE3vUi+980vy68/4Qnyt09/gxx33HEhOQ127Nih7/YdIk984hPls5/9rLz5zW+WCy64QN7+9rdPCwT185//vLzwxX8nr3/96+XwrbeV4x7ym/Lw299tJEPbrgz/MTjHscAhRgxeBNRut31BXvkrj5LvjazdKg89+WZdPE1fUmHspgdvQY+EE4GzDHucFxCNPYSwz7pCHz5Su1srAqDzO44HWLsPQfrJhKc9oJNmAlBjRLuDdtMEiNbyU7bTpzymwrh73ewPcgPCSKWW/zX/nlORb5EpXYZoclkue7pb3lf+1/qv+ucLAtXa9oRUr7GEbM0oHNVrXVik2VKz4g2i3Smo+o/aU/ufV+Da/4frhWsHEM1zxSHu237Qxs1jC3qdf659558lWzSY3PHMG6WpuSOuTn6WAkikPtOnpMhJK/7nn/tt+ZfXPU9++M2z5FnP/FN5xCMeoR/T5HfsRkMOCJdddpks6Z8vOOeccwTv/uEh8J3vfOeAhzeXXHKJvOlNb5Lnv+BF8q1vfVuOuefPy6Of9Qa53gEHm4nciMgPeGX4zzHyuMRHr6zApg36nb6X8jt9zrlrp8iGfa8vG9dHuFPMc/zdUWrHou4LQU/tMSsS+soDi0hERBl8Bsc/dKEKMXb3UhB0BQ1kFeOY1hO6h+9koscbY+Oj9bLdXEFffmUEY6PNgrkPbMpHm9DVtvLf41vzz8ywjNQbz8jKf2yKegTlO3FTBavWf1ePWGu4nvh1rKp/XF9ek3lnqw01Ogijeq0dVf+7ctTlWe1/TJgG4pZnA6C1/9f5BzUk5URkjAGr19ey86/9kAteixushOQ1Y0GYugLtX3sDoX8drpfosX4U0Hbpk8pp73y1fEr//d7v/o784VPevfDDXgwumzdvlrvd7W7ysY99TH/ARZ98tLXvDp555pny4pe8VE593evkRrc8Xm514i/L/Y+9u/3ICyzCM0Nvmd10F9pO2HV0yJ77TxVD3b69geb/cOUYiu78vnz9E5+Sdbe6txymf5Pvkq9/UD6mD7nnbztMbvOLj5Ojb7j/kD/0KAh9ePfYX30FDdTB/DMV3IzRp6toCaA1HPh4clHC+I/DguYPVuC3xaW6ucjMO72ENj9Aaic/E2/5hDGCw/ihB8q08VVkvrLejm9MZJ7gh6byn5NuAfLg1vxb6jB3u2cayxdfkcZQ+V/rv+pfV+Db+otDE9cQ1kvVfw1C7X+1/8eZxM4zeuERxV5Aq/NPnf9QOFEvkRmrfP71H3JBJY5BbDUCt+rsBcoy0m3w7ATOLO2QjpA7Xe+E/vO++y1594v/jxxx8P7yhc99Rg4//HCV27P2nve8R4499lj9QZctcvzxx3cf8cR39V7wor+T7577PbnNvR4ij332W2TL/gdZ0TWzaRchhicOiEZfV9n/2fGNcTE+bWCMt31ZPvDoh4p+c0/u85zT5LD1p8lrn/K78r1bPVTueOhp8pbfO0VO+tvT5FYH6x9op73mxPBiLsUplq/Sdw9ZSicNUpYK6ZWOUXiUAIv3ClttWMX74fVxzPqcYh8X0F5+XJSpxvTDCcHwsM906wgRlZE9LT9lO31D1+0dCfTxnQn6Wv7H/NT8V/7rAunXB9aK1wEsJSxlWz+xILG2bY3aGte+YPJswk2t/6p/liFIBqv79kId8wW1OHLKGKr+1/6H4lH7vy0HXzl1/kEc0Pzs5tAITb1Af3cmNIbhxT+Zgz3NNV4Xz3/6+/4RTkLEKOPDmI3vEGTPzHEfKFbRAwbHV07/V3nvy54hz3j6U+V3nvSkoO452LBhg3zxi180BXjH75cf/Svy9rf9s9z0dneRYx70BHnwMXe2g5wxMHs4HH0lBD3j5JsF98D/ZfVDHxpg1q12bzvnw/rAdwd55EteJDc+YIOc9+/v0+/1PUB+9Y+eJgetu0R+6sd3ljPO+Jrc6r63MBWzL/1DmT+EwWUPjA2pOM2AEXifzY3B1XGHIMehzlYbRiSv6zP9qoz6jWMQ3+wk9IFDW0A7MHGM6KANuEU5dAt9POKA3ob2kEpY/vtcc34QF8bE4+cR5YQw9jX/nm+V/5ofWM+1/ifrja0lXVRcX2DKuK8r1ijtZGEKyNj6gyOkh+ux6l/Vf88Ir0fEAb0xt9jv1K439nrmJOiWsyHd5lvVf49n7X+eT7X/6Uq7hu1/+vHOOY0MhGCfwjOtVZn6/uPdp8gZ7z1FPvj+99q7ci3rntzj1ztf+cpXyUtf/veybftOueVPnyT/63lvk8369/fYBs8ZyR72z4TkJQTjFJ5prbJF+hIPbOU/UxV95539QZFHPl1upB/rxC94fv+zbxY58W/kp/Trj7tlkxx2uzvI6ZeEeUkfzWEM9M8c6lqNsq/E3cCjk7hBCOIVEfTHKyNQiySneuI8lFi/9nb9VAFdaBwrxrdXXBTnKy/OlK4w02wIGvGwB/qoAxzEqW9kT/CX/zX/llGV/7X+UYuq/vlyiFhU/Y/6aPuN4rHf2H5S+1+/v0csav/3E8/ovKGrikcWW2CsNYDa2vOKEfMFbFkB8cjHOv/U+Y85hLQhvtz5Vz/e6WnqMGcbcWQdeUjbM/ivb3iBfOdzH5XPnHG6HHrooXumJKTw/b13vetd+l29l8lHP/qvcosTTpS7PeZp9kucQ8W0HRCt9aftd67+2vL3PXuGteO1+mkntGde5Vt3PZGv/jCG/Z58Q58Bb/3km+ofaPe265IfK7Ij7giyDtfdvUqlLP5KsUNItA9x/pDWf77Lfp9FTeHvtCCcpJk8LtrgFVvGNSu1UymAaMSjCNrhy2iMA6Tpg0k0F/IRorvH3Vd//ZOC5X8fn5r/eKczcqby31+w4SGuXZ9c67X+o5poeWJMQGGtI8w0k6j619d8C45GijHBPR6+q/57HCxhkEmo1zmjrCMurOWEIPd47X8eu7znZ7z2v9r/fIX5mrku7P9zv9PH+tufyTVJ9IYfB8jlZzn8zA++0X605bvf/a7svz9+bGTPGj7G+fK//wd5zSmvlf0OOkyOvtuD5Dce/lRZv2GjK4xXbIfa+yLYF8SgjR0cbDrj7j3zv7NnrHAwXscH88xE2r5b9rvZXUVe+dtyxk+fKgf+8F323b6HHOkPz5d84wPyodeeLYf9jj4YjmIQOnpVHY+946WvGuV3vgwPHbYgVI5bjn/0I81/1tkZvwwC/+3VqtBInK9cQTTbT5xwIfl2fBqZdNO/0Ff+x3xoXGr+NRbMj0iZiI7VPXsJgfnI1CJsU6+9Xyh/k7JunKAtJN8OOlufzXWt/6p/yCu0Wv9V/5ALVf9sOWBVIBRV/y0ctf+hPup/3fMPt1ZCD9Ps60L7d1IW65DrUYvTAufndvihPv2TDUpIi9zYOZDe0DlC8HYyzqxXWxp21+OxTFTX6e87Vd7/ir+0P6uwJw98P/rRj+zv6b3k5f8g3/72t+WWd/s5eej/fbkccMgNY0y1kxh9AVykXQn+j+K7nF0Mm0L7G6FdbPeSDTc/WR71uG/LKX/2S6Zh68NeJkcduFa+8+6Hyite9WWR458qJ51ww2Z++sH4kZ1dOTZz/O+SjTkxii8iD6M5A8TpyER+9SaNsUa8172MPtoGbSP7xkMMKOV/HzMGJseTOOEovjX/fY4igE0CT+UX4zwFG/GF9HFubHhVwDGn9Lc08mYdUzhpNf9NfCv/+xy1BNQLYwK06n+3J7Vrb+q+1v8gffrcQmC0TeUTaxP6R/UJxGXaPH3UTTjSz1wHRGsmcEq/M05fG/GF9NE2G14VcMzpEYZU8mYdUzhp5X8T32ve/Os7fdo4oYqOcs4Y+gse+IwnyaiCnqHDnfaNL3xKPv2uV8lZZ50lN7rRjRLf8ij+3h4+vvnyf3iFfOTDH5Ktx99Dbnm/x8kDbnNC/KmFGfK0i3AG24CceFfbfxsn6e9iHTTGEhCtY0X4LIQeR79ZI0ec+FR5yt2fLJfvWit7762/0qltv9v/iTzq6P3ksJscKmuogNA44kKavatGvToyPl5js6pX3GoX4FTbvWuX9umDv8K+URcp+V5xuw0abQhIXfaOg4rjs8hOo44GwjCMTQNpbKO3DyQcgQ46RJx6lV7+d/FBWBlSJY5azX/lP9dsnxxcS6Tke8XtNmjNOqWuWv9en6r+Vf2v/Q/nC9aQBtb+X+efOv/9ROdfe+jDdtMsre6e23iG5M004tQFeNklF8n7XvYMeeOpr5WtW7eSZVn48Y9/XN+1erX92YUDDztStt75/vLrL/wDWb9xs8ll/SDAFtKMYc6FvIBorTx9I3Su4XUOlPSvAAAv7ElEQVS5vlb/UHL+eLQLMOvimKCtWb9J4sOsZv/Gg28hR7QDLXvvGytY7CFeCynfyW3OZGMt5EXxReMTQgiCTJIzBF88dM0bzzY8dbY7BKoyp3kEoA0YteLdS6PNsMe5YUnIKx9tMGqjP9wwH9A/aiE/66ETZpT/mD9GjohDxn5WvtX8Iz8r/2v9T68XUKv+Vf1nVa39r/Z/qwnccHn44EEmzj11/qnzH05k2Fftoa9/n6c/sHY5w7NbB7nleBA7ciD2EUIVBvzE2/9RHnj/+8m97nWvlm1wj+/p4Tt6r37Na0TWbtAHvfvKI/7kFNn3pw5RPt/maE/8zICmMsfXQ5LhXgaR++CdtQbsI5Pa7x+ddO1XlP/mJI0JBxB0/gFb9I8OwS5kdPDBwuwf8T3xP0ywr9TpyDYSomb22F0fO/IGuQd8V8xgEuo5XAnvoYiTojTzP94tBAv+sDto9gfejYCLNjdPEUxomiHi3fjwwOMEMRvK3i3EHfQPhgfF2ct/i0/Nf+V/rX99YclWw1S9iA6CUf3RjrZY5vumAFX90/2v6r/teUip2v9q/6/zT53/rszzr3+nD8UHFUibJ+Dsd4LsEN4esuNgDXnf4/aSy7ddKp/50FvkLWd/CeRR+/znPy9vfNOb5LWve71ccNHFctQJPyv3/d/PloNudLQf3MMgf17QV3NiV96tT2ukuVIw8uDf77/9vouEIo+yEg+GGGbV/e/Hx5huKa6kE3q8Pe59P/zxf/R11fynMVdj/91nRANxQcyuW/Nf/vfrpOa/8r/Wf9U/1AE05gKgN+7tvslyXyXEPnpN2/+r/lf9Z/7W/tev+Vr/fSx+kvqn7/ThVU4tjN3DgIUWZGtWWjUD+xKrr8wYP9590WbFV5lzEVb8O1/9vGw96mg55BC8W6cf9bzsMvuO3tvf8U553/s/IJdceqkctvVYueEd76e/wnm47Nq5Xb7/7a/K9755tn2e2558NePxHxoejvZas9aehdYo3GuvNbJm7VoxXOFapa1ZWidrl5aUviRr1wa+TiHwdeu1b52sW7dB1ihtjcqjwW/3Jxw2AH+s20ffA/+pwHV7zPrxfFy7t9XNjcnHdFnEV//NiO8s/dRAuFt10AbThw59tRrxNBS+Kc6P27nfyX+wDd45c9nulQlEKHwIhQpI83njq5n9eBDxAHND5r3zmCa/zPPfbO/9SZKGcmza6772/Bi3/K/57/LP0rLyv6t/tf6r/lX91z0itqPYO7mf9Htdx6CMtf/5maD2/+nzRp1/uN86TOcPXT1xNIwFh3WF/TjWV4f7+bGNrwv11zr/Dc/riJc+9OnHLTRGeDBA26VBBQ7oLYIe/eCMcFs3cXKzf2nD3nLm6afJETe8oVzw4x/LRRddJJs2bZb99M81HHDAAXL45s2i/8vSD8+WnRd/Sx/U1sh6fRjDaGvW6ANd/MPf40NiMEm26w+87NyxU3YoHR9Luvzyy2XHju36b4ds375dwL9t2zbZsX2HXL4dfTv0gdPvL9N3H+1e4ZI+AC7peOvVTvzDA+H6vTfK0voNsk7/nf2Z08y/p5x6hkJ4x6RbzH/y+8M0ZBgh4r0+G6jT73eYBfxDI8w4aeP401b2+Fz6/IY+nXjdx60hCYADotlHvYwWDKOHLuWzLufv8GC33RF46LMVDLxbycRD3voyP3D9F/pcVK0P9tErvbSF45tgr8D902iFAvpa/muMtdX8V/5zTSAfav17rUAcrFX90zBoLLpDl9ZW1lwEiHiEywo18L5gO854orgbHgXdCnzmB069FK3634fTY9G90t/Gv/a/QQLV/o/9rc4/df7zeou9fvTxTl0xWjZYwf0O16juXtO1uy9CLMzOxSt+5Q8Pan//8pfLLW95SznssMPsQY79VzXEw9+l+m4jHhoB+e81+r3C5zznOWbevR715NigcOsxsT1qAf+H/vXx3Ev/ki/2PEDTGrpsH1RCbIUKdaEqEVxpD3QZu/pl2h4fAxycS0A+OPsvb/pIHJfQJMw0t89H6fHp8UZhYrhCPMu7bZ3/moVYkPy1Ljycwk5ANOK0HdFw3Pun7fExXN5f0sivzGZ5+k1Y/jN2/ZzlyZyON+bJpqtn5b1PQnR63oO35t8D1P5aY+V/rX/WPF86Xgur/rGgVP3P+9d0PWYNR12u/c/PDIgD2jB/uG8RYgNznPkGmR6fjjfiDD5tLTQaibX/jc6/df670s+/S0hiS1Q/Q/d45CkAWXL+MsmtT5koTuZ99j9QNuy9txxzzDFy6KH+B8Qhf3VpS/ox0C1btpg5F154obzlLW+Vv3z2s2XT/ofIQ3//+XKzY+9ufXvqPwOCOLFQQCHjRsg+m4fcDxwC2giBcy4Yb9MPnmCa0kca5L3xkUrvRgqVYDQfAWrtIBqS3HB4CGkPqa0+8NlDXRjor1CisLp+79MxIgDmj+L0B6O7a8GvdvSPhO63mTvTf7VQGbrxGvnWXntF2xT6eOV/zX/lP9cg1pGviFr/rEp+iESOWLPaoVjcVv2r+l/7n68RrI/a/71AdOeROOvU+ccLZp3//Cx8RZ5/l/AnL6zFoXmEKyF3tYfkOAP0h/Rg3nLAoXLnn/81ucENbiBf+9rX5CY3uYmPczW6nn322fKCF75IXvmqV8mRx9xFTnz8n8uhN721WYi3QdkS6ps5CN2m7ng3SWQm1O6ujwoTZB8hog0chwU7WPkTCzLBpIxP0Z4fEn0jnRA9HW56/SNcnQSFCU2g6zU3/bXCoMEMKAz//aMDSSf1EJq+/gbHR9zxGIk4Q1UfbyXwI1Xgs6LoBweoMn4V6PlB7RveQDX9uGgjHrdOzFd2EFIoeMw2xcNdR8r/LiA1/8jNyv/+45CxcAbrqb+p9V/1D9lQ9d/XRO1/vpX0+7nGpfZ/XSGeH3X+0Uqh5y0+FNf5T9fLT3j+tR9y8WXnSdbjPOaCDjz6yUaIPnuqGPPf8YGPls3XO0COO/4O8s53vF3ucpe7qJ6rtuHjnG9729vkBS9+iXzmzDPlNvf8efnlZ75Bthxw/WQYfQaJeDhMvwmX8d8VMnbj+KQBE0o+QP1n4xCCTQmpKPZzQzkIAO8MhFC0oKVF5A9w0E9+yro+HFH8nQ7vbx+qbDHqSuSi5AK1B1YdlbLdK+Ghb9o+5W8e8vCFUx8j+ZD8b/nb8SFFz4C3/OW/RgdVpOYf6aGt8t9XTK1/ZEPVv6r/3MOsOmi5xH4S386Ivan2P9ujsV7ibFH7v586mDt1/vH9BKvHY+HxwZrKbXQ+q/Pfqp9/lzz0eQKIE2JKMp6nKPdlnh6/5d1+Tjbss5888MEPkYec9CB51p8/U65//fyA1eq7Yu7POOMMecUrXyWvec0pcv0b3kyOvvtJ8rhf+XP7AZfsRe9r70NPm7KNfIRDbb3srP5Wp/PhsIH/plumEydsx+81kAOQr8z7eR+blvN50Var4yEAZP9xH+/nu36A1viwQAhiwkef4dY+jglWFAD+eBDu7Z2jgLi3RsN5n+PCsQKavRij4x0irX7aUv57nGr+2/ys/K/139eTqn/+skjV/9hXmv3HqKTpTe1/eorR/bv7Djf2Zt2c+/NF7f91/kF99RNbez7z9RRrrQPpQMi1FrDOf/0ZugtXQhDfpXx+Tn09iigixj4nPc64z+tX0Zve7m5y2DNvJ6e97eVys5sfJY997K/IU/7g97s/59APtrrYV77yFTn11NfLa1//BvnReefLUXd5gDzsaf9ofyKiG4l+dIQGmeffvP5G3dxbxpmMjP08O8m/nD3UoZDDYK2YSPQRZz867VXNIBDnK50urINTAHqAh75WPzp9fVIAhve4PXzBpiCZvOIu06umRDPcXAbKEbb2gU4aLINp9NluY8Dy36IzN96MJecPAo5zBiLIVGcToFzRbfKKUz66u4yp+e+nwEI4J0AR1j5+WGsqOIhv0Kiv8l8jEYFjLGr9W3b0ycfEahakrd+UXxDwXKMA9PR41X8ESyMSIbH4KT5YnyliTbjnzgcjTdjOD+ikKWr6mPN2GwNW/lt05sabseT8QcBxzkAEmepsApQruk1eccpHd7diav77KbAQzglQhLWPH9aaCg7iGzTqu7blv368c05DVqERzsJn9ZuwyN6bt8jdH/FkOfa+j5SPv/e1svXoW8g973kveexjTpYHPOAB+icU5psSqmYCvHr06U9/Wt7y1n+Sf/rnt8t3vvMd2XqnE+X2v/Ak/ZuAt9OFxCmfqWLcQb8IwTGFT9HG2voMpSmQs6wLZuoBzPiUrinalAxp3RD9K9c0gxAsGbeiozQuClOR9GFB4JabAHGy0LVOJ+bAlAZFcZuXGMC60ngmr8oob/rRb4b0oev6gzfUOReZ9c70BUQn5QgzDXhrD2jd4IqW/x6Omn/LjG4tMOXafLPd3JIqMk7xyn+NRSzYdr1Z/GJNc+kxprgnDojWyjvRrnZp+SlHCKaMz9WntmGuK/8tvF0sKv89Hm2+1frXiNiiilWmeNW/iImmTFtvLH+q/nU12Wot4uTLq+p/xCJW0yh/LEwMlt6Azz7eaYllveML+6h0zLEyyj4HHCw/rQ9/JzzkCfKlT7xXfu9pz5RHnfxoOeGEu8j97/szct/73leOPvpoLwRzVONv8p2p38v71Kc+Je9+7/vlXz7yYf1u3kFyw9vcVW7/sCfLDfCjLPr3/uhDThj6k2lTw1GW/FM8K6EtsqihD3Zl2zh+poFvnn2ZHzgabGDL/aRlCP38SFOmE6cqQtCncNLs44PgCSPMfsWzfwMd+pBovPHATpzyA17caONYxBkj61ygn3yA5X/Nf+W/r4O8LohzrRGCPoWThnXLNQ9e4oBoHZ/fKkOtf9Y8iw/qJmMSMWLMGLJ8D9xizE6F8/oTa9U/DUatf8+hnBfEmUuEoE/hpNX6r/rHmo9cIV71H9Ho1w7XS1frV/H8az/k0g3g4w6ukaK6kPO02FQN+FZyg/Hwh9CP0R9Rwb9LLjxfvvXF/5DXvufj8pfP/Rv58Y++L7e89W3k5jfT795tvbnss89m/bePnHfeefLDH/1IzvryV+WsL50l3/rm1+XAQ46Qg/Xh7qCb3U4e+czHC/5UxLANvxlHXwnBm/GhLPrc19X2n+NwbELSHfa29/16CDKLfT6I95xDDbjrZYkNuUkl73B2h+O5tiFHHhG6ci9xQLY8HjdUQDTwkYZ7PtwRgoN/e8j6Ixb0aGr8gT4Iacs2tDhtds7ynznm8Wgj7FRe217GsuafERrmHnOz8t/jU+u/6h/XBDKCdZ+w6n/tf7X/9yuEe3Odf/wUN3X+6KPV773O7XtOi/PMwh2JMe65hxxOn+4lJyBbHo+2AaKBjzTcs+4Rrkb9m/+dvu54nE3NOEzrG76QiSDxi5nEmZQ9Z49t0h96OeqOJ9o/UC+75CL53jfPlvPP/ba8/zPfll3bt8nO7ZfL0oZNsmHz9WSfw46XE47/Bbn/oTeWdRv27hUB637Z0cPcBn0RexqFcZt9zviQe0/8H2pIw00OQyIh+DM+9DjfcU720hjNmg+PmiefW8LH3TxGxsPeAHhfFbr9/VVY5vji4+Wxh7ppzxDirrfHfezzr/UHdnCOXM/w2vJDt9P6MfJ4Q2l9Y7n814jV/Ff+c9XU+mdNaGsF7sf1pqdN8fe1Z7oeVf1DRKv+d3t9JBHzrPa/2v/r/HPdPv/aF+mwfbAoTG80PZW8ecvpe4HxeO8cvM7i9xLdjw++DZv2kcOPvr39G+p2PvDQXuK9fmKE/TYJXU6ljWN97XjtPeRpc9vn99TNkUAlbSxBXdkfcvUekNKPnfmpw7koRUifeyt26WsJ7KUs9Y1H6McGBk+WLxruK5aV8SvgL5gZoRmQurhJzdfv/tBejEKVpr/zzMdn35C/n4+2v9dGCdfK63z7yn+fE4+/fxpNY+K3o/DW/PsGVPnv623++qr17+urr3asYT0FmC849rGauazXKHC1/VMU8LHNnx/XXfXf41/1TzNKv/Ba9T9WULPgav+r/Y81FRlC3Ksoq24Pm/SxKk+ac3ndWa7+z/1OX6sVHy31QtYPMRy0NxAY+tAIfdOhSWNIXbP4XVt/JR/hauu/KvyndzkWnEr2EdJvwuX8pw6bv5iRcZJ1XD5Eo9DnXx/8YsCmW2Wy1THvytTZp4NboYtdgMlNOL8ITuiPUWFw60/jjY+tXLMP2Y1E42D5j/Vf81/5j9Xm9Zsr0im88xVv11r/Vf88Obx2aDT4cSXWfcKq//MOwRPrS2Prq632v9r/43xlB1evz1h6PNXMX1/kDAjAlAOqeO3/1+zzzxKLBWG7aGySY7IVWPKQhns0ponfMUNc40gfCr7+N+vQbc8CKhrPBJpkvkHYLzzZWMOk9jH76/ykHtrnVs4umvQVEM3WAOzz247W3w7101dAtHn2ud/gVQk7XK+m/7SakH4jpt5G9oavi/sPPb3+kT6b/13LzL/KYsxIAJ9/5Q8Dduu7lB5Dfgo6DA/APkC0dnxn6+0jl8Mx/8rn30f1cSb0qV30wTmH+Wx+l/81/5X/toRq/aP+V/2r+s+dqvY/7vHcYzNkX+3/zJfh+cJjVecf5gyj5HDivKYdiNa16fy7xMN1HwQcSj1RQCMOiIbgWBDsbopC2T6xXIICpFOfa+QiNd7ue3k+mE1IiBmuZEKQXYPrp52E3geb+n7SgjQAXjTow1Xkf1hrNquDhDCUfhCuxH/+rDhgN+9QRCWmv5n/9OBp4ys/zqNcBH30e4t8LqGUbQp3Gnn3eP7Dljgj61c6lYD/w1l3L82/+QMffHwLKNAwfzT/xo+Dl/PbQ6Ci5T/n1iPcBVCDzzklh01IdxNxt6SDlMvX/EcCevJqtCJOyDXELm7JRYi0ZE4aW+W/xarWvycM8sT3cGSH4lbPHBrBGbrlW/Wv9j/PF68wni+1/9X+H/VE04J7jtWP2L+7AqLVhnu69+Mam5cRiLM+eQGq/d/Xm8VqJc8/GsaV7v8TH+/k4xInB2Zk3KdyFgV0L5vOB1cGv0bj5E4jNySO4SnQH9L7hPER5+kP9R2gnYToaHEfkyK0pOciJcvmXpd0Cq4/qf+0sNfYjzxPv9vSX12HayRu3+iLp5bpoq7xZw4qNP/j3vHsYW+bYc2hAq/Q7jKaK/BY9vLtIcQTOI1vrtBytWWOfmOn7XrTjgfH6ENvr9JQybSNxi//a/41Ara3aX4wdzyvLGWM2mFz8rPNx3E+9zlOnRiVbcw/XF/GV/nPcPl85Ypc67/LYQTJ86nqX9X/2v+wHmr/Z01ANLTV+SfqpYfj2rD/jz7eGfPsHu7BlecNQpxXsJAArREPBvIRgifjLtRf2Uc4j7+XnMaoh3DV9e2B/9OWOpV2Eu6RvfZKAvWpJtjIqOPQCjwegsa2YGRMJi0gDhh6qAOEXXiAU16F1ryqKqPL21W7qA3jLjf+mD9kQ31vGwmQAN6NMMB9LPRG/5zxXU/WR9zHo+2dvvK/5r/yv9Z/1T8r/1b3sbdU/bd4jPez2v+4h3rCDK/jeMXO7tuvMg/34/F+DX39WcDHAqX2f4t0nX88F1CjJhvyhDkGBuLOz9zt8ulqeP5b0/pFXwEz3vItfM/1BZjxBRVkGzK+oPjAh0XkM0/GFx1vxJd9zviIcZqQbcj4NPeYmmV6HAk6/c959PWMPZ5/6EUL/eaz4oCT/jf8nawhaof3A2bce+dfs4zj1BP20c6A5T9iWvNf+b+n9b9Zz7X+bT1V/dMwVP1Hce3jYDfNehnQsAZr/0NIEIccCwvTApcs4zj11P6Pfb79V+cfJNW1+/yj3+kbr5xM84XSf/xjzI1KDiWs6C0H+yYGMlbK75JtF/xIduiT8dLmn5K91/F5lGO7ftpG2I9N/dRHezCBpCl34A5bW/2+1w1+t5/FYyxB3Ryv5VjUf8q7HxhvOLb30zbClfnPGDEmra3z/YdN/mad62p/aKHV6PycQ80S/c4RbAf0Br/aDwCD1vczDuCn3z30HznwP9gKvRir/+ED6OGcu7zr3tP5L/9r/iv/sQ5r/aOejOsNqH2r+od6UfW/Xy+1/9X+X+efOv/159sr+/yrf6cPg+dDdr9hOcY+wKnWys/jb/t3y+Xf+3f50O//lvxnUn/MI18sd7/P8bJ++1fkPY/7JTnsz/6fHHPEJuVYZLxZtqYBOrTV13UE0trb9rfy8/jb/la+1d/et/ytPvCDNrt50fX+9lDSSnHDBkQL0MFWvuVv9fW55vpaeeeHj978gN2P2/JPjUdboYG+xhnV7CbN+4eHEh+1v7b6y3+PDeOwyHz00QQ2zNdW3nlr/hmzyv9+DSMmbb606xM8tf77+s9aV/UPmeH7CGOC+zafQMutzS/WPcJWvuXPuhyv+qdR11DU/o98aPPHc6T2P4/D/PU6td6q/i9f/+2Ps/siZJhbyHdh+BP5w6LVJmn/1Jr5qQPcTGiHu87/uLz+958kP7jnk+Xkk+4v++69U87/z3fIKc//Ddm+5Y1yv2O3y0UqtXPnDpe1ig009Jg5itNPVvRZ/Sra22A3E/ekA9L27A/G5oDgCVuATvJTB/rJOwtmvRP8P5H/GFMfcmBDDG+jqc52VIxsDe+aoVehN3BC2CXsmuUbfsp2n3EmL/wwLW6L2RSUrB/zzDGMn3IBMw14W0Tt0Gyfq0avNh2u/PeYIxyMrc8mKE1r5tMlMHcuMZJv+Gv+NUKMCULb5nOsxcp/5BQaMqrPr1G8av17lKr+WRxw2SvFour/8EXM2v9QfhGTSBctLbX/axCi3I72725VMV51/uMZxiMy3J9G8eNerxCNslen868/9KFoclUQZyG1qrFMv0eiv7b81sMVpzcD/Tvl6+/WBz75Nfm1xzxc9gktBx17spz8uP+Sj3z9a3L5cYcGFYm6W35w5hvlI89/rnxLqQfe/jHyM49+vBy631r50adeLJ/+70Pkeud9QD76kdPl9o98rhy5/znyLy98ger/abn/nz1djj5iSzO+KmntHdi3QH9Y14FWn3XM8n9Cf6cokHn2gA1jshEnBL3rVgRhBAF6rS9w8s8br+13Lf0VesjTUZXGxj5AtNXgp+2hzzQHzXFz24brbJs1/jz72n7X2l9Xw59+wvpYzrI3fO4M0PHLf41Gzb+lROU/cqHWv+UBMqKtX229Wmm/ZVm6tPqsq+p/F6F58d2TeEWtc9Gq/7X/aSbU/mfLofY/5MJw/1vqflWxO1Qqk74y0p07SSdEKDOO+9zY10HtRM3vdh3gvLlMLv6myBGPuKvs09Fc2YH/4w/lYUAv/5ITVGTXD94nr9YHvts//qXyMzfdW77+T4+WU195hPzWbz9Qdl34dfnsW18pxzz6+fLQx99G3vzS35VP42HvD14kl5/5RHn3S98lN/7TX5S9bWi90ASOSwhbrzT/4RptoUFOshjBJiMTTvCjP8eXOGDb6GOnVxnsFQlljlcmrFjs0lcpomjgVVQbImSJA6K1w9krrUoHtAbIg4BT0Ems5wnKXH3gy/KN/vbtfoxEnTaEDa0XmlD+e4Rq/i09Kv91tdT6r/pX9d/qQe1/tf/bGSLOHMR5fODZAhCtzj/+yaw6/0WGNOfTSBID3SWdZ+fmE4QSv+HpfL3I+XfJTsTd6IEwg20AvdCSlm+Re8pmna1c7rNVpQx5VYEfPBuPkgf/9j/IEcfeWpYuv1AOuslxIh+9WHaAd4d+CPQez5ET73FnPbRcX2760lfKwX/0NDl66xbZtd8fygff/wG54FJ96NuovBxD0cm2nD2TAssQoWul40EdZChHSDp14p44bSYvYNtIYyJaPwUdmjpNIlKtiOl9t4hVhmogHks8oFNIw133wMdDhJJoIroNh37caLNx8njEQ35ukqsiT3zXhxGWs8cDCN7yn1HYrbGu+ff8qfzX1cM16CHp1ipuubYcOoU0Y8e6TfUGeVXrn9UmYoH4WrAQKitgDkFj7BFHNMYSUBvnBhDNu1Gv7RaUbo6MAj7qcEIwujyutf6r/nk2IFVq/XONxULp1iruWeuq/nUZ08XE4tXUG6sv2tFzRw0zZs+3ruaBpvKsicbC2hUFjnNT9c8j6uFZvv4v+e7AqbAo6wU7BqclbtG1J42bD2GrQ5/VLkVf7ld823c+Kv/51S1ymzvt7RJKW7NuSbb956vlhX/z/3otR/+M4Hc+8ebcgTe4vtP1+3+XK7Zhw1q97pYdO51sg/CXPLu/VYeBr0L/adosCPPQCGfhs/q7uUwMsWBcr9K5MG0Yj0VXxPQWn4nP6WBy3YV6CdGRcI4V0AB0koU4hkUzul7YD4S0iX57HdJYOoFet/ErHbq7ASfw8r+Lz2gTw/zU/Ff+c31iTQ0a1x0hOhPOdRfQAHKKLMSp3+h6YX+t/4hFBKSJT9U/zxWLQ+Rll1uWitqP3MrEFq/638Wn6r8li1adKEgKav+LNRTrawisIGGBJXLCudYCGkBMyUI8wu1qtJP9QAwPAvHuVhH7PwiwpEf9BrozscWvY+t/4odcGDHCNJeLoBCzIAczcU7qQMd62fcYkR+87j1y/olHyX7oM/7L5Fvv+D35yHlP1Ye+m4eEfp/vk38j73v/JvnFv3yPHHzQ/rLtzOfLy96Kx7uw1X7rJdm9GwR0Jxp5O2gMxuYX8hKmrkVQiNFn8BOf9F/7p/ghZx17YMOUPvjfjp9jkvEuLjE2TSA025a52Fg6GHVyQQGyZV32QKF9gGjgIw335CXMtIyzf2r89HG1zi7aZzooPKGQXYRgWa5NjU8a5bIu+lr+e3Rq/iv/uSaQEVwrhJmWcfZzrXF9Wz71H1ev9R+BYnwshgzeREDZRQiW5dpU/EmjXNbFua7659Gp+lf1j2sCGcG1QphpGWc/1xrXd9U/zaeq/3autnzZrW+SdckyJ8HAl3mhYKrxbA+If5AhHMmvlRve+/nK8Hr5x5efIj84/0LZse08OeeDz5J3fELkLg+6q8RTqfLo3F16sV4Pli0/tb/IeV+Q//ib14ts1k92Zr0cCwLA0QJ2b/g51a9ZNuPkybSMs7+FeUzaQriIfKuvvc86gLf/OBYg/qER+t3wyuIAmHFyteOBThp5MkSRQQPEP/ASUo7QGe3qRtJQwujKINtoNmtnBxXnWBwfssBntVYf+EgzPARhM+0mjK4B4FgcH7zAZ8rTNsCMD7T2N7TNfFalppcwjcXxIUmbei091upDD2mGB+tM+6OfgGNxfMgBnymffc44FTaQtpX/Pk8WV70wvow144/wAZ/V2niCjzTDQ5D6My26BoBjcXzIAZ8pT9sAMz7Q2t/Qtpr/mn/LAU2NDiKFIteYf8gc4LNam0/gI83wEJyZv9FPwLE4fuV/PyeIBRqh3XBuADNuneML58bmXBVBl+GA+g9xJ8xzMdbklFYfqKQZ7mw+TsIDHYE8ZrbF7JySzz5nfKTZCbTNfFalppdQWfKY2ZYZ6jpfqQ98HMPwEJxpf/QT5DGzLTPls88Zp8IG0jbaW/77fDG+OeZ5LlIY49c7EwXCaISz8NxvAstcMi/xgGv2O0Ge8Iw/kQ/88dPl1Z94Yafkbr/zernD0fpwt/1H/queyn/AMQ+XI173+/L3j3uV8R3zgJNE3vU8edcHbyv3pGToXY974Pwn15cN+Bxo9KO7a5lGnBBMU3imdYpmIJmXOOFy+jNPVj2LnnVN8ZBmCyYUYp3ZK0tx3/HEPQBpwPkqFF+ZBS036AM/IBplCTPNGJTRFnIIEDcY8tQJfuDZ3nYA/FKu8YBZG2UB0Wgb7Wn1kU5IGRPWS/mvMdWg1fwzI4ZwKt/AMSufkKDMeeMDI2khR53oB17573FAPLrARoBr/UeOWHAcj5TqwrVcPjFPCXOIgVf905hqAKv+WTqNLswtQDTmEWGmGYMyVv3TSETAGIs6/1h2zD2vtQlW9X9u/d/ryf/473k5eqAHV3RzJaODeCTpgPcnublMtl2o7/TtXCvrt+wv6/F1vKm28xK55MLLZGmz8qzT2rvtEtm1bpMszeKf0rEi2pXlf2/U6/70sXLPRzxZDr3prXviKmAX/uh78vKnnixy3+d0NWa0qEbjNP5jw0NBAkRruuemR8vvWvprm14tf9vfSzrW8rf9rfw8/tbB8r/mv/K/1n/Vv+l629bXtv7Oq7etfMvf9q+2/lZf1X+NCIMOVPGqf1X/qv55pbiy6xOXIuBUa+1peVQuf3rSu1shW+TaNZhkLPxWW9y3Ro30KR9pECG+e4Psvc+GUBJ03LX61mySTfttcjmVXbP3JlkDHbNapz8YWn2t3Ig/fL3C/W8N0ftsC+xGyzTcr8QfyKIR+t3wfqS/8d9eSVEaINuK9KkQX42BfDsedRHCv8xPnONP+U/ZKf2kAbItx9/mv41f/tf8M3kU5vwBOd8DZ46ir83ntp+yhC1/5X8fQ8aTMcQ9GmNHPMefNEC25fhr/UeNRhC1Vf3T/NNYcP9BTHL+tPfMTfK067ntJx9hy1/rv9Y/cwK5Bpw5hHs05g5x8lhn00+e3Jf5q/5d6+pf/HonZ1whJxwQjQnVJpL3rpyfeggXGY9jTUHqIVyOB33kI2z5F7Eny66Un7KEU/KdTWTqCGOELIRjjt7n7Pws/il7SKPuLMs+QDT0kWaEoLU4dZB3OXnKTkHqIVyOB33kI2z5F7Eny66Un7KEi8i3NuZ76iHMfcRzH3FC8hAuYk+WXSk/ZQkXkadtU5B6CJfjQR/5CFv+RezJsivlpyzhIvKtjfmeeghzH/HcR5yQPISL2JNlV8pPWcJF5GnbFKQewuV40Ec+wpZ/EXuy7Er5KUu4iHxrY76nHsLcRzz3ESckD+Ei9mTZlfJTlnARedo2BamHcDke9JGPsOVfxJ4su1J+yhIuIt/amO+phzD3Ec99xAnJQ7iIPVl2pfyUJVxEnrZNQeohXI4HfeQjbPkXsSfLrpSfsoSLyLc25nvqIcx9xHMfcULyEC5iT5ZdKT9lCReRp21TkHoIl+NBH/kIW/5F7MmyK+WnLOEi8q2N+Z56CHMf8dynOL7l5of0lgGM+JeNAo5G6HfLX8kLmHFK0SCOBzppGZ/Vn3VmnPpbmHkyTj6OzfHAAxxwip9ys2CWyTj52/FIJ5zqJw08WWfGKT8LgneKn7oB8Q88hFP82r1syzIZp1A7HuikZRw00gnRn3VmHH1TLfNknLzUzfHAAxxwip9ys2CWyTj52/FAJy3jtCfTgGedGUffVMs8GScvx+Z44AEOOMVPuVkwy2Sc/O14oJOWcdqTacCzzoyjb6plnoyTl2NzPPAAB5zip9wsmGUyTv52PNBJyzjtyTTgWWfG0TfVMk/GycuxOR54gANO8VNuFswyGSd/Ox7opGWc9mQa8Kwz4+ibapkn4+Tl2BwPPMABp/gpNwtmmYyTvx0PdNIyTnsyDXjWmXH0TbXMk3HycmyOBx7ggFP8lJsFs0zGyd+OBzppGac9mQY868w4+qZa5sk4eTk2xwMPcMApfsrNglkm4+RvxwOdtIzTnkwDnnVmHH1TLfNknLwcm+OBBzjgFD/lZsEsk3Hyt+OBTlrGaU+mAc86M46+qZZ5Mk5ejs3xwAMccIqfcrNglsk4+dvxQCct47Qn04BnnRlH31TLPBknL8fmeOABDjjFT7lZMMtknPzteKCTlnHak2nAs86Mo2+qZZ6Mk5djczzwAAec4qfcLJhlMk7+djzQScs47ck04FlnxtE31ZRn/EMuLSMNIET/FD5Fy7yz+tvxVnpPvYR5zCld5CP8Sfmph7DVRzph2z9l40po1Eu4iH58Jn9RfvIRtvpJJ1xp/zxf7eMFqhzQdAcOH+zewar5E+o6QL8I85gZ39P+bqAZSPmvuarBrfn3BGEsKv8jHrFuZq2/dlmRjxD9GV8pP2UJW32kE7b97Xjtfa3/Wv9c85Y7mkjMiZxLi+YX+Qizjjb3ct8sftIJs0zGZ/VPjZlp9LXqv0eFuVD1P+IRybJofpGPEOIZD3UdYB9hy0864Ur7u4FmIFdA/vs7fTPGK3JFYBSB/GpCxkeMq0ToipuuqoxTPTcDwIyzf7Vh9jnjqz0O9WWfM87+7HPG2b/aMPuc8dUeh/qyzxlnf/Y54+xfbZh9zvhqj0N92eeMsz/7nHH2rzbMPmd8tcehvuxzxtmffc44+1cbZp8zvtrjUF/2OePszz5nnP2rDbPPGV/tcagv+5xx9mefM87+1YbZ54yv9jjUl33OOPuzzxln/2rD7HPGV3sc6ss+Z5z92eeMs3+1YfY546s9DvVlnzPO/uxzxtm/2jD7nPHVHof6ss8ZZ3/2OePsX22Yfc74ao9DfdnnjLM/+5xx9k9A/U4fqLjQA+LWMSEyjwQ91AFe4rP0rZT/ujA+wqbx4iTPc3nQv0w8qY/Q5JbhH+iNG04jIcgZtzwCAXrRiA+YvMuuKxw/SRpKXwgx7m5+2x0cqzw+3SDkEGYMLiv1Z6X83UCO0G/C8r/mv/I/1iGWSK3/viZ5yRheV1h/WPcIGeJO6Qr1rbhedgM5wrpHWPWv6l/VP10bWIdoVf+q/rEme0boxztZvQmZKM4wvlLBrKSiHsJ5+shHOI9/bNGQQj2E8/SRj3Aef/nfFxLGijHhfYYtjvvcGHdC9GU88y6CU5Zwnj7yEc7jp6+V/z4biBtjkmO3aDzJR5h1+Agru1IP4Tx95COcx09fa/59XhA3xiTHbtF4ko8w6/ARVnalHsJ5+shHOI+fvtb8+7wgboxJjt2i8SQfYdbhI6zsSj2E8/SRj3AeP32t+fd5QdwYkxy7ReNJPsKsw0dY2ZV6COfpIx/hPH76WvPv84K4MSY5dovGk3yEWYePsLIr9RDO00c+wnn89PWaO//jP9kwN8IMDuG8IM1VeA1joN+E10D/7VXRWUk7bzroNyH0rOSdtXn65y2qVv6K5m/Ho9+E5X/Nf+W/b/xYK1gXXJPt2lnknrKAaPP0XdH8bkV/5bonxPg1/zX/i+Zrn0nT2BWdzyvV31rJvCes/K/1X/XvmlT//Dt9XL9Y38QBM861n2kZZ/88mGUyPksu82R8Fv88etaRccplWsYX7SffLJh1Zny1+GfpId3G1EKNBz8+/BHisNb1q8CUfZlmuF4IJwWwKaABLqB/oCPpxhg2ToKKDolTDO344IEdCuk34SL25SEMhx7akTtBQ2vHDxpYp9gHRGUwnoCL8EN9pwN4Oz6UlP81/8iplAuWJ8iLyBlAwxNEV6YZrhfCQSeY0dr8CxpkTC5BdA2ISfei/AMduGnHh6LK/8p/5FbKhcr/WBexZmatN9DRun5FjNYRotO49NKuP9Cx/hSYXILoGhCVwXgCLsI/0IGbdnwoqfVf6x85lXLB8iTycrn8zDloOPQgz3AxJEHQ2/wL2iz2gQ5lMpUBDW/Ut/xQ39GAt+Pv1l/vnFJEWpafos3qB325NqUr01rZ3EecsOVd5D7LEieE/BQ+Rcu8uX+eDZmXOCF14p40QvZlCHzRRj2W7CFEnBDkAU6+gNY/gVN36nKUHYRKnae/1ZFEJ2PS8g/uKUzYjh/0gU2ZN5QlUmcDukgnDPYesIMQMhkPzkTqZSf6yEc4Ym4JZCTU/sH4QZ+iQRXFCDMt47kf9K6xg1A7BmMFY+ruRInkPuKE5JkJyUiojIPxgz5Fg06KEWZaxnM/6F1jB6F2DMYKxtTdiRLJfcQJyTMTkpFQGQfjB32KBp0UI8y0jOd+0LvGDkLtGIwVjKm7EyWS+4gTkmcmJCOhMg7GD/oUDTopRphpGc/9oHeNHYTaMRgrGFN3J0ok9xEnJM9MSEZCZRyMH/QpGnRSjDDTMp77Qe8aOwi1YzBWMKbuTpRI7iNOSJ6ZkIyEyjgYP+hTNOikGGGmZTz3g941dhBqx2CsYEzdnSiR3EeckDwzIRkJlXEwftCnaNBJMcJMy3juB71r7CDUjsFYwZi6O1EiuY84IXlmQjISKuNg/KBP0aCTYoSZlvHcD3rX2EGoHYOxgjF1d6JEch9xQvLMhGQkVMbB+EGfokEnxQgzLeO5H/SusYNQOwZjBWPq7kSJ5D7ihOSZCclIqIyD8YM+RYNOihFmWsZzP+hdYwehdgzGCsbU3YkSyX3ECckzE5KR0P5kA27wNEgicT4hNv3NbSc6g33UPyI0Cpvbeezdzxfzl2vMD/oQbqXbufzzBlyxfckGRftYzwgY9KMhMfCPts9gn+vPwN5QbnpnKsTg+m9GP7tC1Xz7GnXzBFasX+1czp+Rvjn8q25f+T9Ip1WP75z5rPnva4im4tx6serzU/lf+Y+8Q/KhAeGixD1xwPHtPPa5+dyon8s/b8CRvmTzIvavuv6qf7X/a1Jem86/LBFYT8QB0Ubrr/J/pfn//wHs+gYujxCu+wAAAABJRU5ErkJggg==;" parent="1" vertex="1">
                    <mxGeometry x="9" y="68" width="1160" height="692" as="geometry"/>
                </mxCell>
                <mxCell id="8" style="edgeStyle=none;html=1;entryX=0;entryY=1;entryDx=0;entryDy=0;strokeColor=#000000;" edge="1" parent="1" source="759bbc3739f4eb62-3" target="759bbc3739f4eb62-4">
                    <mxGeometry relative="1" as="geometry"/>
                </mxCell>
                <mxCell id="759bbc3739f4eb62-3" value="Recieve and send messages&amp;nbsp;" style="ellipse;whiteSpace=wrap;html=1;rounded=1;glass=0;comic=0;labelBackgroundColor=none;strokeColor=#000000;fillColor=#ffffff;fontSize=17;fontColor=#000000;align=center;" parent="1" vertex="1">
                    <mxGeometry x="529" y="500" width="120" height="80" as="geometry"/>
                </mxCell>
                <mxCell id="13" style="edgeStyle=none;html=1;exitX=0.5;exitY=0;exitDx=0;exitDy=0;entryX=0;entryY=1;entryDx=0;entryDy=0;strokeColor=#000000;" edge="1" parent="1" source="759bbc3739f4eb62-4" target="759bbc3739f4eb62-10">
                    <mxGeometry relative="1" as="geometry"/>
                </mxCell>
                <mxCell id="759bbc3739f4eb62-4" value="Communicate with TAs and Teacher" style="ellipse;whiteSpace=wrap;html=1;rounded=1;glass=0;comic=0;labelBackgroundColor=none;strokeColor=#000000;fillColor=#ffffff;fontSize=17;fontColor=#000000;align=center;" parent="1" vertex="1">
                    <mxGeometry x="590" y="370" width="120" height="80" as="geometry"/>
                </mxCell>
                <mxCell id="6" style="edgeStyle=none;html=1;entryX=0;entryY=1;entryDx=0;entryDy=0;strokeColor=#000000;" edge="1" parent="1" source="759bbc3739f4eb62-5" target="759bbc3739f4eb62-9">
                    <mxGeometry relative="1" as="geometry"/>
                </mxCell>
                <mxCell id="759bbc3739f4eb62-5" value="View Task progress" style="ellipse;whiteSpace=wrap;html=1;rounded=1;glass=0;comic=0;labelBackgroundColor=none;strokeColor=#000000;fillColor=#ffffff;fontSize=17;fontColor=#000000;align=center;" parent="1" vertex="1">
                    <mxGeometry x="200" y="500" width="120" height="80" as="geometry"/>
                </mxCell>
                <mxCell id="759bbc3739f4eb62-6" style="edgeStyle=orthogonalEdgeStyle;rounded=0;html=1;exitX=1;exitY=1;entryX=1;entryY=1;jettySize=auto;orthogonalLoop=1;strokeColor=#000000;fontSize=11;fontColor=#000000;" parent="1" source="759bbc3739f4eb62-5" target="759bbc3739f4eb62-5" edge="1">
                    <mxGeometry relative="1" as="geometry"/>
                </mxCell>
                <mxCell id="7" style="edgeStyle=none;html=1;entryX=0.5;entryY=1;entryDx=0;entryDy=0;strokeColor=#000000;" edge="1" parent="1" source="759bbc3739f4eb62-8" target="759bbc3739f4eb62-9">
                    <mxGeometry relative="1" as="geometry"/>
                </mxCell>
                <mxCell id="759bbc3739f4eb62-8" value="Update Task progress" style="ellipse;whiteSpace=wrap;html=1;rounded=1;glass=0;comic=0;labelBackgroundColor=none;strokeColor=#000000;fillColor=#ffffff;fontSize=17;fontColor=#000000;align=center;" parent="1" vertex="1">
                    <mxGeometry x="360" y="500" width="120" height="80" as="geometry"/>
                </mxCell>
                <mxCell id="12" style="edgeStyle=none;html=1;exitX=0.5;exitY=0;exitDx=0;exitDy=0;entryX=0;entryY=0.5;entryDx=0;entryDy=0;strokeColor=#000000;" edge="1" parent="1" source="759bbc3739f4eb62-9" target="759bbc3739f4eb62-10">
                    <mxGeometry relative="1" as="geometry"/>
                </mxCell>
                <mxCell id="759bbc3739f4eb62-9" value="Track task Progress" style="ellipse;whiteSpace=wrap;html=1;rounded=1;glass=0;comic=0;labelBackgroundColor=none;strokeColor=#000000;fillColor=#ffffff;fontSize=17;fontColor=#000000;align=center;" parent="1" vertex="1">
                    <mxGeometry x="340" y="370" width="120" height="80" as="geometry"/>
                </mxCell>
                <mxCell id="15" style="edgeStyle=none;html=1;exitX=1;exitY=0;exitDx=0;exitDy=0;entryX=0;entryY=1;entryDx=0;entryDy=0;strokeColor=#000000;" edge="1" parent="1" source="759bbc3739f4eb62-10" target="759bbc3739f4eb62-13">
                    <mxGeometry relative="1" as="geometry"/>
                </mxCell>
                <mxCell id="759bbc3739f4eb62-10" value="Streamline Classroom Interactions" style="ellipse;whiteSpace=wrap;html=1;rounded=1;glass=0;comic=0;labelBackgroundColor=none;strokeColor=#000000;fillColor=#ffffff;fontSize=17;fontColor=#000000;align=center;" parent="1" vertex="1">
                    <mxGeometry x="840" y="210" width="120" height="80" as="geometry"/>
                </mxCell>
                <mxCell id="759bbc3739f4eb62-11" style="edgeStyle=orthogonalEdgeStyle;rounded=0;html=1;exitX=1;exitY=1;entryX=1;entryY=1;jettySize=auto;orthogonalLoop=1;strokeColor=#000000;fontSize=11;fontColor=#000000;" parent="1" source="759bbc3739f4eb62-10" target="759bbc3739f4eb62-10" edge="1">
                    <mxGeometry relative="1" as="geometry"/>
                </mxCell>
                <mxCell id="759bbc3739f4eb62-13" value="Better Classroom Communication" style="ellipse;whiteSpace=wrap;html=1;rounded=1;glass=0;comic=0;labelBackgroundColor=none;strokeColor=#000000;fillColor=#ffffff;fontSize=17;fontColor=#000000;align=center;" parent="1" vertex="1">
                    <mxGeometry x="970" y="120" width="150" height="80" as="geometry"/>
                </mxCell>
                <mxCell id="14" style="edgeStyle=none;html=1;entryX=0.5;entryY=1;entryDx=0;entryDy=0;strokeColor=#000000;" edge="1" parent="1" source="2" target="759bbc3739f4eb62-10">
                    <mxGeometry relative="1" as="geometry"/>
                </mxCell>
                <mxCell id="2" value="Change user access" style="ellipse;whiteSpace=wrap;html=1;rounded=1;glass=0;comic=0;labelBackgroundColor=none;strokeColor=#000000;fillColor=#ffffff;fontSize=17;fontColor=#000000;align=center;" vertex="1" parent="1">
                    <mxGeometry x="840" y="370" width="120" height="80" as="geometry"/>
                </mxCell>
                <mxCell id="10" style="edgeStyle=none;html=1;entryX=0.5;entryY=1;entryDx=0;entryDy=0;strokeColor=#000000;" edge="1" parent="1" source="3" target="2">
                    <mxGeometry relative="1" as="geometry"/>
                </mxCell>
                <mxCell id="3" value="Add new user" style="ellipse;whiteSpace=wrap;html=1;rounded=1;glass=0;comic=0;labelBackgroundColor=none;strokeColor=#000000;fillColor=#ffffff;fontSize=17;fontColor=#000000;align=center;" vertex="1" parent="1">
                    <mxGeometry x="870" y="500" width="120" height="80" as="geometry"/>
                </mxCell>
                <mxCell id="9" style="edgeStyle=none;html=1;entryX=0;entryY=1;entryDx=0;entryDy=0;strokeColor=#000000;" edge="1" parent="1" source="4" target="2">
                    <mxGeometry relative="1" as="geometry"/>
                </mxCell>
                <mxCell id="4" value="Make groups" style="ellipse;whiteSpace=wrap;html=1;rounded=1;glass=0;comic=0;labelBackgroundColor=none;strokeColor=#000000;fillColor=#ffffff;fontSize=17;fontColor=#000000;align=center;" vertex="1" parent="1">
                    <mxGeometry x="700" y="500" width="120" height="80" as="geometry"/>
                </mxCell>
                <mxCell id="11" style="edgeStyle=none;html=1;entryX=1;entryY=1;entryDx=0;entryDy=0;strokeColor=#000000;" edge="1" parent="1" source="5" target="2">
                    <mxGeometry relative="1" as="geometry"/>
                </mxCell>
                <mxCell id="5" value="Delete user" style="ellipse;whiteSpace=wrap;html=1;rounded=1;glass=0;comic=0;labelBackgroundColor=none;strokeColor=#000000;fillColor=#ffffff;fontSize=17;fontColor=#000000;align=center;" vertex="1" parent="1">
                    <mxGeometry x="1030" y="500" width="120" height="80" as="geometry"/>
                </mxCell>
            </root>
        </mxGraphModel>
    </diagram>
</mxfile>